<svg version="1.2" xmlns="http://www.w3.org/2000/svg" viewBox="0 0 921 805" width="921" height="805"><style>.a{fill:#0e2134}.b{fill:#0e2133}.c{fill:#0c2836}.d{fill:#2de7f4}.e{fill:#0f2031}.f{fill:#0f2032}.g{fill:#11f9f8}.h{fill:#18f5f7}.i{fill:#1cf3f6}.j{fill:#17f7f8}.k{fill:#1bf5f8}.l{fill:#fcfcfc}.m{fill:#182738}.n{fill:#162637}.o{fill:#132335}.p{fill:#152637}.q{fill:#172738}.r{fill:#14faf9}.s{fill:#0ff8f7}.t{fill:#152536}.u{fill:#102132}.v{fill:#1c2c3d}.w{fill:#172737}.x{fill:#1b2b3b}.y{fill:#f3f4f5}.z{fill:#102336}.A{fill:#112132}.B{fill:#1a2b3c}.C{fill:#3e4a56}.D{fill:#12f2f2}.E{fill:#0ef3f2}.F{fill:#132333}.G{fill:#010818}.H{fill:#21b6ca}.I{fill:#dfe2e4}.J{fill:#122334}.K{fill:#fafbfb}.L{fill:#c0c0c0}.M{fill:#f2f3f5}.N{fill:#f4f4f5}.O{fill:#fefefe}.P{fill:#f7f8f8}.Q{fill:#0f2133}.R{fill:#ecedee}.S{fill:#f6f8f8}.T{fill:#eff1f2}.U{fill:#f2f3f4}.V{fill:#112133}.W{fill:#e4e5e6}.X{fill:#f4f5f6}.Y{fill:#eff0f1}.Z{fill:#16f5f6}.a0{fill:#dfe2e5}.a1{fill:#e9ebed}.a2{fill:#535e69}.a3{fill:#12202f}.a4{fill:#f8f8f9}.a5{fill:#d0d3d5}.a6{fill:#edeeef}.a7{fill:#eff0f2}.a8{fill:#d0d2d4}.a9{fill:#4d5156}.aa{fill:#c8cacc}.ab{fill:#050c18}.ac{fill:#c5c8cb}.ad{fill:#0d192c}.ae{fill:#364554}.af{fill:#ebedef}.ag{fill:#5b6673}.ah{fill:#d4d6d8}.ai{fill:#d0d2d5}.aj{fill:#434e59}.ak{fill:#111f2f}.al{fill:#d9dadb}.am{fill:#e8eaec}.an{fill:#d3d5d8}.ao{fill:#fcfdfd}.ap{fill:#cdd0d4}.aq{fill:#707881}.ar{fill:#dddfe0}.as{fill:#dbdddf}.at{fill:#f8f9f9}.au{fill:#e8eaeb}.av{fill:#f4f4f4}.aw{fill:#394857}.ax{fill:#0f1217}.ay{fill:#5c6976}.az{fill:#d0d0d1}.aA{fill:#545e6a}.aB{fill:#babec2}.aC{fill:#eeeff1}.aD{fill:#24303e}.aE{fill:#d1d3d6}.aF{fill:#f4f5f7}.aG{fill:#515c69}.aH{fill:#c0c1c2}.aI{fill:#2adcea}.aJ{fill:#233344}.aK{fill:#c8cace}.aL{fill:#dddedf}.aM{fill:#182838}.aN{fill:#9da3a9}.aO{fill:#d6d7d9}.aP{fill:#dfdfe0}.aQ{fill:#01040d}.aR{fill:#2f3b46}.aS{fill:#0e1a27}.aT{fill:#636d78}.aU{fill:#b8bbc0}.aV{fill:#120e13}.aW{fill:#fbfbfb}.aX{fill:#fdfdfd}.aY{fill:#d1d2d4}.aZ{fill:#c8cbce}.b0{fill:#7f8790}.b1{fill:#101823}.b2{fill:#212d3b}.b3{fill:#4a5561}.b4{fill:#3e4a57}.b5{fill:#f0f1f3}.b6{fill:#cdcfd2}.b7{fill:#4f5c69}.b8{fill:#3e4e5f}.b9{fill:#a3a5ac}.ba{fill:#e0e0e2}.bb{fill:#5f6770}.bc{fill:#29333f}.bd{fill:#d6d9db}.be{fill:#d4d5d6}.bf{fill:#091422}.bg{fill:#20edf1}.bh{fill:#55606d}.bi{fill:#212a35}.bj{fill:#404c5c}.bk{fill:#e3e5e6}.bl{fill:#efeff0}.bm{fill:#10f0f2}.bn{fill:#c1c3c5}.bo{fill:#252f3a}.bp{fill:#d0d0d2}.bq{fill:#535e6c}.br{fill:#dfdfe1}.bs{fill:#c9cbce}.bt{fill:#e5e6e6}.bu{fill:#112b3b}.bv{fill:#adb1b6}.bw{fill:#4f5a66}.bx{fill:#d5d6d7}.by{fill:#2adde5}.bz{fill:#212f41}.bA{fill:#0f2236}.bB{fill:#415160}.bC{fill:#d1d3d5}.bD{fill:#11e6e8}.bE{fill:#8f959e}.bF{fill:#eeeff0}.bG{fill:#e2e3e5}.bH{fill:#3c4a59}.bI{fill:#0c1720}.bJ{fill:#130e16}.bK{fill:#5c6670}.bL{fill:#394450}.bM{fill:#474d57}.bN{fill:#505966}.bO{fill:#353d47}.bP{fill:#242e3a}.bQ{fill:#535f6c}.bR{fill:#e9ecee}.bS{fill:#111a29}.bT{fill:#13eef0}.bU{fill:#323f4d}.bV{fill:#050a11}.bW{fill:#374351}.bX{fill:#1aedef}.bY{fill:#1ee8ec}.bZ{fill:#0e1723}.c0{fill:#dedfe1}.c1{fill:#11121e}.c2{fill:#1deaef}.c3{fill:#121620}.c4{fill:#0ce1e3}.c5{fill:#141016}.c6{fill:#454e57}.c7{fill:#4a5662}.c8{fill:#0d111c}.c9{fill:#32f2f7}.ca{fill:#10e9ea}.cb{fill:#131620}.cc{fill:#d2d4d7}.cd{fill:#28313c}.ce{fill:#0b121d}.cf{fill:#24eef1}.cg{fill:#47505b}.ch{fill:#b8bbbe}.ci{fill:#323a44}.cj{fill:#202c3b}.ck{fill:#17202a}.cl{fill:#d6d8dc}.cm{fill:#bfc3c8}.cn{fill:#182938}.co{fill:#31f0f9}.cp{fill:#132c3f}.cq{fill:#0c3846}.cr{fill:#dfe0e1}.cs{fill:#3e4e5d}.ct{fill:#9fa5ac}</style><path class="a" d="m205 43q68.9 0 137.8 0 1 0 2.1 0 22.1 0 44.3-0.1 10.8 0 21.7 0 1.1 0 2.2 0 35 0 70.1 0 36 0 72 0 5.1 0 10.2 0c1 0 1 0 2 0q15.1 0 30.2 0 17.2 0 34.4 0 8.8 0 17.6 0 8 0 16 0 3 0 5.9 0 3.9 0 7.8 0 1.2 0 2.4 0c5.2 0 5.2 0 6.3 1.1q3 0.3 6 0.5c5.9 0.4 5.9 0.4 7 1.5q2 0.3 4.1 0.6 1.9 0.2 3.9 0.4 0 1 0 2 1.3-0.1 2.6-0.1c3.5 0.1 6.1 0.9 9.4 2.1q0 1 0 2 3 0 6 0 0 1 0 2 1 0.2 2.1 0.3c6.3 1.5 12.1 4.8 17.9 7.7q0 1 0 2 2 0 4 0 0 1 0 2c0.9 0.2 0.9 0.2 1.9 0.4 2.1 0.6 2.1 0.6 4.1 1.6q0 1 0 2c0.9 0.2 0.9 0.2 1.9 0.4 2.1 0.6 2.1 0.6 4.1 1.6q0 1 0 2 1 0 2 0 0 1 0 2c0.9 0.2 0.9 0.2 1.9 0.4 2.1 0.6 2.1 0.6 4.1 1.6q0 1 0 2 1 0 2 0 0 1 0 2 1 0 2 0 0 1 0 2 1 0 2 0 0 1 0 2 1 0 2 0 0 1 0 2 1 0 2 0 0 1 0 2 1 0 2 0 0 1 0 2 1 0 2 0 0 1 0 2 1 0 2 0 0 1 0 2 1 0 2 0 0 1 0 2 1 0 2 0 0 1 0 2 1 0 2 0 0 2 0 4 1 0 2 0 0 1 0 2 1 0 2 0c2 3 2 3 2 6q1 0 2 0 0 1 0 2 1 0 2 0 0 2 0 4 1 0 2 0 0 2 0 4 1 0 2 0 1 1.9 2 3.7 0.6 1.1 1.1 2.2c0.9 2.1 0.9 2.1 0.9 6.1q1 0 2 0 0 2 0 4 1 0 2 0 0 3 0 6 1 0 2 0 0 3 0 6 1 0 2 0 0 3 0 6 1 0 2 0 0.3 3.1 0.7 6.2c0.1 1.8 0.1 1.8 1.3 2.8 0.3 3.4 0.5 6.7 0.7 10.1 0 2.8 0 2.8 1.3 3.9q0.1 3.6 0.1 7.2 0 1.1 0 2.3 0 3.9 0 7.7 0 2.8 0 5.6 0 7.7 0 15.4 0 8.3 0 16.6 0 16.3 0 32.6 0 13.2 0 26.4c0 1.9 0 1.9 0 3.8q0 3.8 0 7.6 0 34.8 0 69.6 0 31.7 0 63.5 0 35.7 0 71.3 0 3.8 0 7.6 0 1.9 0 3.8 0 13.2 0 26.4 0 16.1 0 32.2 0 8.2 0 16.4 0 7.5 0 15 0 2.7 0 5.5 0 3.7 0 7.3 0 1.1 0 2.2c0 4.9 0 4.9-1.1 6q-0.3 3.3-0.6 6.6-0.1 1.7-0.2 3.6-0.1 1.4-0.2 2.8-1 0-2 0c0 2.6 0 5.3 0 8q-1 0-2 0c0.1 1.6 0.1 1.6 0.1 3.2-0.1 3.5-0.6 5.6-2.1 8.8q-1 0-2 0 0 3 0 6-1 0-2 0 0 2 0 4-1 0-2 0c0.1 1.1 0.1 1.1 0.1 2.2-0.1 3-0.9 5.1-2.1 7.8q-1 0-2 0 0 2 0 4-1 0-2 0-0.2 0.9-0.4 1.9c-0.6 2.1-0.6 2.1-1.6 4.1q-1 0-2 0 0 2 0 4-1 0-2 0 0 1 0 2-1 0-2 0 0 2 0 4-1 0-2 0 0 1 0 2-1 0-2 0 0 1 0 2-1 0-2 0 0 2 0 4-1 0-2 0 0 1 0 2-1 0-2 0 0 1 0 2-1 0-2 0 0 1 0 2-1 0-2 0 0 1 0 2-1 0-2 0-0.1 0.9-0.2 1.8c-1.1 3.1-3.1 4.3-5.8 6.2q-1 0-2 0 0 1 0 2-1 0-2 0 0 1 0 2-1 0-2 0 0 1 0 2-1 0-2 0 0 1 0 2-1 0-2 0 0 1 0 2-2 0-4 0 0 1 0 2-1 0-2 0 0 1 0 2-3 1-6 2 0 1 0 2-2 0-4 0 0 1 0 2-1 0-2 0 0 1 0 2-2 0-4 0 0 1 0 2-2 0-4 0 0 1 0 2-2 0-4 0 0 1 0 2c-3.5 1.6-6.1 2.2-10 2q0 1 0 2-3 0-6 0 0 1 0 2c-4.2 1.6-7.5 2.2-12 2q0 1 0 2c-2.6 0-5.3 0-8 0q0 1 0 2-1.3 0.1-2.6 0.2-1.6 0.1-3.3 0.2-1.7 0.2-3.4 0.3c-2.6 0-2.6 0-3.7 1.3q-2.5 0.2-5 0.3-1.5 0-3.1 0.1-1.6 0-3.3 0.1-3.1 0.1-6.3 0.2-1.4 0.1-2.9 0.1c-2.5 0.1-2.5 0.1-5.4 1.2q-3.5 0.1-7 0.1-1.1 0-2.2 0-3.7 0-7.4 0-2.6 0-5.3 0-7.2 0-14.5 0-7.9 0-15.7 0-15.4 0-30.8 0-12.5 0-25 0-1.8 0-3.6 0-3.6 0-7.2 0-33.9 0-67.8 0-29.1 0-58.2 0-33.7 0-67.5 0-3.5 0-7.1 0-1.8 0-3.6 0-12.5 0-25 0-15.2 0-30.4 0-7.8 0-15.6 0-7.1 0-14.2 0-2.6 0-5.1 0-3.5 0-7 0-1.9 0-3.9 0c-2.9-0.1-2.9-0.1-3.9-1.1q-2.8-0.2-5.6-0.3c-1.7-0.1-1.7-0.1-3.4-0.1-1.8-0.1-1.8-0.1-3.6-0.2q-1.7 0-3.6-0.1-4.4-0.2-8.8-0.3 0-1 0-2c-4 0-7.9 0-12 0q0-1 0-2c-1.5 0.1-1.5 0.1-3.1 0.1-4.1-0.1-7-0.8-10.9-2.1q0-1 0-2-3 0-6 0 0-1 0-2-3 0-6 0 0-1 0-2-2 0-4 0 0-1 0-2-2 0-4 0 0-1 0-2-2 0-4 0 0-1 0-2-2 0-4 0 0-1 0-2-2 0-4 0 0-1 0-2-2 0-4 0 0-1 0-2-2 0-4 0 0-1 0-2-1 0-2 0 0-1 0-2c-2-0.7-4-1.3-6-2q0-1 0-2-1 0-2 0 0-1 0-2-0.9-0.2-1.9-0.4c-2.1-0.6-2.1-0.6-4.1-1.6q0-1 0-2-1 0-2 0 0-1 0-2-1 0-2 0 0-1 0-2-1 0-2 0 0-1 0-2-1 0-2 0 0-1 0-2-1 0-2 0 0-1 0-2-1 0-2 0 0-1 0-2-1 0-2 0 0-1 0-2-1 0-2 0 0-1 0-2-1 0-2 0 0-1 0-2-1 0-2 0-1-3-2-6-1 0-2 0 0-1 0-2-1 0-2 0 0-2 0-4-1 0-2 0 0-1 0-2-1 0-2 0 0-2 0-4-1 0-2 0c-1-3-1-3-2-6q-1 0-2 0 0-2 0-4-1 0-2 0 0-2 0-4-1 0-2 0 0-2 0-4-1 0-2 0c-1.3-3.6-2-6.1-2-10q-1 0-2 0c-2-4.1-2.2-7.5-2-12q-1 0-2 0-0.2-1.7-0.4-3.4c-0.2-3.4-0.2-3.4-1.6-4.6-0.1-2.7 0-5.3 0-8q-1 0-2 0-0.1-1.6-0.2-3.2-0.1-2.1-0.2-4.2c-0.1-1.1-0.1-1.1-0.2-2.2 0.1-3.5 0.1-3.5-1.4-6.4-0.1-2.3-0.1-4.6-0.1-7q0-1.1 0-2.2 0-3.8 0-7.6 0-2.7 0-5.4 0-7.5 0-15 0-8.1 0-16.2 0-15.8 0-31.6 0-12.9 0-25.8 0-1.8 0-3.7 0-3.7 0-7.4 0-34.8 0-69.7 0-29.9 0-59.8 0-34.7 0-69.4 0-3.7 0-7.4 0-1.8 0-3.7 0-12.9 0-25.7 0-15.7 0-31.3 0-8 0-16 0-7.3 0-14.6 0-2.7 0-5.4 0-3.5 0-7.1 0-1.1 0-2.1c0-4.8 0-4.8 1.1-5.9q0.4-4 0.6-8.1 0-1.1 0.1-2.3 0.2-2.8 0.3-5.6 1 0 2 0 0-1.9-0.1-3.9 0-2.1 0.1-4.1c0.5-0.5 0.5-0.5 1-1q0.6-3.5 1-7 1 0 2 0 0-3 0-6 1 0 2 0-0.1-1.1-0.1-2.2c0.1-3 0.9-5.1 2.1-7.8q1 0 2 0 0-2 0-4 1 0 2 0 0-2 0-4 1 0 2 0 0-2 0-4 1 0 2 0 0-2 0-4 1 0 2 0 0-2 0-4 1 0 2 0 0.2-0.9 0.4-1.9c0.6-2.1 0.6-2.1 1.6-4.1q1 0 2 0 0-1 0-2 1 0 2 0 0.2-0.9 0.4-1.9c0.6-2.1 0.6-2.1 1.6-4.1q1 0 2 0 0-1 0-2 1 0 2 0 1-3 2-6 1 0 2 0 0-1 0-2 1 0 2 0 0-1 0-2 1 0 2 0 0-1 0-2 1 0 2 0 0-1 0-2 1 0 2 0 0-1 0-2 1 0 2 0 0-1 0-2 1 0 2 0 0-1 0-2 1 0 2 0 0-1 0-2 2 0 4 0 0-1 0-2 1 0 2 0 0-1 0-2c3-2 3-2 6-2q0-1 0-2 1 0 2 0 0-1 0-2 2 0 4 0 0-1 0-2 1 0 2 0 0-1 0-2 2 0 4 0 0-1 0-2 2 0 4 0 0-1 0-2 2 0 4 0 0-1 0-2 2 0 4 0 0-1 0-2 2 0 4 0 0-1 0-2c3.5-1.6 6.1-2.2 10-2q0-1 0-2 3 0 6 0 0-1 0-2 1.7-0.2 3.4-0.4c3.4-0.2 3.4-0.2 4.6-1.6q3.5-0.5 7-1 0.5-0.5 1-1 2.5-0.1 5.1-0.1 1.3 0.1 2.7 0.1 1.1 0 2.2 0 0-1 0-2z"/><path class="b" d="m339.1 125.6q3.9 0 7.8 0 9.5 0 19 0 7.7 0 15.4 0 1.1 0 2.2 0 2.2 0 4.5 0 20.9 0 41.8 0 18 0 35.9 0 20.8 0 41.7 0 2.2 0 4.5 0 1.1 0 2.2 0 7.7 0 15.4 0 10.3 0 20.7 0 3.8 0 7.6 0c33.2-0.1 58.9 7.9 83.3 31.1 20.2 20.8 28.2 47.2 28.2 75.6q0 2.2 0 4.5 0 6.1 0 12.3 0 6.6 0 13.3 0 13 0 26 0 10.6 0 21.1 0 1.5 0 3.1 0 3.1 0 6.1 0 28.7 0 57.5 0 26.2 0 52.4 0.1 27 0.1 53.9 0 15.2 0 30.3 0 12.9 0 25.7 0 6.6 0 13.2c0.1 34.1-2.8 65-25.4 92.3q-1 1.3-2.1 2.6c-11.2 13.2-26.2 22.9-42.3 28.7q-1 0.4-1.9 0.7c-15.6 5.3-30.7 5.4-47 5.4q-3.8 0-7.6 0-9.2 0-18.4 0-7.5 0-15 0-1.1 0-2.2 0-2.1 0-4.3 0-20.4 0.1-40.7 0-18.6 0-37.2 0.1-19.1 0-38.3 0-10.7 0-21.4 0-10.1 0-20.2 0-3.7 0-7.3 0c-31.8 0.1-58.4-7.9-82.1-29.5-1.1-1-1.1-1-2.2-2-8.9-8.2-15.3-18.4-20.6-29.2q-0.5-1-1.1-2.1c-1.2-2.5-2.1-5.1-3.1-7.7q-0.6-1.7-1.3-3.4c-5.4-16.1-4.4-33.2-4.3-50q0-6.9-0.1-13.9 0-13.7 0.1-27.3 0-11.1 0-22.2 0-1.6 0-3.2 0-3.2 0-6.4 0-28.4 0-56.8 0-27.6 0-55.1 0-30 0-60 0-3.2 0-6.4 0-1.6 0-3.2 0-11.1 0-22.2 0-13.5 0-27 0.1-6.9 0.1-13.7-0.1-6.3 0-12.7 0-2.2 0-4.5c-0.2-25.8 10.9-49 28.7-67.3 25-24.4 53-30.2 86.9-30.1z"/><path class="c" d="m328.4 192.9q1.6-0.1 3.2-0.1 5.2 0 10.5 0 3.7 0 7.5 0 11.3 0 22.6 0 5.3 0 10.7-0.1 17.7 0 35.4 0 4.6 0 9.2 0c1.2 0 1.2 0 2.3 0q18.5 0 37-0.1 19.1 0 38.1 0 10.6 0 21.3-0.1 10.1 0 20.1 0 3.7 0 7.3 0c17.3-0.1 32.1 0.2 45.6 12.5 8.7 8.9 11.9 19.7 12 31.9q0.1 1.2 0.1 2.4 0 2.4 0 4.8 0 2.4 0.1 4.9c0.2 15.8-2.2 28-13.2 40-6.5 6.1-15.7 11.1-24.7 11.1q-1.3 0-2.7 0.1-1.5 0-3.1 0c-1.6 0-1.6 0-3.2 0q-5.5 0-10.9 0-3.8 0-7.7 0-11.6 0.1-23.3 0.1-3.3 0-6.6 0-20.4 0-40.8 0-4.8 0-9.5 0.1-1.2 0-2.4 0-19 0-38.1 0-19.5 0.1-39.1 0.1-10.9 0-21.9 0.1-10.4 0-20.7 0-3.8 0-7.6 0c-16.5 0.1-29.7-0.1-42.7-11.4-3.4-3.5-5.9-7-8.2-11.2q-0.5-0.9-1.1-1.9c-4.1-8.3-3.5-17.2-3.4-26.2q0-4.2 0-8.5c-0.1-15.5 2.5-25.8 13.3-37.3 9.7-9.4 21.6-11.2 34.6-11.2z"/><path class="d" d="m339.1 125.6q3.9 0 7.8 0 9.5 0 19 0 7.7 0 15.4 0 1.1 0 2.2 0 2.2 0 4.5 0 20.9 0 41.8 0 18 0 35.9 0 20.8 0 41.7 0 2.2 0 4.5 0 1.1 0 2.2 0 7.7 0 15.4 0 10.3 0 20.7 0 3.8 0 7.6 0c33.2-0.1 58.9 7.9 83.3 31.1 20.2 20.8 28.2 47.2 28.2 75.6q0 2.2 0 4.5 0 6.1 0 12.3 0 6.6 0 13.3 0 13 0 26 0 10.6 0 21.1 0 1.5 0 3.1 0 3.1 0 6.1 0 28.7 0 57.5 0 26.2 0 52.4 0.1 27 0.1 53.9 0 15.2 0 30.3 0 12.9 0 25.7 0 6.6 0 13.2c0.1 34.1-2.8 65-25.4 92.3q-1 1.3-2.1 2.6c-11.2 13.2-26.2 22.9-42.3 28.7q-1 0.4-1.9 0.7c-15.6 5.3-30.7 5.4-47 5.4q-3.8 0-7.6 0-9.2 0-18.4 0-7.5 0-15 0-1.1 0-2.2 0-2.1 0-4.3 0-20.4 0.1-40.7 0-18.6 0-37.2 0.1-19.1 0-38.3 0-10.7 0-21.4 0-10.1 0-20.2 0-3.7 0-7.3 0c-31.8 0.1-58.4-7.9-82.1-29.5-1.1-1-1.1-1-2.2-2-8.9-8.2-15.3-18.4-20.6-29.2q-0.5-1-1.1-2.1c-1.2-2.5-2.1-5.1-3.1-7.7q-0.6-1.7-1.3-3.4c-5.4-16.1-4.4-33.2-4.3-50q0-6.9-0.1-13.9 0-13.7 0.1-27.3 0-11.1 0-22.2 0-1.6 0-3.2 0-3.2 0-6.4 0-28.4 0-56.8 0-27.6 0-55.1 0-30 0-60 0-3.2 0-6.4 0-1.6 0-3.2 0-11.1 0-22.2 0-13.5 0-27 0.1-6.9 0.1-13.7-0.1-6.3 0-12.7 0-2.2 0-4.5c-0.2-25.8 10.9-49 28.7-67.3 25-24.4 53-30.2 86.9-30.1zm-43.2 20.1q-1 0.4-2 0.8c-22.8 9.1-39.6 25.8-49.5 48.1-4 10-6.5 20.1-6.5 30.9q0 1.9 0 3.8 0 2.1 0 4.2 0 2.2 0 4.4-0.1 6.1-0.1 12.3 0 6.6 0 13.2 0 14.4 0 28.8 0 9.1 0 18.1 0 25 0 50 0 1.6 0 3.2 0 1.6 0 3.3 0 3.2 0 6.5 0 1.6 0 3.2 0 26.1-0.1 52.2 0 26.8 0 53.6 0 15 0 30.1-0.1 12.8-0.1 25.6 0 6.5 0 13.1 0 6 0 11.9 0 2.2 0 4.3c-0.1 25 6.5 48.8 23.4 67.7q1.2 1.3 2.4 2.7c14.9 15.7 35.9 27.5 57.9 28.4q4.1 0 8.1 0c1.6 0 1.6 0 3.2 0q5.2 0.1 10.4 0.1 3.7 0 7.5 0 10.1 0 20.2 0 6.4 0 12.7 0 17.6 0 35.2 0c1.1 0 1.1 0 2.3 0q1.1 0 2.2 0 2.3 0 4.6 0c1.1 0 1.1 0 2.3 0q18.3 0 36.7 0.1 18.8 0 37.7 0 10.5 0 21.1 0 10 0.1 19.9 0.1 3.7 0 7.3 0c28.2 0.1 52.6-6 73.7-25.8 17.3-17.2 26.8-40.5 26.9-64.7q0-2.1 0-4.3 0-2.3 0-4.6 0-6.3 0-12.6 0-6.8 0-13.6 0-13.3 0-26.7 0-10.8 0-21.6 0.1-30.8 0.1-61.5 0-1.7 0-3.4c0-1.6 0-1.6 0-3.3q0-26.9 0-53.8 0.1-27.6 0.1-55.2 0-15.5 0-31 0-13.2 0-26.4 0-6.7 0-13.4 0-6.2 0-12.3 0-2.3 0-4.5c0.2-23.7-8.8-44.8-25.5-61.7-1.1-1.2-1.1-1.2-2.3-2.3-22.2-21.3-50.1-23.2-79.2-23.1q-3.7 0-7.5 0-9.1 0-18.1 0-10.6 0-21.2 0-18.9 0-37.8 0.1-18.4 0-36.7 0-20 0-40 0-2.1 0-4.2 0-1.1 0-2.2 0-7.3 0-14.7 0-9.9 0-19.9 0-3.6 0-7.2 0-5 0-10 0c-1.4 0-1.4 0-2.8 0-9.8 0.1-19.2 1.5-28.3 5z"/><path class="e" d="m328.3 329.8q1.1 0 2.2 0 3.6 0 7.2 0 2.5 0 5 0 5.3 0 10.5 0 6.7-0.1 13.5-0.1 5.1 0 10.3 0 2.5 0 5 0c15.4-0.2 27.6 2.2 39.2 13 10.8 11.4 12.1 24.1 12.1 39.2q0 2.1 0.1 4.3 0 4.5 0 9 0 5.7 0 11.4 0.1 4.4 0.1 8.9 0 2.1 0 4.2c0.1 14.5-2.6 26.4-12.5 37.3-6.2 6.1-12.6 9.6-21 12q-0.8 0.3-1.7 0.5c-3.1 0.7-6.2 0.7-9.4 0.7-1 0-1 0-2.1 0q-3.5 0-7 0c-1.2 0-1.2 0-2.4 0.1q-6.3 0-12.7 0-6.5 0-13 0.1-5 0-10.1 0-2.4 0-4.7 0.1c-15.3 0.1-27.5-2.6-38.9-13.4-7.7-8.2-12.2-18.6-12.3-29.9q0-1 0-2 0-3.2 0-6.3 0-2.3-0.1-4.5 0-4.7 0-9.3 0-6 0-11.9-0.1-4.6-0.1-9.2 0-2.2 0-4.4c-0.1-15 3.2-26.6 13.6-37.8 8.3-8 17.7-11.9 29.2-12z"/><path class="f" d="m501.2 329.8q1.1 0 2.2 0 3.6 0 7.2 0 1.2 0 2.5-0.1 6.5 0 13 0 6.7 0 13.4-0.1 5.2 0 10.4 0 2.4 0 4.9-0.1c15-0.1 26.7 2.3 38.2 12.5 8.2 8.3 13.1 19.5 13.2 31.2 0 1.9 0 1.9 0 3.8q0 2.1 0 4.2 0 1 0.1 2.1 0 5.5 0 11.1 0 5.6 0.1 11.3 0 4.4 0 8.8 0 2.1 0.1 4.2c0.1 14-2.4 25.4-11.5 36.3q-0.8 1-1.6 2c-7.2 8-18.2 12.6-28.8 13.2q-6.3 0.1-12.7 0.1-2.3 0-4.7 0.1-4.9 0-9.9 0-6.2 0-12.5 0-4.9 0.1-9.7 0.1-2.3 0-4.6 0c-15.3 0.1-28-2.6-39.5-13.4-7.5-8-12.2-18.1-12.3-29.1q0-1 0-2.1-0.1-3.3-0.1-6.6 0-2.3 0-4.7 0-4.8 0-9.7 0-6.2-0.1-12.5-0.1-4.8-0.1-9.6 0-2.3 0-4.6c-0.2-14.5 3.5-25.7 13.6-36.3 8.4-8 17.7-12 29.2-12.1z"/><path class="f" d="m340.6 487.7q2.2 0 4.5 0 4.7 0 9.5 0 6 0 12-0.1 4.6 0 9.3 0 2.2 0 4.4 0c15.5-0.1 28.8 2.7 40.5 13.5 10.8 11.4 12.5 24.5 12.5 39.4q0 2.2 0.1 4.3 0 4.4 0 8.9 0 5.6 0 11.2 0.1 4.4 0.1 8.8 0 2.1 0 4.1c0.1 14.3-2.6 26.5-12.5 37.2-9.3 8.3-19.6 13.1-32 13.2-1.1 0-1.1 0-2.1 0q-3.5 0.1-7 0.1-1.2 0-2.4 0-6.3 0-12.6 0.1-5.2 0-10.4 0-6.4 0.1-12.7 0.1-2.4 0-4.7 0.1c-13.4 0.2-25.6-1.6-36.1-10.7-9-8.9-15.1-19.6-15.2-32.4q0-1 0-2 0-3.2 0-6.3 0-1.1-0.1-2.3 0-5.8 0-11.6 0-6-0.1-11.9 0-4.6 0-9.3 0-2.2-0.1-4.4c-0.1-14.4 2.7-25.7 12.5-36.7 12.3-11.7 26.3-13.3 42.6-13.3z"/><path class="f" d="m512.5 487.5q2.4 0 4.7 0 5 0 9.9 0 6.2 0.1 12.5 0 4.8 0 9.7 0.1 2.3 0 4.6 0c15.6-0.1 28.5 2.6 40.3 13.5 10.3 10.7 12.4 23.4 12.3 37.9q0 2.1 0 4.2 0 4.4 0 8.8-0.1 5.6 0 11.2 0 4.4-0.1 8.7 0 2.1 0 4.2c0.1 16-3.1 28.2-14.1 40.2-11.7 11.1-26 12-41.3 12q-2.3 0-4.6 0.1-4.9 0-9.8 0-6.1 0-12.3 0-4.8 0.1-9.6 0.1-2.3 0-4.6 0c-14.9 0.1-26.5-2.9-37.8-12.9-8.4-9.5-13.3-18.3-13.5-31.2q0-2 0-4-0.1-2.2-0.1-4.3 0-1.1 0-2.2 0-5.8-0.1-11.6 0-4.8 0-9.5-0.1-5.8-0.1-11.6 0-2.2-0.1-4.4c-0.2-13.8 2.9-25 12.1-35.4 12-11.6 26-14 42-13.9z"/><path class="g" d="m328.4 192.9q1.6-0.1 3.2-0.1 5.2 0 10.5 0 3.7 0 7.5 0 11.3 0 22.6 0 5.3 0 10.7-0.1 17.7 0 35.4 0 4.6 0 9.2 0c1.2 0 1.2 0 2.3 0q18.5 0 37-0.1 19.1 0 38.1 0 10.6 0 21.3-0.1 10.1 0 20.1 0 3.7 0 7.3 0c17.3-0.1 32.1 0.2 45.6 12.5 8.7 8.9 11.9 19.7 12 31.9q0.1 1.2 0.1 2.4 0 2.4 0 4.8 0 2.4 0.1 4.9c0.2 15.8-2.2 28-13.2 40-6.5 6.1-15.7 11.1-24.7 11.1q-1.3 0-2.7 0.1-1.5 0-3.1 0c-1.6 0-1.6 0-3.2 0q-5.5 0-10.9 0-3.8 0-7.7 0-11.6 0.1-23.3 0.1-3.3 0-6.6 0-20.4 0-40.8 0-4.8 0-9.5 0.1-1.2 0-2.4 0-19 0-38.1 0-19.5 0.1-39.1 0.1-10.9 0-21.9 0.1-10.4 0-20.7 0-3.8 0-7.6 0c-16.5 0.1-29.7-0.1-42.7-11.4-3.4-3.5-5.9-7-8.2-11.2q-0.5-0.9-1.1-1.9c-4.1-8.3-3.5-17.2-3.4-26.2q0-4.2 0-8.5c-0.1-15.5 2.5-25.8 13.3-37.3 9.7-9.4 21.6-11.2 34.6-11.2zm-29.7 29.2c-3.9 6.5-3 14-3.1 21.4q0 2.5 0 5.1c-0.3 10.9-0.5 20.1 7.4 28.5 7.2 7.1 14.9 8.3 24.7 8.3q1.6 0 3.2 0 5.3 0 10.6 0 3.8 0 7.6 0 9.2 0 18.4 0 7.5 0 15 0 1.1 0 2.2 0 2.1 0 4.3 0 20.4 0 40.7 0 17.5 0 34.9 0 20.3 0 40.6 0 2.1 0 4.3 0c1.1 0 1.1 0 2.1 0q7.5 0 15 0 10.1 0 20.2 0 3.7 0 7.4 0 5 0 10.1 0 1.5 0 3 0c8.2-0.1 14.9-1.9 21.1-7.6 7.8-8.8 7.9-18 8-29.1q0-2.3 0-4.6c0.3-10.4 0.1-19.3-7.4-27.2-7.2-7-13.9-8.3-23.6-8.3q-1.6 0-3.3 0-5.3 0-10.6 0-3.8 0-7.6 0-9.3-0.1-18.6-0.1-7.6 0-15.1 0-2.2 0-4.4 0-1.1 0-2.2 0-20.5 0-41 0-18.7 0-37.5 0-19.2-0.1-38.5-0.1-10.8 0-21.6 0-10.2-0.1-20.3 0-3.8 0-7.5 0-5.1-0.1-10.2 0-1.4 0-2.9-0.1c-11.1 0.2-19 4.9-25.4 13.8z"/><path class="h" d="m501.2 329.8q1.1 0 2.2 0 3.6 0 7.2 0 1.2 0 2.5-0.1 6.5 0 13 0 6.7 0 13.4-0.1 5.2 0 10.4 0 2.4 0 4.9-0.1c15-0.1 26.7 2.3 38.2 12.5 8.2 8.3 13.1 19.5 13.2 31.2 0 1.9 0 1.9 0 3.8q0 2.1 0 4.2 0 1 0.1 2.1 0 5.5 0 11.1 0 5.6 0.1 11.3 0 4.4 0 8.8 0 2.1 0.1 4.2c0.1 14-2.4 25.4-11.5 36.3q-0.8 1-1.6 2c-7.2 8-18.2 12.6-28.8 13.2q-6.3 0.1-12.7 0.1-2.3 0-4.7 0.1-4.9 0-9.9 0-6.2 0-12.5 0-4.9 0.1-9.7 0.1-2.3 0-4.6 0c-15.3 0.1-28-2.6-39.5-13.4-7.5-8-12.2-18.1-12.3-29.1q0-1 0-2.1-0.1-3.3-0.1-6.6 0-2.3 0-4.7 0-4.8 0-9.7 0-6.2-0.1-12.5-0.1-4.8-0.1-9.6 0-2.3 0-4.6c-0.2-14.5 3.5-25.7 13.6-36.3 8.4-8 17.7-12 29.2-12.1zm-21.2 24.2c-4.7 6.3-7.2 12.4-7.3 20.3q0 1.8 0 3.7 0 2 0 4 0 2.1-0.1 4.2 0 4.3 0 8.6 0 5.5 0 11-0.1 4.3-0.1 8.6 0 3 0 6c0 10.7 2.1 19 9.6 26.8 6.9 6.4 14.3 9 23.7 9.1q1.9 0 4 0 2.1 0 4.2 0 2.2 0 4.4 0.1 4.6 0 9.2 0 5.9 0 11.7 0 4.6 0.1 9.1 0.1 2.2 0 4.3 0c11.3 0.1 21.9-1.4 30.3-9.5 5.3-6.7 8.2-12.9 8.3-21.5q0-1.9 0-3.9 0-2 0-4.1 0-2.1 0.1-4.3 0-4.4 0-8.9 0-5.7 0-11.4 0.1-4.5 0.1-8.9 0-2.1 0-4.2c0.1-11.5-1.6-19.5-9.5-28-6.5-5.9-13.1-7.9-21.7-8q-1 0-2 0-3.3 0-6.7 0c-1.1 0-1.1 0-2.2-0.1q-6.1 0-12.1 0-6.1 0-12.3-0.1-4.8 0-9.6 0-2.2 0-4.5-0.1c-12-0.1-22.5 1.1-30.9 10.5z"/><path class="i" d="m512.5 487.5q2.4 0 4.7 0 5 0 9.9 0 6.2 0.1 12.5 0 4.8 0 9.7 0.1 2.3 0 4.6 0c15.6-0.1 28.5 2.6 40.3 13.5 10.3 10.7 12.4 23.4 12.3 37.9q0 2.1 0 4.2 0 4.4 0 8.8-0.1 5.6 0 11.2 0 4.4-0.1 8.7 0 2.1 0 4.2c0.1 16-3.1 28.2-14.1 40.2-11.7 11.1-26 12-41.3 12q-2.3 0-4.6 0.1-4.9 0-9.8 0-6.1 0-12.3 0-4.8 0.1-9.6 0.1-2.3 0-4.6 0c-14.9 0.1-26.5-2.9-37.8-12.9-8.4-9.5-13.3-18.3-13.5-31.2q0-2 0-4-0.1-2.2-0.1-4.3 0-1.1 0-2.2 0-5.8-0.1-11.6 0-4.8 0-9.5-0.1-5.8-0.1-11.6 0-2.2-0.1-4.4c-0.2-13.8 2.9-25 12.1-35.4 12-11.6 26-14 42-13.9zm-33.5 26.5c-3.7 6-6.1 11.6-6.2 18.7q0 1.7 0 3.5 0 1.9 0 3.9 0 1.9 0 3.9 0 4.2 0 8.3-0.1 5.3-0.1 10.6 0 5 0 10.1 0 1.9-0.1 3.8c0.1 11 1.6 20 9.4 28.2 9.5 8.8 19.4 9.5 32 9.4q2.1 0 4.3 0 4.5 0 9 0 5.8 0 11.5 0 4.5 0 9 0 2.1 0 4.2 0c11.4 0.1 21-0.8 30-8.3 6.4-6.6 9.1-13.4 9.2-22.4q0-1.9 0-3.8 0-2.1 0-4.2 0-1 0.1-2.1 0-5.6 0-11.2 0-5.7 0.1-11.4 0-4.5 0-8.9 0-2.1 0.1-4.2c0.1-11.6-1.6-19.6-9.6-28.2-3-2.7-6.2-4.3-9.9-5.7q-1.3-0.5-2.7-1c-3.5-1.1-6.3-1.3-10-1.3q-1.9 0-3.9 0-2.1 0-4.3 0-2.2 0-4.4-0.1-4.6 0-9.2 0-5.8 0-11.7 0-4.5-0.1-9.1-0.1-2.2 0-4.3 0c-13.3-0.1-24.4 1.9-33.4 12.5z"/><path class="j" d="m328.3 329.8q1.1 0 2.2 0 3.6 0 7.2 0 2.5 0 5 0 5.3 0 10.5 0 6.7-0.1 13.5-0.1 5.1 0 10.3 0 2.5 0 5 0c15.4-0.2 27.6 2.2 39.2 13 10.8 11.4 12.1 24.1 12.1 39.2q0 2.1 0.1 4.3 0 4.5 0 9 0 5.7 0 11.4 0.1 4.4 0.1 8.9 0 2.1 0 4.2c0.1 14.5-2.6 26.4-12.5 37.3-6.2 6.1-12.6 9.6-21 12q-0.8 0.3-1.7 0.5c-3.1 0.7-6.2 0.7-9.4 0.7-1 0-1 0-2.1 0q-3.5 0-7 0c-1.2 0-1.2 0-2.4 0.1q-6.3 0-12.7 0-6.5 0-13 0.1-5 0-10.1 0-2.4 0-4.7 0.1c-15.3 0.1-27.5-2.6-38.9-13.4-7.7-8.2-12.2-18.6-12.3-29.9q0-1 0-2 0-3.2 0-6.3 0-2.3-0.1-4.5 0-4.7 0-9.3 0-6 0-11.9-0.1-4.6-0.1-9.2 0-2.2 0-4.4c-0.1-15 3.2-26.6 13.6-37.8 8.3-8 17.7-11.9 29.2-12zm-21.3 25.2c-6.9 8.9-7.3 17.4-7.3 28.4q0 2-0.1 3.9 0 4.2 0 8.3 0 5.2 0 10.4-0.1 5-0.1 10 0 1.9 0 3.8c0.1 11.1 2.4 20.1 10.2 28.3 6.7 5.7 14 8 22.7 8.1q1.9 0 3.9 0 2.1 0 4.2 0 1 0 2.1 0 5.7 0 11.4 0 5.8 0.1 11.6 0.1 4.5 0 9 0 2.1 0 4.2 0c11.8 0.1 22.1-0.6 31-9 8.6-9 9.8-18.4 9.7-30.5q0-2 0-4 0.1-4.3 0-8.5 0-5.4 0-10.7 0.1-4.2 0-8.4 0-2.9 0.1-5.9c-0.2-10.1-2.3-19.8-9.6-27.3-7.1-5.8-13.9-8.2-23.1-8.3q-1 0-2 0-3.3 0-6.6 0-2.3 0-4.6-0.1-4.8 0-9.6 0-6.2 0-12.3 0-4.8-0.1-9.6-0.1-2.2 0-4.5 0c-12.8-0.1-21.8 1.9-30.7 11.5z"/><path class="k" d="m340.6 487.7q2.2 0 4.5 0 4.7 0 9.5 0 6 0 12-0.1 4.6 0 9.3 0 2.2 0 4.4 0c15.5-0.1 28.8 2.7 40.5 13.5 10.8 11.4 12.5 24.5 12.5 39.4q0 2.2 0.1 4.3 0 4.4 0 8.9 0 5.6 0 11.2 0.1 4.4 0.1 8.8 0 2.1 0 4.1c0.1 14.3-2.6 26.5-12.5 37.2-9.3 8.3-19.6 13.1-32 13.2-1.1 0-1.1 0-2.1 0q-3.5 0.1-7 0.1-1.2 0-2.4 0-6.3 0-12.6 0.1-5.2 0-10.4 0-6.4 0.1-12.7 0.1-2.4 0-4.7 0.1c-13.4 0.2-25.6-1.6-36.1-10.7-9-8.9-15.1-19.6-15.2-32.4q0-1 0-2 0-3.2 0-6.3 0-1.1-0.1-2.3 0-5.8 0-11.6 0-6-0.1-11.9 0-4.6 0-9.3 0-2.2-0.1-4.4c-0.1-14.4 2.7-25.7 12.5-36.7 12.3-11.7 26.3-13.3 42.6-13.3zm-35.6 27.3c-4.2 6.2-5.1 12.5-5.2 19.8q0 1.7 0 3.5 0 1.8 0 3.6 0 1.9 0 3.8 0 4 0 8-0.1 5-0.1 10.1 0 4.9 0 9.7 0 1.8-0.1 3.7c0.1 10.8 1.8 19.8 9.4 27.8 9.5 8.9 19.6 9.5 32.1 9.4q2.2 0 4.4 0 4.6 0.1 9.2 0 5.8 0 11.7 0.1 4.5 0 9 0 2.2 0 4.3 0c11.8 0.1 21.8-1.2 30.6-9.6 8.3-9.2 9-18.3 9-30.3q0-2 0.1-3.9 0-4.2 0-8.3 0-5.2 0-10.4 0.1-5 0.1-10 0-1.9 0-3.8c0-10.4-2-19.7-9.3-27.4-7.6-6.2-15.9-8.9-25.6-9q-1.8 0-3.8 0-2.1 0-4.1 0c-1.1 0-1.1 0-2.1-0.1q-5.6 0-11.1 0-5.7 0-11.4-0.1-4.4 0-8.9 0-2.1 0-4.2-0.1c-14.2-0.1-24.4 2.6-34 13.5z"/><path class="l" d="m205 43q68.9 0 137.8 0 1 0 2.1 0 22.1 0 44.3-0.1 10.8 0 21.7 0 1.1 0 2.2 0 35 0 70.1 0 36 0 72 0 5.1 0 10.2 0c1 0 1 0 2 0q15.1 0 30.2 0 17.2 0 34.4 0 8.8 0 17.6 0 8 0 16 0 3 0 5.9 0 3.9 0 7.8 0 1.2 0 2.4 0c5.2 0 5.2 0 6.3 1.1q3 0.3 6 0.5c5.9 0.4 5.9 0.4 7 1.5q2 0.3 4.1 0.6 1.9 0.2 3.9 0.4 0 1 0 2 1.3-0.1 2.6-0.1c3.5 0.1 6.1 0.9 9.4 2.1q0 1 0 2 3 0 6 0 0 1 0 2 1 0.2 2.1 0.3c6.3 1.5 12.1 4.8 17.9 7.7q0 1 0 2 2 0 4 0 0 1 0 2c0.9 0.2 0.9 0.2 1.9 0.4 2.1 0.6 2.1 0.6 4.1 1.6q0 1 0 2c0.9 0.2 0.9 0.2 1.9 0.4 2.1 0.6 2.1 0.6 4.1 1.6q0 1 0 2 1 0 2 0 0 1 0 2c0.9 0.2 0.9 0.2 1.9 0.4 2.1 0.6 2.1 0.6 4.1 1.6q0 1 0 2 1 0 2 0 0 1 0 2 1 0 2 0 0 1 0 2 1 0 2 0 0 1 0 2 1 0 2 0 0 1 0 2 1 0 2 0 0 1 0 2 1 0 2 0 0 1 0 2 1 0 2 0 0 1 0 2 1 0 2 0 0 1 0 2 1 0 2 0 0 1 0 2 1 0 2 0 0 1 0 2 1 0 2 0 0 2 0 4 1 0 2 0 0 1 0 2 1 0 2 0c2 3 2 3 2 6q1 0 2 0 0 1 0 2 1 0 2 0 0 2 0 4 1 0 2 0 0 2 0 4 1 0 2 0 1 1.9 2 3.7 0.6 1.1 1.1 2.2c0.9 2.1 0.9 2.1 0.9 6.1q1 0 2 0 0 2 0 4 1 0 2 0 0 3 0 6 1 0 2 0 0 3 0 6 1 0 2 0 0 3 0 6 1 0 2 0 0.3 3.1 0.7 6.2c0.1 1.8 0.1 1.8 1.3 2.8 0.3 3.4 0.5 6.7 0.7 10.1 0 2.8 0 2.8 1.3 3.9q0.1 3.6 0.1 7.2 0 1.1 0 2.3 0 3.9 0 7.7 0 2.8 0 5.6 0 7.7 0 15.4 0 8.3 0 16.6 0 16.3 0 32.6 0 13.2 0 26.4c0 1.9 0 1.9 0 3.8q0 3.8 0 7.6 0 34.8 0 69.6 0 31.7 0 63.5 0 35.7 0 71.3 0 3.8 0 7.6 0 1.9 0 3.8 0 13.2 0 26.4 0 16.1 0 32.2 0 8.2 0 16.4 0 7.5 0 15 0 2.7 0 5.5 0 3.7 0 7.3 0 1.1 0 2.2c0 4.9 0 4.9-1.1 6q-0.3 3.3-0.6 6.6-0.1 1.7-0.2 3.6-0.1 1.4-0.2 2.8-1 0-2 0c0 2.6 0 5.3 0 8q-1 0-2 0c0.1 1.6 0.1 1.6 0.1 3.2-0.1 3.5-0.6 5.6-2.1 8.8q-1 0-2 0 0 3 0 6-1 0-2 0 0 2 0 4-1 0-2 0c0.1 1.1 0.1 1.1 0.1 2.2-0.1 3-0.9 5.1-2.1 7.8q-1 0-2 0 0 2 0 4-1 0-2 0-0.2 0.9-0.4 1.9c-0.6 2.1-0.6 2.1-1.6 4.1q-1 0-2 0 0 2 0 4-1 0-2 0 0 1 0 2-1 0-2 0 0 2 0 4-1 0-2 0 0 1 0 2-1 0-2 0 0 1 0 2-1 0-2 0 0 2 0 4-1 0-2 0 0 1 0 2-1 0-2 0 0 1 0 2-1 0-2 0 0 1 0 2-1 0-2 0 0 1 0 2-1 0-2 0-0.1 0.9-0.2 1.8c-1.1 3.1-3.1 4.3-5.8 6.2q-1 0-2 0 0 1 0 2-1 0-2 0 0 1 0 2-1 0-2 0 0 1 0 2-1 0-2 0 0 1 0 2-1 0-2 0 0 1 0 2-2 0-4 0 0 1 0 2-1 0-2 0 0 1 0 2-3 1-6 2 0 1 0 2-2 0-4 0 0 1 0 2-1 0-2 0 0 1 0 2-2 0-4 0 0 1 0 2-2 0-4 0 0 1 0 2-2 0-4 0 0 1 0 2c-3.5 1.6-6.1 2.2-10 2q0 1 0 2-3 0-6 0 0 1 0 2c-4.2 1.6-7.5 2.2-12 2q0 1 0 2c-2.6 0-5.3 0-8 0q0 1 0 2-1.3 0.1-2.6 0.2-1.6 0.1-3.3 0.2-1.7 0.2-3.4 0.3c-2.6 0-2.6 0-3.7 1.3q-2.5 0.2-5 0.3-1.5 0-3.1 0.1-1.6 0-3.3 0.1-3.1 0.1-6.3 0.2-1.4 0.1-2.9 0.1c-2.5 0.1-2.5 0.1-5.4 1.2q-3.5 0.1-7 0.1-1.1 0-2.2 0-3.7 0-7.4 0-2.6 0-5.3 0-7.2 0-14.5 0-7.9 0-15.7 0-15.4 0-30.8 0-12.5 0-25 0-1.8 0-3.6 0-3.6 0-7.2 0-33.9 0-67.8 0-29.1 0-58.2 0-33.7 0-67.5 0-3.5 0-7.1 0-1.8 0-3.6 0-12.5 0-25 0-15.2 0-30.4 0-7.8 0-15.6 0-7.1 0-14.2 0-2.6 0-5.1 0-3.5 0-7 0-1.9 0-3.9 0c-2.9-0.1-2.9-0.1-3.9-1.1q-2.8-0.2-5.6-0.3c-1.7-0.1-1.7-0.1-3.4-0.1-1.8-0.1-1.8-0.1-3.6-0.2q-1.7 0-3.6-0.1-4.4-0.2-8.8-0.3 0-1 0-2c-4 0-7.9 0-12 0q0-1 0-2c-1.5 0.1-1.5 0.1-3.1 0.1-4.1-0.1-7-0.8-10.9-2.1q0-1 0-2-3 0-6 0 0-1 0-2-3 0-6 0 0-1 0-2-2 0-4 0 0-1 0-2-2 0-4 0 0-1 0-2-2 0-4 0 0-1 0-2-2 0-4 0 0-1 0-2-2 0-4 0 0-1 0-2-2 0-4 0 0-1 0-2-2 0-4 0 0-1 0-2-1 0-2 0 0-1 0-2c-2-0.7-4-1.3-6-2q0-1 0-2-1 0-2 0 0-1 0-2-0.9-0.2-1.9-0.4c-2.1-0.6-2.1-0.6-4.1-1.6q0-1 0-2-1 0-2 0 0-1 0-2-1 0-2 0 0-1 0-2-1 0-2 0 0-1 0-2-1 0-2 0 0-1 0-2-1 0-2 0 0-1 0-2-1 0-2 0 0-1 0-2-1 0-2 0 0-1 0-2-1 0-2 0 0-1 0-2-1 0-2 0 0-1 0-2-1 0-2 0-1-3-2-6-1 0-2 0 0-1 0-2-1 0-2 0 0-2 0-4-1 0-2 0 0-1 0-2-1 0-2 0 0-2 0-4-1 0-2 0c-1-3-1-3-2-6q-1 0-2 0 0-2 0-4-1 0-2 0 0-2 0-4-1 0-2 0 0-2 0-4-1 0-2 0c-1.3-3.6-2-6.1-2-10q-1 0-2 0c-2-4.1-2.2-7.5-2-12q-1 0-2 0-0.2-1.7-0.4-3.4c-0.2-3.4-0.2-3.4-1.6-4.6-0.1-2.7 0-5.3 0-8q-1 0-2 0-0.1-1.6-0.2-3.2-0.1-2.1-0.2-4.2c-0.1-1.1-0.1-1.1-0.2-2.2 0.1-3.5 0.1-3.5-1.4-6.4-0.1-2.3-0.1-4.6-0.1-7q0-1.1 0-2.2 0-3.8 0-7.6 0-2.7 0-5.4 0-7.5 0-15 0-8.1 0-16.2 0-15.8 0-31.6 0-12.9 0-25.8 0-1.8 0-3.7 0-3.7 0-7.4 0-34.8 0-69.7 0-29.9 0-59.8 0-34.7 0-69.4 0-3.7 0-7.4 0-1.8 0-3.7 0-12.9 0-25.7 0-15.7 0-31.3 0-8 0-16 0-7.3 0-14.6 0-2.7 0-5.4 0-3.5 0-7.1 0-1.1 0-2.1c0-4.8 0-4.8 1.1-5.9q0.4-4 0.6-8.1 0-1.1 0.1-2.3 0.2-2.8 0.3-5.6 1 0 2 0 0-1.9-0.1-3.9 0-2.1 0.1-4.1c0.5-0.5 0.5-0.5 1-1q0.6-3.5 1-7 1 0 2 0 0-3 0-6 1 0 2 0-0.1-1.1-0.1-2.2c0.1-3 0.9-5.1 2.1-7.8q1 0 2 0 0-2 0-4 1 0 2 0 0-2 0-4 1 0 2 0 0-2 0-4 1 0 2 0 0-2 0-4 1 0 2 0 0-2 0-4 1 0 2 0 0.2-0.9 0.4-1.9c0.6-2.1 0.6-2.1 1.6-4.1q1 0 2 0 0-1 0-2 1 0.5 2 1c-1 2-2 4-3 6q-1 0-2 0-0.1 1-0.3 2.1c-0.9 3.6-2.4 6.6-4.1 9.9-2.1 3.9-4 7.8-5.6 12q-1 0-2 0 0 2 0 4-1 0-2 0 0 3 0 6-1 0-2 0 0 3 0 6-1 0-2 0c0 2.6 0 5.3 0 8q-1 0-2 0c-0.8 6.5-1.3 13-1.6 19.6q0 1.3-0.1 2.7-0.2 3.4-0.3 6.7-1 0-2 0 0.2 81.2 0.3 162.4 0.1 9.6 0.1 19.1 0 1.9 0 3.9 0 30.9 0.1 61.8 0.1 31.7 0.1 63.4 0.1 19.5 0.1 39.1 0 13.4 0.1 26.8 0 7.8 0 15.5 0 7.1 0 14.2 0 2.5 0 5.1 0 3.5 0.1 6.9 0 2 0 4c-0.2 2.7-0.2 2.7 1.1 3.8q0.2 2 0.3 4 0 1.2 0.1 2.4 0.1 2.6 0.2 5.2 0.1 1.2 0.1 2.4 0.1 1.1 0.1 2.3c0 1.7 0 1.7 1.2 2.7 0.3 2.1 0.5 4.1 0.7 6.2 0.1 1.8 0.1 1.8 1.3 2.8q0.2 1.5 0.4 3.1c0.4 2.9 0.9 5 2 7.7q1.5 3.9 2.9 7.9c7.5 21.1 18.8 38.8 34.4 54.9q1.6 1.8 3.3 3.6c25.6 27.3 66.9 42.4 103.8 44.1 4.9 0.1 9.8 0.1 14.7 0.1q2.8 0 5.6 0 7.7 0 15.3 0 8.3 0 16.5 0 16.2 0 32.4 0 13.1 0 26.3 0 1.8 0 3.8 0 3.8 0 7.6 0 34.7 0 69.4 0 31.6 0 63.1 0 35.6 0 71.2 0 3.8 0 7.6 0 1.9 0 3.8 0 13.1 0 26.2 0 16 0 32 0 8.2 0 16.3 0 7.5 0 15 0 2.7 0 5.4 0c46.3 0.2 89.2-15.3 122.5-47.8 14.4-14.6 25.2-32.8 32.8-51.8q1-2.5 2.1-5c2.9-7.6 4.7-15.3 6.3-23.2q0.4-1.5 0.7-3.1c2.7-13.9 2.7-28 2.7-42.1q0-2.6 0-5.2 0-7.1 0-14.2 0-7.6 0.1-15.3 0-14.9 0-29.9 0-12.2 0-24.4 0-34.5 0-69.1 0-1.9 0-3.8 0-1.8 0-3.7 0-30.2 0-60.4 0-31.1 0-62.1 0-17.4 0-34.9 0.1-14.8 0-29.6 0-7.6 0.1-15.1 0-7-0.1-13.9 0-2.5 0.1-5c0-15.5-0.7-31.4-4.6-46.6q-0.3-1.2-0.6-2.6c-6.6-25.6-19.4-48-37.1-67.6-0.9-1.1-0.9-1.1-1.9-2.1-12.1-13-27.8-22.4-43.6-30.1q-1.3-0.6-2.7-1.3c-5.1-2.4-10.1-4.3-15.5-5.9-2.4-0.6-4.6-1.4-6.9-2.2-3.8-1.4-7.6-1.9-11.6-2.2-1.8-0.2-1.8-0.2-2.8-1.2q-2.7-0.3-5.4-0.5c-5.4-0.4-5.4-0.4-7.6-1.5q-3.8-0.1-7.6-0.1-1.2 0-2.4 0-4.1 0-8.1 0-3 0-5.9 0-8 0-16.1 0-8.7 0-17.4 0-17 0-34 0-13.8 0-27.6 0-2 0-4 0-4 0-8 0-36.4 0-72.7 0-33.3 0-66.5 0-37.3 0-74.6 0-4 0-8 0c-1.9 0-1.9 0-3.9 0q-13.8 0-27.6 0-16.9 0-33.7 0-8.6 0-17.2 0-7.8 0-15.7 0-2.8 0-5.7 0-3.8 0-7.7 0-1.1 0-2.3 0c-3.8-0.1-3.8-0.1-7.3 1.1-2.3 0.3-4.7 0.5-7 0.7-2 0.1-2 0.1-3 1.3-2.1 0.3-4.1 0.5-6.2 0.7-1.8 0.1-1.8 0.1-2.8 1.3q-3.5 0.1-7 0 0 1 0 2-3 0-6 0 0 1 0 2-3 0-6 0 0 1 0 2-2 0-4 0 0 1 0 2-0.8 0.3-1.6 0.6-1.1 0.3-2.2 0.7-1.1 0.4-2.2 0.8c-2.1 0.8-2.1 0.8-3.5 2.4-1.9 1.9-3.5 2.2-6.2 2.7q-1.2 0.2-2.4 0.5-1 0.1-1.9 0.3 0 1 0 2-2 0-4 0 0 1 0 2-1 0-2 0 0 1 0 2c-5.4 4-5.4 4-8 4q0 1 0 2c-2.5 0.5-2.5 0.5-5 1q0-1 0-2 1 0 2 0 0-1 0-2c3-2 3-2 6-2q0-1 0-2 1 0 2 0 0-1 0-2 2 0 4 0 0-1 0-2 1 0 2 0 0-1 0-2 2 0 4 0 0-1 0-2 2 0 4 0 0-1 0-2 2 0 4 0 0-1 0-2 2 0 4 0 0-1 0-2 2 0 4 0 0-1 0-2c3.5-1.6 6.1-2.2 10-2q0-1 0-2 3 0 6 0 0-1 0-2 1.7-0.2 3.4-0.4c3.4-0.2 3.4-0.2 4.6-1.6q3.5-0.5 7-1 0.5-0.5 1-1 2.5-0.1 5.1-0.1 1.3 0.1 2.7 0.1 1.1 0 2.2 0 0-1 0-2z"/><path class="m" d="m333 819c7.9 0 15.8 0 24 0q0 1 0 2 2 0 4 0 0 1 0 2 2 0 4 0 0 1 0 2 2 0.5 4 1 0 1.5 0 3 1 0 2 0 0 1 0 2 1 0 2 0c2.6 3.9 2.3 7.4 2 12-2 2-2 2-5.8 2.3-4-0.1-6.7-1.2-10.2-3.3q0-1.5 0-3-1 0-2 0 0-2 0-4c-2-0.7-4-1.3-6-2q0-1 0-2-2.7 0.2-5.3 0.4-1.5 0.2-3 0.3c-2.8 0.2-2.8 0.2-5.7 1.3q0 1 0 2c-1.9 2.1-1.9 2.1-4 4q-1 0-2 0 0 1 0 2-1 0-2 0 0 3 0 6-1 0-2 0c0 5.3 0 10.6 0 16q1 0 2 0c0 2.6 0 5.3 0 8q1 0 2 0 0 1 0 2 1 0 2 0 0 1 0 2 1 0 2 0 0 1 0 2 2 0 4 0 0 1 0 2c4 0 7.9 0 12 0q0-1 0-2 2 0 4 0 0-1 0-2 1 0 2 0 0-1 0-2 1 0 2 0c0.5-1.2 0.5-1.2 0.9-2.4 1.1-2.6 1.1-2.6 2.1-3.6q3.3-0.1 6.6-0.1c1.8 0.1 1.8 0.1 3.6 0.1q1.4 0 2.8 0c2.1 4.6 2.1 4.6 1.1 7.8q-0.5 1.1-1.1 2.2-1 0-2 0 0 2 0 4-1 0-2 0 0 1 0 2-1 0-2 0 0 1 0 2-1 0-2 0 0 1 0 2-1 0-2 0 0 1 0 2-1.3 0.3-2.6 0.6-1.6 0.4-3.3 0.8-1.7 0.4-3.4 0.8c-2.6 0.5-2.6 0.5-3.7 1.8q-3.8 0.1-7.6 0.1c-1 0-1 0-2.1-0.1q-2.7 0-5.3 0 0-1 0-2-3 0-6 0 0-1 0-2-2 0-4 0 0-1 0-2-0.9-0.2-1.9-0.4c-2.1-0.6-2.1-0.6-4.1-1.6q0-1 0-2-1 0-2 0 0-2 0-4-1 0-2 0 0-2 0-4-1 0-2 0 0-2 0-4-1 0-2 0-0.5-1.2-0.9-2.4c-0.9-2.5-0.9-2.5-2.1-3.6-0.5 1-0.5 1-1 2q-1 0-2 0 0 1 0 2c-2.5 1.6-2.5 1.6-5 3q1.5 0.5 3 1 0 1 0 2 1 0 2 0c0 2.6 0 5.3 0 8q-1 0-2 0 0 1 0 2-1 0-2 0 0 1 0 2c-3 2-3 2-6 2q0 1 0 2-3 0-6 0 0 1 0 2c-4.6 0-9.2 0-14 0q0-1 0-2-3 0-6 0 0-1 0-2-2 0-4 0 0-1 0-2-1 0-2 0 0-1 0-2-1 0-2 0 0-1 0-2-1 0-2 0c-2-4.1-2.2-7.5-2-12q-1 0-2 0-0.1-3.5-0.1-7.1-0.1-1.9-0.1-3.9c0.2-4.1 0.9-7.1 2.2-11q1 0 2 0 0-2 0-4 1 0 2 0 0-1 0-2 1 0 2 0 0-1 0-2 1 0 2 0 0-1 0-2 1.1-0.3 2.2-0.6 1.3-0.4 2.7-0.8 1.4-0.4 2.8-0.8c2.2-0.6 2.2-0.6 3.3-1.8 3.5-0.1 3.5-0.1 7 0q0.5 0.5 1 1 3.5 0.6 7 1 0 1 0 2 1.1 0.2 2.3 0.4c2.7 0.6 2.7 0.6 5.7 1.6q0 1 0 2 1 0 2 0 1 3 2 6 1 0 2 0 0 2 0 4 1 0 2 0c0.5 2 0.5 2 1 4 2-6 2.6-11.7 3-18q1 0 2 0 0-2 0-4 1 0 2 0 1-3 2-6 1 0 2 0 0-1 0-2 1 0 2 0 0-1 0-2 1 0 2 0 0-1 0-2 2 0 4 0 0-1 0-2 2 0 4 0 0-1 0-2zm-54 30q0 1 0 2-1 0-2 0 0 1 0 2-1 0-2 0-0.5 1.5-1 3c1.2 1.4 1.2 1.4 4.6 1.1q2.2 0 4.5 0 1.1 0 2.3-0.1 2.8 0 5.6 0 0.5-1 1-2-1.2-1.2-2.4-2.4-1.8-1.8-3.6-3.6-3.5-0.1-7 0zm-4 20q0 1 0 2-1 0-2 0 0 1 0 2 1 0 2 0 1 2 2 4 1 0 2 0 0 1 0 2c6.3 0.4 6.3 0.4 12-2q0-1 0-2 1 0 2 0 0-1 0-2c3.5-0.5 3.5-0.5 7-1-1.7-2.2-2.6-2.9-5.4-3.3-1.3 0-1.3 0-2.7 0-1.5 0-1.5 0-3 0-1.5 0.1-1.5 0.1-3.1 0.1q-1.5 0-3.1 0.1-3.9 0-7.7 0.1z"/><path class="n" d="m163.5 816.9c2.5 0.1 2.5 0.1 3.5 1.1q2.5 0.3 5.1 0.6 1.3 0.1 2.7 0.2c1.1 0.1 1.1 0.1 2.2 0.2q0 1 0 2 2 0 4 0 0 1 0 2 2 0 4 0 0 1 0 2c0.9 0.2 0.9 0.2 1.9 0.4 2.1 0.6 2.1 0.6 4.1 1.6q0 2 0 4 1 0 2 0c1.8 3.1 2 4.2 2 8q1 0 2 0c0.2 1.7 0.2 1.7 0.4 3.4 0.2 3.4 0.2 3.4 1.6 4.6q0.1 2.2 0.1 4.5c0 1.3 0 1.3 0 2.7 0 1.4 0 1.4 0 2.9q0 1.4-0.1 2.8 0 3.6 0 7.1-1 0-2 0 0 3 0 6-1 0-2 0 0 2 0 4-1 0-2 0 0 1 0 2-1 0-2 0 0 1 0 2-1 0-2 0 0 1 0 2-1 0-2 0 0 1 0 2-1 0-2 0 0 1 0 2c-3.2 2.2-4.3 2.2-8 2q0 1 0 2c-6.8 2.6-13.8 2.4-21 2-0.5-0.5-0.5-0.5-1-1q-1.6-0.2-3.2-0.4c-3.3-0.5-5.8-1.2-8.8-2.6q0-1 0-2-1 0-2 0 0-1 0-2c-0.9-0.1-0.9-0.1-1.9-0.2-2.1-0.8-2.1-0.8-3.3-3.4q-0.4-1.2-0.8-2.4-1 0-2 0 0-2 0-4-1 0-2 0c-1.7-4.4-2.4-8.5-2.8-13.1 0-1.9 0-1.9-1.2-2.9-0.1-2.7 0-5.3 0-8q1 0 2 0c0-3.3 0-6.6 0-10q1 0 2 0 0-3 0-6 1 0 2 0 1-3 2-6 1 0 2 0 0-1 0-2 1 0 2 0 0-1 0-2 1 0 2 0 0-1 0-2 2 0 4 0 0-1 0-2 2 0 4 0 0-1 0-2 1.2-0.1 2.4-0.2c1.5-0.1 1.5-0.1 3-0.2q1.5-0.2 3.1-0.3c2.8-0.3 3.1-1.3 6-1.4zm-6.5 14.1q0 1 0 2-2 0-4 0 0 1 0 2-1 0-2 0 0 1 0 2-1 0-2 0 0 1 0 2-1 0-2 0 0 2 0 4-1 0-2 0 0 3 0 6-1 0-2 0c0 4 0 7.9 0 12q1 0 2 0 0 3 0 6 1 0 2 0 0 3 0 6 1 0 2 0 0 1 0 2 1 0 2 0 0 1 0 2 3 0 6 0 0 1 0 2c4 0 7.9 0 12 0q0-1 0-2 2 0 4 0 0-1 0-2 1 0 2 0 0-1 0-2 1 0 2 0 0-1 0-2 1 0 2 0 0-1 0-2 1 0 2 0c2.4-4.6 2.2-8.8 2.1-13.8q0-1.2 0-2.4 0-2.9-0.1-5.8-1 0-2 0 0-3 0-6-1 0-2 0-0.2-0.9-0.4-1.9c-0.5-2.1-0.5-2.1-1.6-4.1q-2 0-4 0 0-1 0-2-2 0-4 0 0-1 0-2c-4 0-7.9 0-12 0z"/><path class="o" d="m401 835c2.7 0.3 5.4 0.6 8.1 0.9 1.1 0.2 1.1 0.2 2.3 0.3q2.8 0.4 5.6 0.8 0 1 0 2 2 0 4 0 0 1 0 2 1 0 2 0 0 1 0 2 1 0 2 0 0 2 0 4 1 0 2 0c0 14.2 0 28.4 0 43-2 0.5-2 0.5-4 1q0 1 0 2-3 0-6 0 0-1 0-2c-3.3 0-6.6 0-10 0q0 1 0 2c-4.6 0-9.2 0-14 0q0-1 0-2-3 0-6 0 0-1 0-2c-0.9-0.2-0.9-0.2-1.9-0.4-2.1-0.6-2.1-0.6-4.1-2.6-1.8-4.4-2.2-8.1-2.1-12.9q0-1.7 0-3.5 0.1-1.3 0.1-2.6 1 0 2 0 0-2 0-4 1 0 2 0c1-3.1 1-4.9 0-8q-1 0-2 0c-0.2-3.9-0.1-6.6 2-10q1 0 2 0 0-1 0-2 1 0 2 0 0-1 0-2 1 0 2 0 0-1 0-2 2 0 4 0 0-1 0-2c1.7-0.2 1.7-0.2 3.4-0.4 3.4-0.2 3.4-0.2 4.6-1.6zm-4 16q0 1 0 2-1 0-2 0-1 2-2 4c5.9 0 11.9 0 18 0q0-3 0-6-1 0-2 0 0-1 0-2c-6.3-0.4-6.3-0.4-12 2zm0 18q0 1 0 2-1 0-2 0 0 3 0 6 1 0 2 0 0 1 0 2 2 1 4 2 0-1 0-2 3 0 6 0 0-1 0-2 2-1 4-2 0-3 0-6c-4.6 0-9.2 0-14 0z"/><path class="p" d="m605 835q3.5-0.1 7 0 0.5 0.5 1 1 2.5 0.3 5.1 0.6 1.3 0.1 2.7 0.2c1.1 0.1 1.1 0.1 2.2 0.2q0 1 0 2 2 0 4 0 0 1 0 2 1 0 2 0 0 1 0 2 1 0 2 0c1.7 3 2.2 5.1 2.2 8.5q0 1.3 0 2.7 0 1.4 0 2.8 0 1.5 0 3 0 4.6-0.1 9.3 0 3.1 0 6.3 0 7.7-0.1 15.4-1 0-2 0 0 1 0 2c-2.6 0-5.3 0-8 0q0-1 0-2-2 0-4 0 0-1 0-2-1 0-2 0 0 1 0 2-2 0-4 0 0 1 0 2c-13.6 0.4-13.6 0.4-20-2q0-1 0-2-1 0-2 0 0-1 0-2-1 0-2 0 0-1 0-2-1 0-2 0 0-3 0-6-1 0-2 0c-0.2-5.7-0.3-10.6 2-16q1 0 2 0 0-3 0-6-1 0-2 0c0-2.6 0-5.3 0-8q1 0 2 0 0-2 0-4 1 0 2 0 0-1 0-2 1 0 2 0 0-1 0-2 1 0 2 0 0-1 0-2 2 0 4 0 0-1 0-2 3 0 6 0 0-1 0-2zm2 14q0 1 0 2-2 0-4 0 0 1 0 2-1 0-2 0 0 1 0 2-1 0-2 0 0 1 0 2c5.9 0 11.9 0 18 0q0-3 0-6c-3.4-2.1-6.1-2.2-10-2zm7 18q-0.5 0.5-1 1-2.5 0.3-5.1 0.6-1.3 0.1-2.7 0.2-1.1 0.1-2.2 0.2 0 1 0 2-1 0-2 0c-0.5 2.8-0.5 2.8 0 6 3.6 3.1 3.6 3.1 8 4q0-1 0-2 1.1-0.2 2.3-0.4c2.9-0.5 2.9-0.5 5.7-2.6q0-1.5 0-3 1 0 2 0-1-2-2-4-1 0-2 0-0.5-1-1-2z"/><path class="q" d="m699 834.9c3 0.1 3 0.1 4 1.1q2 0.3 4.1 0.6 1.9 0.2 3.9 0.4 0 1 0 2 2 0 4 0 0 1 0 2 2 0 4 0 0 1 0 2 1 0 2 0 0 2 0 4 1 0 2 0c2.2 3.2 2.2 4.3 2 8q1 0 2 0 0 4 0.1 7.9 0 1.2 0 2.3 0 2.9-0.1 5.8-0.5 0.5-1 1-0.6 3.5-1 7-1 0-2 0 0 2 0 4-1 0-2 0 0 1 0 2-1 0-2 0 0 1 0 2-1 0-2 0 0 1 0 2-2 0-4 0 0 1 0 2-3 0-6 0 0 1 0 2c-4.6 0-9.2 0-14 0q0-1 0-2-3 0-6 0 0-1 0-2-2 0-4 0 0-1 0-2-1 0-2 0 0-1 0-2-1 0-2 0 0-1 0-2-1 0-2 0 0-2 0-4-1 0-2 0 0-2 0-4-1 0-2 0-0.1-4.9-0.1-9.7-0.1-1.4-0.1-2.8 0-1.4 0-2.7 0-1.3 0-2.5c0.2-2.5 0.9-4.1 2.2-6.3q1 0 2 0 0-2 0-4 1 0 2 0 0-2 0-4 1 0 2 0 0-1 0-2 1 0 2 0 0-1 0-2 1.3-0.3 2.6-0.6 1.6-0.4 3.3-0.8 1.7-0.4 3.4-0.8c3.2-0.9 3.3-1.8 6.7-1.9zm-4 14.1q0 1 0 2c-2 1-2 1-4 2q0 1 0 2-1 0-2 0c0 5.9 0 11.9 0 18q1 0 2 0 0 1 0 2 1 0 2 0 0 1 0 2 1 0 2 0 0 1 0 2c3.3 0 6.6 0 10 0q0-1 0-2 1 0 2 0 0-1 0-2 1 0 2 0 0-1 0-2 1 0 2 0 0.3-2.2 0.5-4.3c0.1-1.2 0.1-1.2 0.3-2.4 0.4-4-0.1-7.4-0.8-11.3q-1 0-2 0 0-1 0-2-1 0-2 0 0-1 0-2-1 0-2 0 0-1 0-2c-3.3 0-6.6 0-10 0z"/><path class="r" d="m341 529c2.1 1.7 2.1 1.7 4.2 3.8q1.1 1.2 2.3 2.3 1.1 1.2 2.3 2.5 1.2 1.2 2.4 2.4 2.9 3 5.8 6c5.5-4.6 10.3-9.4 15.2-14.7 3.4-2.7 5.5-3.2 9.8-3.3 3 2 3 2 5 5 0.2 4-0.2 6-2.7 9.2-2.2 2.3-4.5 4.5-6.9 6.7q-1.2 1.2-2.4 2.4-3 2.9-6 5.7c4.2 5 8.6 9.7 13.3 14.3 4.6 4.4 4.6 4.4 5 8.6-0.3 3.1-0.3 3.1-1.9 5.5-2.7 1.8-4.2 2-7.4 1.4-4.5-1.8-7.7-5.9-10.9-9.4-1.2-1.2-1.2-1.2-2.4-2.4q-2.9-3-5.7-6c-3.3 1.4-5.3 3.1-7.7 5.7-1 1.1-1 1.1-2 2.2q-2.2 2.2-4.3 4.5c-5.2 5.5-5.2 5.5-9.4 6.2-2.6-0.6-2.6-0.6-5-2.7-1.6-3-2-4.6-1.4-7.9 1.8-4.5 5.9-7.7 9.4-10.9q1.2-1.2 2.4-2.4 3-2.9 6-5.7c-4.6-5.5-9.4-10.3-14.7-15.2-2.7-3.3-3.2-5.5-3.3-9.8 3.3-4.4 5.8-5.6 11-4z"/><path class="s" d="m359.1 361c3 1 4.1 1.5 5.9 4 0.3 2.8 0.3 2.8 0.3 6.2 0 1.8 0 1.8 0 3.7q-0.1 1.8-0.1 3.8c0 1.9 0 1.9-0.1 3.8q0 4.8-0.1 9.5 1.1 0 2.2 0 5-0.1 10-0.2c1.7 0 1.7 0 3.5-0.1 1.6 0 1.6 0 3.3 0q1.6 0 3.1 0c3.6 0.4 6.3 1.7 8.9 4.3 0.4 3.3 0.4 3.3 0 7-2.6 2.7-4.2 3.9-8 4.5-1.5-0.1-1.5-0.1-3.2-0.1q-1.7 0-3.5 0-1.8-0.1-3.6-0.1-1.8-0.1-3.7-0.1-4.5-0.1-9-0.2 0 1.1 0.1 2.2 0.1 5 0.2 10.1 0.1 1.7 0.1 3.5c0.2 8.5 0.2 8.5-2.7 12-3.5 1.5-5.1 1.4-8.7 0.2-2.2-2.2-2.9-3.6-3.3-6.7q0-1.4 0-2.9 0-1.6 0-3.3 0.1-1.6 0.1-3.3 0-1.7 0.1-3.5 0-4.1 0.1-8.3-1.1 0-2.3 0.1-5.2 0.1-10.4 0.2-1.8 0.1-3.6 0.1c-9.9 0.2-9.9 0.2-13-2.7-1.7-2.7-1.7-2.7-1.8-5.8 1.4-3.6 2.8-4.8 6.1-6.9 2.9-0.5 2.9-0.5 6-0.4q1.6 0 3.3 0c1.8 0.1 1.8 0.1 3.5 0.2q1.8 0 3.6 0 4.3 0.1 8.6 0.2 0-1.1-0.1-2.3-0.1-5.2-0.2-10.4-0.1-1.8-0.1-3.6c-0.2-9.9-0.2-9.9 2.7-13 2.7-1.7 2.7-1.7 5.8-1.7z"/><path class="t" d="m511 837q2.9-0.1 5.9-0.2c1.6 0 1.6 0 3.3-0.1q1.4 0.2 2.8 0.3c2.5 3.7 2.3 6.6 2.2 10.9q0 1.2 0 2.4 0 3.7-0.1 7.4 0 2.5 0 5 0 6.2-0.1 12.3 1 0 2 0 1 1.5 2 3c3.5 0.3 6.6 0 10-1q0-1 0-2 1 0 2 0 0-1.4-0.1-2.9c0.1-3.1 0.1-3.1 1.1-4.1q0.2-3.4 0.3-6.9 0-1 0.1-2.1 0.1-3.3 0.2-6.6 0-2.2 0.1-4.4 0.2-5.5 0.3-11 2.9-0.1 5.9-0.1c1.6-0.1 1.6-0.1 3.3-0.1 2.8 0.2 2.8 0.2 4.8 2.2 0.2 2.2 0.2 2.2 0.2 5q0 1.6 0 3.2 0 1.6 0 3.4 0 1.7 0 3.5 0 5.5-0.1 11 0 3.8 0 7.5 0 9.2-0.1 18.4c-4.6 2.1-7.9 1.9-12.8 1.1q-1-0.1-2.1-0.3-2.6-0.4-5.1-0.8 0 1 0 2-3.1 0.1-6.2 0.1-1.7 0.1-3.5 0.1c-3.2-0.2-5.4-0.8-8.3-2.2q0-1 0-2-1 0-2 0 0-1 0-2-1 0-2 0 0-1 0-2-1 0-2 0 0-1 0-2-1 0-2 0c-2.1-5.1-2.3-9.5-2.2-14.9q0-1.2 0-2.5 0-4 0.1-8 0-2.7 0-5.4 0-6.6 0.1-13.2 1 0 2 0 0-1 0-2z"/><path class="u" d="m247 839q0 1 0 2 1 0 2 0 0 2 0 4 1 0 2 0 0.3 3.1 0.7 6.2c0.1 1.8 0.1 1.8 1.3 2.8q0.1 3.9 0.1 7.8 0 1.1 0 2.3 0 3.7 0 7.5 0 2.5-0.1 5 0 6.2 0 12.4-1 0-2 0 0 1 0 2-1 0-2 0 0 1 0 2-2.2 0.1-4.3 0.2c-1.2 0-1.2 0-2.4 0.1-2.3-0.3-2.3-0.3-3.9-1.3-2.2-3.2-1.8-6.6-1.7-10.4q0-1.2 0-2.5 0.1-3.9 0.1-7.8 0-2.6 0.1-5.3 0-6.5 0.1-13-1 0-2 0 0-1 0-2-1 0-2 0 0-1 0-2c-2.6 0-5.3 0-8 0q0 1 0 2-1.5 0.5-3 1-0.5 1.5-1 3-1 0-2 0c0 1.6 0 1.6 0 3.3q0.1 6 0.2 12 0 2.6 0 5.2 0.1 3.7 0.1 7.4 0 1.2 0 2.4c0 2.2 0 2.2-0.3 5.7-3.2 2.1-4 2.2-7.7 2.1q-1.2 0-2.4 0-1-0.1-1.9-0.1 0-1 0-2-1 0-2 0c0-17.2 0-34.3 0-52q1 0 2 0 0-1 0-2c2.6 0 5.3 0 8 0q0 1 0 2c4.3-0.2 4.3-0.2 8-2 7.9-1.8 16.6-1.3 24 2z"/><path class="v" d="m477 835q2.5 0.5 5 1 2.5 0.2 5 0.4c3.7 0.4 6.7 0.9 10 2.6q0 1 0 2 2 0 4 0 0 2 0 4 1 0 2 0 0 2 0 4 1 0 2 0 0 3 0 6-1 0-2 0 0 1 0 2-2.7 0.1-5.3 0.1c-1.5 0.1-1.5 0.1-3 0.1-2.7-0.2-2.7-0.2-5.7-2.2q0-1 0-2-1 0-2 0 0-1 0-2-1 0-2 0 0-1 0-2c-2.6 0-5.3 0-8 0q0 1 0 2-2 0-4 0-0.5 1.7-0.9 3.4c-1.1 3.6-1.1 3.6-2.1 4.6q-0.3 3-0.6 6.1-0.1 1.6-0.2 3.3-0.1 1.3-0.2 2.6 1 0 2 0 0 2 0 4 1 0 2 0 0 1 0 2 1 0 2 0 0 1 0 2c3.3 0 6.6 0 10 0q0-1 0-2 1 0 2 0 0-1 0-2 1 0 2 0 0-1 0-2 1 0 2 0 0-1 0-2c4 0 7.9 0 12 0 0.9 4.7 0.8 7.4 0 12q-1 0-2 0 0 2 0 4-2 0-4 0 0 1 0 2-2 0-4 0 0 1 0 2c-8.4 3.2-17.6 3.1-26 0q0-1 0-2-2 0-4 0 0-1 0-2-1 0-2 0c-2-3-2-3-2-6q-1 0-2 0c-2.5-5.8-2.3-11.4-2.3-17.6q0-1.5 0-3.1 0-1.5 0-3 0-1.3 0-2.7c0.3-2.8 1.1-5 2.3-7.6q1 0 2 0 0.2-0.9 0.4-1.9c0.6-2.1 0.6-2.1 1.6-4.1q1 0 2 0 0-1 0-2c4.3-1.6 8.4-2.4 13-3q0.5-0.5 1-1z"/><path class="w" d="m335 820c21.5-1 21.5-1 29 5 4.1 3.7 6.9 7.9 9 13q0 1.5 0 3c-4.1 0.5-7.9 0.7-12 0-1.8-1.8-2.7-3.6-3.8-6-2.1-3.6-5.3-4.9-9.2-6-5.4-0.9-9.8-0.4-14.4 2.7-5.5 4.6-8.2 10.6-8.9 17.8-0.1 10 0.6 18.9 7.5 26.7 5.2 4.1 11.5 3.7 17.9 3.4 4.2-0.7 6-1.5 8.9-4.6q0.5-1.5 1-3 1 0 2 0 1-2 2-4c2.6 0 5.3 0 8 0 1 2.5 1.2 3.6 0.1 6.1-5 7.4-10.3 12.6-19.1 14.9-8.7 1-18.8 1.8-26.2-3.4q-0.9-0.8-1.8-1.6-1-0.9-2-1.8c-3.8-3.5-6.9-6.6-7.1-12q0-1.1 0.1-2.2-1 0-2 0c-3.1-10.9-1.2-24.1 4-34q1 0 2 0 0.3-0.8 0.6-1.6c2.6-4.4 6.5-8.7 11.4-10.4q1.5 0 3 0 0-1 0-2z"/><path class="x" d="m645 823c4 0 7.9 0 12 0q0 1 0 2 1 0 2 0 0.1 1.1 0.2 2.2c0.1 1.3 0.1 1.3 0.2 2.7q0.2 1.4 0.3 2.8c0.1 2.3 0.1 2.3 1.3 3.3q2.2 0.3 4.5 0.5c4.4 0.4 4.4 0.4 5.5 1.5q0.1 2.5 0.1 5c0 1.4 0 1.4 0 2.8-0.1 2.2-0.1 2.2-1.1 3.2q-2.3 0.1-4.6 0.1-1.2-0.1-2.5-0.1c-0.9 0-0.9 0-1.9 0q0 1 0 2-1 0-2 0c0 7.9 0 15.8 0 24q1 0 2 0 0 1 0 2c3 0.7 5.9 1.3 9 2 2.1 5.6 2.1 8.4 0 14-3 0-5.9 0-9 0q0-1 0-2c-3.3 0-6.6 0-10 0q0-1 0-2-2-0.5-4-1 0-1.5 0-3-1 0-2 0-0.2-1.7-0.4-3.4c-0.2-3.4-0.2-3.4-1.6-4.6q-0.1-2.9-0.1-5.8 0-1.7 0-3.5 0-1.9 0-3.8 0-1.8 0.1-3.7 0-4.6 0-9.2-1 0-2 0 0-1 0-2-2 0-4 0 0-1 0-2-1 0-2 0c0-2.6 0-5.3 0-8q1 0 2 0 0-1 0-2 2 0 4 0 0-1 0-2 1 0 2 0c0-3.3 0-6.6 0-10q1 0 2 0 0-1 0-2z"/><path class="y" d="m333 819c7.9 0 15.8 0 24 0q0 1 0 2 2 0 4 0 0 1 0 2 2 0 4 0 0 1 0 2 2 0.5 4 1 0 1.5 0 3 1 0 2 0 0 1 0 2 1 0 2 0c2.6 3.9 2.3 7.4 2 12-2 2-2 2-5.8 2.3-4-0.1-6.7-1.2-10.2-3.3q0-1.5 0-3-1 0-2 0 0-2 0-4c-2-0.7-4-1.3-6-2q0-1 0-2-2.7 0.2-5.3 0.4-1.5 0.2-3 0.3c-2.8 0.2-2.8 0.2-5.7 1.3q0 1 0 2c-1.9 2.1-1.9 2.1-4 4q-1 0-2 0 0 1 0 2-1 0-2 0 0 3 0 6-1 0-2 0c0 5.3 0 10.6 0 16q1 0 2 0c0 2.6 0 5.3 0 8q1 0 2 0 0 1 0 2 1 0 2 0 0 1 0 2 1 0 2 0 0 1 0 2 2 0 4 0 0 1 0 2c4 0 7.9 0 12 0q0-1 0-2 2 0 4 0 0-1 0-2 1 0 2 0 0-1 0-2 1 0 2 0c0.5-1.2 0.5-1.2 0.9-2.4 1.1-2.6 1.1-2.6 2.1-3.6q3.3-0.1 6.6-0.1c1.8 0.1 1.8 0.1 3.6 0.1q1.4 0 2.8 0c2.1 4.6 2.1 4.6 1.1 7.8q-0.5 1.1-1.1 2.2-1 0-2 0 0 2 0 4-1 0-2 0 0 1 0 2-1 0-2 0 0 1 0 2-1 0-2 0 0 1 0 2-1 0-2 0 0 1 0 2-1.3 0.3-2.6 0.6-1.6 0.4-3.3 0.8-1.7 0.4-3.4 0.8c-2.6 0.5-2.6 0.5-3.7 1.8q-3.8 0.1-7.6 0.1c-1 0-1 0-2.1-0.1q-2.7 0-5.3 0 0-1 0-2-3 0-6 0 0-1 0-2-2 0-4 0 0-1 0-2-0.9-0.2-1.9-0.4c-2.1-0.6-2.1-0.6-4.1-1.6q0-1 0-2-1 0-2 0 0-2 0-4-1 0-2 0 0-2 0-4-1 0-2 0 0-2 0-4-1 0-2 0-0.5-1.2-0.9-2.4c-0.9-2.5-0.9-2.5-2.1-3.6-0.5 1-0.5 1-1 2q-1 0-2 0 0 1 0 2c-2.5 1.6-2.5 1.6-5 3q1.5 0.5 3 1 0 1 0 2 1 0 2 0c0 2.6 0 5.3 0 8q-1 0-2 0 0 1 0 2-1 0-2 0 0 1 0 2c-3 2-3 2-6 2q0 1 0 2-3 0-6 0 0 1 0 2c-4.6 0-9.2 0-14 0q0-1 0-2-3 0-6 0 0-1 0-2-2 0-4 0 0-1 0-2-1 0-2 0 0-1 0-2-1 0-2 0 0-1 0-2-1 0-2 0c-2-4.1-2.2-7.5-2-12q-1 0-2 0-0.1-3.5-0.1-7.1-0.1-1.9-0.1-3.9c0.2-4.1 0.9-7.1 2.2-11q1 0 2 0 0-2 0-4 1 0 2 0 0-1 0-2 1 0.5 2 1-0.5 2-1 4-1 0-2 0 0 2 0 4-1 0-2 0 0 1.4 0.1 2.9c-0.1 3.1-0.1 3.1-1.1 5.1-0.5 7.5 0.6 15.2 5.2 21.4 6.9 6.4 12.8 7.3 22.2 7 6.3-0.7 10.3-2.7 14.5-7.5 2.2-2.8 2.2-2.8 3.1-5.9-2.6-0.3-5.3-0.7-8-1q0 1 0 2c-3 2-3 2-6 2q0 1 0 2c-9.5 1.8-9.5 1.8-13.9-0.6-5.3-4.1-6-6.7-7.1-13.4 12.2 0 24.4 0 37 0-1.8-14.3-1.8-14.3-10-25q-1.5-1-3-2c2.8 0.5 5.3 1.1 8 2q0 1 0 2 1 0 2 0 1 3 2 6 1 0 2 0 0 2 0 4 1 0 2 0c0.5 2 0.5 2 1 4 2-6 2.6-11.7 3-18q1 0 2 0 0-2 0-4 1 0 2 0 1-3 2-6 1 0 2 0 0-1 0-2 1 0 2 0 0-1 0-2 1 0 2 0 0-1 0-2 2 0 4 0 0-1 0-2 2 0 4 0 0-1 0-2zm2 1q0 1 0 2-0.8 0.2-1.7 0.3c-5.7 1.7-9.4 5.4-13.3 9.7q0 1 0 2-1 0-2 0c-3.5 6.7-4.8 12.5-5 20q0 1.4-0.1 2.8c0 3.9 0 7.4 1.1 11.2q1 0 2 0-0.1 1-0.3 2.1c0.6 6.5 5.5 10.3 10.1 14.3 5.8 4.3 10.5 5.1 17.5 5q1.3 0 2.6 0c6.1-0.1 11-0.8 16.1-4.4q1-0.7 1.9-1.4c4.3-3.3 6.9-6.7 9.1-11.6-0.1-2.4-0.1-2.4-1-4-2.6 0-5.3 0-8 0q-1 2-2 4-1 0-2 0-1.5 2.5-3 5c-5.5 3.7-13.6 3-20 2-5.6-2.4-8.1-6.6-10.5-12-2.6-8.3-3.2-18 0.2-26.1 3.1-5.7 6-9.7 12.3-11.9 5.6-0.9 10.3-0.1 15.2 2.6 2.1 1.7 2.9 3.2 4 5.7 1.1 2.1 1.1 2.1 2.8 3.7 4.1 0.7 7.9 0.5 12 0-0.2-6.4-3.8-10.5-8-15-6.9-5.4-12.3-6.3-20.8-6.1-1.3 0-1.3 0-2.7 0q-3.2 0-6.5 0.1zm-60 49q0 1 0 2-1 0-2 0 0 1 0 2 1 0 2 0 1 2 2 4 1 0 2 0 0 1 0 2c6.3 0.4 6.3 0.4 12-2q0-1 0-2 1 0 2 0 0-1 0-2c3.5-0.5 3.5-0.5 7-1-1.7-2.2-2.6-2.9-5.4-3.3-1.3 0-1.3 0-2.7 0-1.5 0-1.5 0-3 0-1.5 0.1-1.5 0.1-3.1 0.1q-1.5 0-3.1 0.1-3.9 0-7.7 0.1z"/><path class="z" d="m567 815c4 0 7.9 0 12 0q0 1 0 2 1 0 2 0 0 2.7 0.1 5.4 0 1.5 0 3.1c-0.1 2.5-0.1 2.5-1.1 3.5-0.2 3.5-0.2 3.5 0 7q0.5 0.5 1 1 0.2 2.4 0.2 4.7c0 1.5 0 1.5 0 3.1q0.1 6.9 0.2 13.8 0 3.6 0 7.3 0.1 5.2 0.1 10.5 0.1 1.6 0.1 3.3c0 7.5 0 7.5-2.9 11.5-3.4 2.3-5.7 2.2-9.7 1.8q0-1 0-2-2-1-4-2c0-23.8 0-47.5 0-72q1 0 2 0 0-1 0-2z"/><path class="A" d="m733 837c3.3 0 6.6 0 10 0q0 1 0 2c2.6 0 5.3 0 8 0q0-1 0-2c4 0 7.9 0 12 0q0 1 0 2 1 0 2 0c0 3.3 0 6.6 0 10q-1 0-2 0 0 1 0 2-1 0.1-2 0.2-1.4 0.1-2.8 0.2-1.3 0.2-2.6 0.3c-2.3 0.3-4.4 0.7-6.6 1.3q0 1 0 2-1 0-2 0c0 11.2 0 22.4 0 34q-1 0-2 0-0.5 2-1 4c-3.6 0-7.3 0-11 0q0-1 0-2-1 0-2 0c0-17.2 0-34.3 0-52q1 0 2 0 0-1 0-2z"/><path class="B" d="m437 815q2.4-0.1 4.9-0.1 1.3-0.1 2.7-0.1c2.4 0.2 2.4 0.2 4.4 2.2 0.2 3 0.2 3 0.2 7q0 1.1 0 2.2 0 3.6 0 7.2 0 2.5 0 5 0 6.5-0.1 13 0 6.7 0 13.4 0 13.1-0.1 26.2-1 0-2 0 0 1 0 2c-3.3 0-6.6 0-10 0q0-1 0-2-1 0-2 0c0-24.4 0-48.8 0-74q1 0 2 0 0-1 0-2z"/><path class="C" d="m74 164q1 0.5 2 1-0.2 1-0.4 2c-1.5 7.2-1.9 14.2-2 21.7 0 1.8 0 1.8-0.1 3.7q0 5.1-0.1 10.2 0 3.3-0.1 6.5c-0.5 37.4-0.4 74.8-0.4 112.2q0 10.6 0 21.1 0 1.5 0 3.1 0 3.1 0 6.2 0 28.8 0 57.5 0 24.5 0 49.1 0 28.8 0 57.6 0 3 0 6.1 0 1.5 0 3 0 10.6 0 21.1 0 12.9 0 25.7 0 6.5 0 13.1c-0.1 20.9-0.1 20.9 0.5 41.7q0.1 1.2 0.2 2.4c-0.1 3.3-0.1 3.3 1.4 6q0.1 2.5 0.1 5.1c-0.1 1.3-0.1 1.3-0.1 2.7q0 1.1 0 2.2 1 0 2 0c0 2.6 0 5.3 0 8q1 0 2 0c0 2.6 0 5.3 0 8q-0.5 0-1 0-0.3-1.5-0.6-3c-0.4-2-0.4-2-0.8-3.9q-0.4-2-0.8-3.9c-0.5-3-0.5-3-1.8-4.2-0.3-2.1-0.5-4.1-0.7-6.2-0.1-1.8-0.1-1.8-1.3-2.8q-0.2-2-0.3-4 0-1.2-0.1-2.4-0.1-2.6-0.2-5.2-0.1-1.2-0.1-2.4c-0.1-1.1-0.1-1.1-0.1-2.3 0-1.7 0-1.7-1.2-2.7q-0.1-3.4-0.1-6.8 0-1 0-2.1 0-3.7 0-7.4 0-2.6 0-5.2 0-7.3 0-14.5 0-7.9 0-15.7 0-13.6 0-27.1 0-19.6 0-39.2 0-31.8 0-63.7 0-30.9 0-61.8 0-1.9 0-3.8 0-9.6 0-19.1 0.1-79.3 0.1-158.6 1 0 2 0 0-0.8 0-1.7-0.1-3.9-0.1-7.7-0.1-1.3-0.1-2.7c0-5.9 0.7-11.1 2.2-16.9z"/><path class="D" d="m509.6 550.6q1.7 0 3.4 0c1.8 0 1.8 0 3.6 0q1.8 0 3.7 0 3.9 0 7.7 0 6 0 11.9 0 3.8 0 7.5 0 1.8 0 3.6 0 1.7 0 3.4 0 1.4 0 2.9 0c3.5 0.5 6.2 1.9 8.7 4.4 0.4 3.3 0.4 3.3 0 7-2.5 2.6-4.2 3.9-7.8 4.5q-1.5 0-3 0c-1.7 0.1-1.7 0.1-3.5 0.1-1.8 0-1.8 0-3.7 0q-1.9 0-3.8 0-4.1 0-8.1 0-5.1 0-10.3 0-4.9 0-9.8 0c-1.8 0-1.8 0-3.7 0.1-9.5-0.1-9.5-0.1-12.6-3-1.7-2.7-1.7-2.7-1.8-6.3 1.1-3.4 1.1-3.4 3.3-5.1 3.1-1.4 5.1-1.7 8.4-1.7z"/><path class="E" d="m516.6 391.5q1.8 0 3.7 0 3.9 0.1 7.8 0.1 5.9 0 11.9 0 3.8 0 7.5 0.1 1.8 0 3.6 0c1.7 0 1.7 0 3.4 0 1.4 0 1.4 0 2.9 0 2.7 0.3 4.3 0.8 6.6 2.3 2 3 2 3 1.9 6.5-0.9 3.5-0.9 3.5-2.6 5.2-2.9 1.6-4.7 1.7-8 1.7q-1.7 0-3.5 0c-1.8 0-1.8 0-3.7 0-1.9 0-1.9 0-3.9 0q-4 0-8.1 0-5.1 0-10.3 0-4.9 0-9.9 0-1.8 0-3.7 0-1.7 0-3.5 0c-1.5 0-1.5 0-3 0-3.1-0.5-4.5-1.2-6.7-3.4-0.8-5.5-0.8-5.5 0-8 4.7-5.6 10.9-4.5 17.6-4.5z"/><path class="F" d="m623.6 839.6c3.9 3.9 6.6 7.2 6.9 12.8q0 2.6-0.1 5.2 0 1.3 0 2.7-0.1 4.3-0.2 8.6 0 2.9 0 5.8-0.1 7.2-0.2 14.3-1.9 0-3.8 0.1c-1.1 0-1.1 0-2.2 0-2-0.1-2-0.1-5-1.1-0.7-2.1-0.7-2.1-1-4-1.2 1-1.2 1-2.4 1.9-4.1 3.2-6.3 3.3-11.5 3.3q-1.8 0-3.7 0c-3.1-0.2-4.8-0.5-7.4-2.2 3.7-2 3.7-2 6-2q0-1 0-2c5.6 0 11.2 0 17 0q1-2 2-4 0.5-1 1-2 1 0 2 0c0-3 0-5.9 0-9q-1 0-2 0 0-1.5 0-3c-5.6 0-11.2 0-17 0 3.5-2.7 4.5-3.4 8.5-4.1 3.2-0.5 5.7-1.3 8.5-2.9q-0.4-1.9-0.8-3.8-0.2-1.1-0.5-2.2c-0.8-2.4-1.6-3.5-3.7-5-3.4-0.6-6.6-0.5-10 0-3.1 2.2-3.8 3.4-5 7-3 0-5.9 0-9 0 0-2.3 0-4.6 0-7q1 0 2 0c0.1-0.9 0.1-0.9 0.2-1.9 0.8-2.1 0.8-2.1 2.9-3.3 1.4-0.5 1.4-0.5 2.7-1q1.3-0.5 2.7-1c7.4-2.4 15.8-3.5 23.1-0.2z"/><path class="G" d="m218 765q0 1 0 2c150.8 0 301.6 0 457 0-3.6 2.4-6.2 2.3-10.4 2.3-1.2 0-1.2 0-2.4 0q-3.8 0-7.7 0-2.8 0-5.6 0-7.7 0-15.5 0-8.3 0-16.6 0-16.3 0-32.6 0-13.3 0-26.5 0-1.9 0-3.9 0-3.8 0-7.6 0-34.9 0-69.8 0-31.9-0.1-63.8 0-35.8 0-71.5 0-3.9 0-7.7 0-1.9 0-3.8 0-13.2 0-26.4 0-16.2 0-32.3 0-8.3 0-16.5 0-7.5 0-15.1 0-2.7 0-5.4 0c-9.2 0-17.9-0.1-26.9-2.3q0-0.5 0-1c7.6-1 7.6-1 11-1z"/><path class="H" d="m655 219q0.5 0 1 0c0 120.4 0 240.9 0 365q-1.5 0-3 0-0.1-69.1-0.1-138.2 0-8.1 0-16.3 0-1.6 0-3.3 0-26.3-0.1-52.6 0-27 0-53.9 0-16.7 0-33.3 0-11.4 0-22.9 0-6.5 0-13.1-0.1-6.1 0-12.1 0-2.2 0-4.4-0.1-2.9 0-5.9 0-1.6 0-3.3c0.2-2.7 0.2-2.7 2.2-5.7z"/><path class="I" d="m97 109q1 0.5 2 1c-1 2-2 4-3 6q-1 0-2 0c-0.1 1-0.1 1-0.3 2.1-0.9 3.6-2.4 6.6-4.1 9.9-2.1 3.9-4 7.8-5.6 12q-1 0-2 0 0 2 0 4-1 0-2 0 0 3 0 6-1 0-2 0 0 3 0 6-1 0-2 0c0 2.6 0 5.3 0 8q-1 0-2 0c-0.8 6.5-1.3 13-1.6 19.6q0 1.3-0.1 2.7-0.2 3.4-0.3 6.7-1 0-2 0 0.2 81.2 0.3 162.4 0.1 9.6 0.1 19.1 0 1.9 0 3.9 0 30.9 0.1 61.8 0.1 31.7 0.1 63.4 0.1 19.5 0.1 39.1 0 13.4 0.1 26.8 0 7.8 0 15.5 0 7.1 0 14.2 0 2.5 0 5.1 0 3.5 0.1 6.9 0 2 0 4c-0.2 2.7-0.2 2.7 1.1 3.8q0.2 2 0.3 4 0 1.2 0.1 2.4 0.1 2.6 0.2 5.2 0.1 1.2 0.1 2.4 0.1 1.1 0.1 2.2c0 1.8 0 1.8 1.2 2.8 0.3 2.1 0.5 4.1 0.7 6.2 0.1 1.8 0.1 1.8 1.3 2.8q0.2 1.5 0.4 3.1c0.7 4.3 1.9 7.9 3.6 11.9q1.1 2.7 2.2 5.4 0.5 1.2 1 2.5c0.8 2.1 0.8 2.1 0.8 4.1q-1.5-0.5-3-1 0-2 0-4-1 0-2 0c-2-4.1-2.2-7.5-2-12q-1 0-2 0-0.2-1.7-0.4-3.4c-0.2-3.4-0.2-3.4-1.6-4.6-0.1-2.7 0-5.3 0-8q-1 0-2 0-0.1-1.6-0.2-3.2-0.1-2.1-0.2-4.2c-0.1-1.1-0.1-1.1-0.2-2.2 0.1-3.5 0.1-3.5-1.4-6.4-0.1-2.3-0.1-4.6-0.1-7q0-1.1 0-2.2 0-3.8 0-7.6 0-2.7 0-5.4 0-7.5 0-15 0-8.1 0-16.2 0-15.8 0-31.6 0-12.9 0-25.8 0-1.8 0-3.7 0-3.7 0-7.4 0-34.8 0-69.7 0-29.9 0-59.8 0-34.7 0-69.4 0-3.7 0-7.4 0-1.8 0-3.7 0-12.9 0-25.7 0-15.7 0-31.3 0-8 0-16 0-7.3 0-14.6 0-2.7 0-5.4 0-3.5 0-7.1 0-1.1 0-2.1c0-4.8 0-4.8 1.1-5.9q0.4-4 0.6-8.1 0-1.1 0.1-2.3 0.2-2.8 0.3-5.6 1 0 2 0 0-1.9-0.1-3.9 0-2.1 0.1-4.1c0.5-0.5 0.5-0.5 1-1q0.6-3.5 1-7 1 0 2 0 0-3 0-6 1 0 2 0-0.1-1.1-0.1-2.2c0.1-3 0.9-5.1 2.1-7.8q1 0 2 0 0-2 0-4 1 0 2 0 0-2 0-4 1 0 2 0 0-2 0-4 1 0 2 0 0-2 0-4 1 0 2 0 0-2 0-4 1 0 2 0 0.2-0.9 0.4-1.9c0.6-2.1 0.6-2.1 1.6-4.1q1 0 2 0 0-1 0-2z"/><path class="J" d="m694 839c16-0.7 16-0.7 22 3 5.8 5.7 8.3 12.2 8.4 20.3-0.2 7.6-1.9 13.6-6.8 19.6-6.5 5.3-10.9 7.3-19.3 7.2q-1 0-2.1-0.1-2.6 0-5.2 0c-0.5-1.5-0.5-1.5-1-3q-1-1-2-2 2 0 4 0 0-1 0-2 1 0.1 1.9 0.1c5.7 0.2 10.2 0.1 15.1-3.1 4.3-6 5-12.9 4-20-1.8-6.1-5.1-9.2-10-13q0-1 0-2c-3-0.3-5.9-0.7-9-1q0-2 0-4z"/><path class="K" d="m401 835c2.7 0.3 5.4 0.6 8.1 0.9 1.1 0.2 1.1 0.2 2.3 0.3q2.8 0.4 5.6 0.8 0 1 0 2 2 0 4 0 0 1 0 2 1 0 2 0 0 1 0 2 1 0 2 0 0 2 0 4 1 0 2 0c0 14.2 0 28.4 0 43-2 0.5-2 0.5-4 1q0 1 0 2-3 0-6 0 0-1 0-2c-3.3 0-6.6 0-10 0q0 1 0 2c-4.6 0-9.2 0-14 0q0-1 0-2-3 0-6 0 0-1 0-2c-0.9-0.2-0.9-0.2-1.9-0.4-2.1-0.6-2.1-0.6-4.1-2.6-1.8-4.4-2.2-8.1-2.1-12.9q0-1.7 0-3.5 0.1-1.3 0.1-2.6 1 0 2 0 0-2 0-4 1 0 2 0c1-3.1 1-4.9 0-8q-1 0-2 0c-0.2-3.9-0.1-6.6 2-10q1 0 2 0 0-1 0-2 1 0 2 0 0-1 0-2 1 0 2 0 0-1 0-2 2 0 4 0 0-1 0-2c1.7-0.2 1.7-0.2 3.4-0.4 3.4-0.2 3.4-0.2 4.6-1.6zm-5 3q0 1 0 2c-4 1-4 1-8 2q0 1 0 2c-2 1-2 1-4 2 0 2.6 0 5.3 0 8 3 0 5.9 0 9 0q0.7-1.4 1.4-2.9c1.6-3.1 1.6-3.1 3.6-4.1 3.4-0.4 6.6-0.5 10 0 3.2 2.6 3.8 4.3 4.8 8.3 0.1 1.3 0.1 1.3 0.2 2.7q-0.9 0-1.9-0.1c-5.7-0.1-11.4 0.2-17.1 0.8q-1.9 0.3-3.8 0.5c-3.2 0.5-3.2 0.5-5.1 2.7-2.3 4.4-2.4 8.6-2.5 13.5q0 1.2-0.1 2.4c-0.1 4.8-0.1 4.8 2.9 8.7 5.1 3 9.6 4.4 15.6 3.5 4.1-1.4 7.9-2.9 11-6q0.5 2.5 1 5c3.6 0 7.3 0 11 0q0.2-8.3 0.3-16.7 0-2.8 0.1-5.6 0.1-4.1 0.1-8.2 0-1.2 0.1-2.5c0-6.2-1.7-10.2-5.6-15-4.3-3.8-8.9-3.4-14.3-3.2-1.3 0-1.3 0-2.5 0.1q-3.1 0-6.2 0.1zm1 13q0 1 0 2-1 0-2 0-1 2-2 4c5.9 0 11.9 0 18 0q0-3 0-6-1 0-2 0 0-1 0-2c-6.3-0.4-6.3-0.4-12 2z"/><path class="L" d="m205 43c155.4 0 310.9 0 471 0q0 0.5 0 1-1.5 0-3 0-87.5 0.2-175 0.3-10.5 0.1-21 0.1-1 0-2.1 0-33.9 0-67.8 0.1-35.8 0.1-71.5 0.1-21.5 0.1-42.9 0.1-14.7 0-29.4 0.1-8.5 0-17 0-7.8 0-15.5 0-2.8 0-5.7 0-3.8 0-7.6 0.1-1.1 0-2.2 0c-3.8-0.1-3.8-0.1-7.3 1.1-2.3 0.3-4.7 0.5-7 0.7-2 0.1-2 0.1-3 1.3-2.1 0.3-4.1 0.5-6.2 0.7-1.8 0.1-1.8 0.1-2.8 1.3q-3.5 0.1-7 0 0 1 0 2-3 0-6 0 0 1 0 2-3 0-6 0 0 1 0 2-2 0-4 0 0 1 0 2-0.8 0.3-1.6 0.6-1.1 0.3-2.2 0.7c-1.1 0.4-1.1 0.4-2.2 0.8-2.1 0.8-2.1 0.8-3.5 2.4-1.9 1.9-3.5 2.2-6.2 2.7q-1.2 0.2-2.4 0.5-1 0.1-1.9 0.3 0 1 0 2-2 0-4 0 0 1 0 2-1 0-2 0 0 1 0 2c-5.4 4-5.4 4-8 4q0 1 0 2c-2.5 0.5-2.5 0.5-5 1q0-1 0-2 1 0 2 0 0-1 0-2c3-2 3-2 6-2q0-1 0-2 1 0 2 0 0-1 0-2 2 0 4 0 0-1 0-2 1 0 2 0 0-1 0-2 2 0 4 0 0-1 0-2 2 0 4 0 0-1 0-2 2 0 4 0 0-1 0-2 2 0 4 0 0-1 0-2 2 0 4 0 0-1 0-2c3.5-1.6 6.1-2.2 10-2q0-1 0-2 3 0 6 0 0-1 0-2 1.7-0.2 3.4-0.4c3.4-0.2 3.4-0.2 4.6-1.6 3.5-0.5 3.5-0.5 7-1q0.5-0.5 1-1 2.5-0.1 5.1-0.1 1.3 0.1 2.7 0.1 1.1 0 2.2 0 0-1 0-2z"/><path class="M" d="m477 835q2.5 0.5 5 1 2.5 0.2 5 0.4c3.7 0.4 6.7 0.9 10 2.6q0 1 0 2 2 0 4 0 0 2 0 4 1 0 2 0 0 2 0 4 1 0 2 0 0 3 0 6-1 0-2 0 0 1 0 2-2.7 0.1-5.3 0.1c-1.5 0.1-1.5 0.1-3 0.1-2.7-0.2-2.7-0.2-5.7-2.2q0-1 0-2-1 0-2 0 0-1 0-2-1 0-2 0 0-1 0-2c-2.6 0-5.3 0-8 0q0 1 0 2-2 0-4 0-0.5 1.7-0.9 3.4c-1.1 3.6-1.1 3.6-2.1 4.6q-0.3 3-0.6 6.1-0.1 1.6-0.2 3.3-0.1 1.3-0.2 2.6 1 0 2 0 0 2 0 4 1 0 2 0 0 1 0 2 1 0 2 0 0 1 0 2c3.3 0 6.6 0 10 0q0-1 0-2 1 0 2 0 0-1 0-2 1 0 2 0 0-1 0-2 1 0 2 0 0-1 0-2c4 0 7.9 0 12 0 0.9 4.7 0.8 7.4 0 12q-1 0-2 0 0 2 0 4-2 0-4 0 0 1 0 2-2 0-4 0 0 1 0 2c-8.4 3.2-17.6 3.1-26 0q0-1 0-2-2 0-4 0 0-1 0-2-1 0-2 0c-2-3-2-3-2-6q-1 0-2 0c-2.5-5.8-2.3-11.4-2.3-17.6q0-1.5 0-3.1 0-1.5 0-3 0-1.3 0-2.7c0.3-2.8 1.1-5 2.3-7.6q1 0 2 0 0.2-0.9 0.4-1.9c0.6-2.1 0.6-2.1 1.6-4.1q1 0 2 0 0-1 0-2c4.3-1.6 8.4-2.4 13-3q0.5-0.5 1-1zm-6 3q0 1 0 2c-1.1-0.1-1.1-0.1-2.3-0.2-3.2 0.2-4.4 0.9-6.7 3.2q0 1.5 0 3-1 0-2 0 0 2 0 4-1 0-2 0 0 2 0 4-1 0-2 0-0.2 4.5-0.3 9 0 1.3-0.1 2.5c-0.1 7 1.6 12.1 6 17.5 5.7 4.7 11.6 7.7 19.2 7.3 7.5-1.1 13.4-3.4 18.1-9.5 1.9-3.1 3.1-5.1 3.1-8.8-2.6 0-5.3 0-8 0q0 1 0 2-0.8 0.3-1.6 0.7c-2.6 1.3-2.6 1.3-5.3 3.9-3.1 2.4-3.1 2.4-5.5 3-4.8-1.1-9-2.4-12-6.5-2.9-5.8-3.6-11.7-2.6-18.1 1.5-4.5 3-7.3 7-10 4.8-0.7 8.8-0.7 13 1.8 2 2.2 2 2.2 4 5.2 2.7 0.4 2.7 0.4 5.6 0.2q1.5-0.1 3.1-0.1c1.1 0 1.1 0 2.3-0.1-1.6-6.6-3.3-10.2-9-14-4.6-2.4-8.8-2.2-13.8-2.1q-1.2 0-2.4 0-2.9 0-5.8 0.1z"/><path class="N" d="m293 839c2.8 0.5 5.3 1.1 8 2q0 1 0 2 1 0 2 0 1 3 2 6 1 0 2 0 0 2 0 4 1 0 2 0 1 2 2 4 0.5 0 1 0c1.2 3.9 2 6.9 2 11q1 0 2 0c0.7 2.6 1.3 5.3 2 8q-1.5-0.5-3-1 0-2 0-4-1 0-2 0-0.5-1.2-0.9-2.4c-0.9-2.5-0.9-2.5-2.1-3.6q-0.5 1-1 2-1 0-2 0 0 1 0 2c-2.5 1.6-2.5 1.6-5 3q1.5 0.5 3 1 0 1 0 2 1 0 2 0c0 2.6 0 5.3 0 8q-1 0-2 0 0 1 0 2-1 0-2 0 0 1 0 2c-3 2-3 2-6 2q0 1 0 2-3 0-6 0 0 1 0 2c-4.6 0-9.2 0-14 0q0-1 0-2-3 0-6 0 0-1 0-2-2 0-4 0 0-1 0-2-1 0-2 0 0-1 0-2-1 0-2 0 0-1 0-2-1 0-2 0c-2-4.1-2.2-7.5-2-12q-1 0-2 0-0.1-3.5-0.1-7.1-0.1-1.9-0.1-3.9c0.2-4.1 0.9-7.1 2.2-11q1 0 2 0 0-2 0-4 1 0 2 0 0-1 0-2 1 0.5 2 1-0.5 2-1 4-1 0-2 0 0 2 0 4-1 0-2 0 0 1.4 0.1 2.9c-0.1 3.1-0.1 3.1-1.1 5.1-0.5 7.5 0.6 15.2 5.2 21.4 6.9 6.4 12.8 7.3 22.2 7 6.3-0.7 10.3-2.7 14.5-7.5 2.2-2.8 2.2-2.8 3.1-5.9-2.6-0.3-5.3-0.7-8-1q0 1 0 2c-3 2-3 2-6 2q0 1 0 2c-9.5 1.8-9.5 1.8-13.9-0.6-5.3-4.1-6-6.7-7.1-13.4 12.2 0 24.4 0 37 0-1.8-14.3-1.8-14.3-10-25q-1.5-1-3-2zm-18 30q0 1 0 2-1 0-2 0 0 1 0 2 1 0 2 0 1 2 2 4 1 0 2 0 0 1 0 2c6.3 0.4 6.3 0.4 12-2q0-1 0-2 1 0 2 0 0-1 0-2c3.5-0.5 3.5-0.5 7-1-1.7-2.2-2.6-2.9-5.4-3.3-1.3 0-1.3 0-2.7 0-1.5 0-1.5 0-3 0-1.5 0.1-1.5 0.1-3.1 0.1q-1.5 0-3.1 0.1-3.9 0-7.7 0.1z"/><path class="O" d="m247 839q0 1 0 2 1 0 2 0 0 2 0 4 1 0 2 0 0.3 3.1 0.7 6.2c0.1 1.8 0.1 1.8 1.3 2.8q0.1 3.9 0.1 7.8 0 1.1 0 2.3 0 3.7 0 7.5 0 2.5-0.1 5 0 6.2 0 12.4-1 0-2 0 0 1 0 2-1 0-2 0 0 1 0 2-2.2 0.1-4.3 0.2c-1.2 0-1.2 0-2.4 0.1-2.3-0.3-2.3-0.3-3.9-1.3-2.2-3.2-1.8-6.6-1.7-10.4q0-1.2 0-2.5 0.1-3.9 0.1-7.8 0-2.6 0.1-5.3 0-6.5 0.1-13-1 0-2 0 0-1 0-2-1 0-2 0 0-1 0-2c-2.6 0-5.3 0-8 0q0 1 0 2-1.5 0.5-3 1-0.5 1.5-1 3-1 0-2 0c0 1.6 0 1.6 0 3.3q0.1 6 0.2 12 0 2.6 0 5.2 0.1 3.7 0.1 7.4 0 1.2 0 2.4c0 2.2 0 2.2-0.3 5.7-3.2 2.1-4 2.2-7.7 2.1q-1.2 0-2.4 0-1-0.1-1.9-0.1 0-1 0-2-1 0-2 0c0-17.2 0-34.3 0-52q1 0 2 0 0-1 0-2c2.6 0 5.3 0 8 0q0 1 0 2c4.3-0.2 4.3-0.2 8-2 7.9-1.8 16.6-1.3 24 2zm-39-1c-1.7 3-2.2 5.2-2.2 8.7q0 1.3-0.1 2.7 0.1 1.5 0.1 3 0 1.5 0 3.1 0 3.2 0 6.4 0 4.9 0 9.9 0 3.1 0 6.2 0 1.5 0 3 0 1.3 0.1 2.7 0 1.2 0 2.5c-0.1 1.8-0.1 1.8 1.1 2.8q2.3 0.1 4.6 0.1 1.2-0.1 2.5-0.1 0.9 0 1.9 0 0-1.5 0-3 0.1-5.6 0.3-11.2 0-2.4 0-4.8 0.1-3.5 0.2-7 0-1 0-2.1c0.1-4.7 1-8 3.5-11.9 3-2 3.9-2.3 7.4-2.4q1.1 0 2.2-0.1c3.5 0.7 5 2 7.4 4.5 0.5 3 0.7 5.4 0.7 8.4q0 1.3 0 2.5 0.1 3.9 0 7.8 0.1 3.9 0.1 7.8 0.1 2.4 0.1 4.8c-0.4 3.7-0.4 3.7 1.1 6.7q2.5 0.1 5.1 0.1 1.3-0.1 2.7-0.1 1.1 0 2.2 0 0.1-8.4 0.2-16.8 0-2.8 0-5.7 0.1-4.1 0.1-8.2 0-1.2 0-2.5c0-6.2-1.2-10.3-5.3-15.1-3.8-3.2-7.5-2.9-12.3-3-2 0-2 0-3.9 0-4.2 0.3-7.8 1.3-10.8 4.3q-0.6-1-1.1-2c-1.8-2.4-1.8-2.4-5.1-2.3q-1.4 0.2-2.8 0.3z"/><path class="P" d="m163.5 816.9c2.5 0.1 2.5 0.1 3.5 1.1q2.5 0.3 5.1 0.6 1.3 0.1 2.7 0.2c1.1 0.1 1.1 0.1 2.2 0.2q0 1 0 2 2 0 4 0 0 1 0 2 2 0 4 0 0 1 0 2c0.9 0.2 0.9 0.2 1.9 0.4 2.1 0.6 2.1 0.6 4.1 1.6q0 2 0 4 1 0 2 0c1.8 3.1 2 4.2 2 8q1 0 2 0c0.2 1.7 0.2 1.7 0.4 3.4 0.2 3.4 0.2 3.4 1.6 4.6q0.1 2.2 0.1 4.5c0 1.3 0 1.3 0 2.7 0 1.4 0 1.4 0 2.9q0 1.4-0.1 2.8 0 3.6 0 7.1-1 0-2 0 0 3 0 6-1 0-2 0 0 2 0 4-1 0-2 0 0 1 0 2-1 0-2 0 0 1 0 2-1 0-2 0 0 1 0 2-1 0-2 0 0 1 0 2-1 0-2 0 0 1 0 2c-3.2 2.2-4.3 2.2-8 2q0 1 0 2c-6.8 2.6-13.8 2.4-21 2-0.5-0.5-0.5-0.5-1-1q-1.6-0.2-3.2-0.4c-3.3-0.5-5.8-1.2-8.8-2.6q0-1 0-2-1 0-2 0 0-1 0-2c-0.9-0.1-0.9-0.1-1.9-0.2-2.1-0.8-2.1-0.8-3.3-3.4q-0.4-1.2-0.8-2.4-1 0-2 0 0-2 0-4-1 0-2 0c-1.7-4.4-2.4-8.5-2.8-13.1 0-1.9 0-1.9-1.2-2.9-0.1-2.7 0-5.3 0-8q1 0 2 0c0-3.3 0-6.6 0-10q1 0 2 0 0-3 0-6 1 0 2 0 1-3 2-6 1 0 2 0 0-1 0-2 1 0 2 0 0-1 0-2 1 0 2 0 0-1 0-2 2 0 4 0 0-1 0-2 2 0 4 0 0-1 0-2 1.2-0.1 2.4-0.2c1.5-0.1 1.5-0.1 3-0.2q1.5-0.2 3.1-0.3c2.8-0.3 3.1-1.3 6-1.4zm-25.6 13.5q-0.9 1.3-1.9 2.6c-1 0.5-1 0.5-2 1q0 2 0 4-1 0-2 0c-3.4 10-4.1 23.8-0.4 33.9 1.1 2.2 1.1 2.2 2.4 4.1 0.6 1 0.6 1 1.2 1.9 4.1 5.8 10.1 9.1 16.8 11.1 11.5 1.7 22.5 0.3 32.3-6.2 8.5-8.8 11.7-18.1 12.1-30.4-0.2-9.8-3.6-18.3-10.4-25.4-9.3-8.1-19.5-8.1-31.4-7.3-7.2 0.9-12.1 5.3-16.7 10.7z"/><path class="Q" d="m546 838c2.6 0 5.3 0 8 0 0 16.8 0 33.7 0 51-3.6 0-7.3 0-11 0-0.5-2.5-0.5-2.5-1-5q-0.9 1-1.9 1.9c-3.5 3.5-5.8 3.2-10.7 3.2q-1.8-0.1-3.6-0.1-1.4 0-2.8 0 0-0.5 0-1 1.1-0.1 2.3-0.1 1.4-0.2 2.9-0.3c1.5-0.1 1.5-0.1 3-0.2 2.7-0.4 4.5-0.9 6.8-2.4q0.5-1 1-2-2 1-4 2c0.2-1.8 0.2-1.8 1-4q2.5-1.6 5-3c3-2.9 3.4-5.5 3.5-9.6q0-1.1 0-2.2c0-1.1 0-1.1 0-2.2q0.1-3.6 0.1-7.1 0.1-3.6 0.1-7.2 0.1-2.2 0.1-4.4c0.1-5.1 0.1-5.1 1.2-7.3z"/><path class="R" d="m645 823c4 0 7.9 0 12 0q0 1 0 2 1 0 2 0 0.1 1.1 0.2 2.2c0.1 1.3 0.1 1.3 0.2 2.7q0.2 1.4 0.3 2.8c0.1 2.3 0.1 2.3 1.3 3.3q2.2 0.3 4.5 0.5c4.4 0.4 4.4 0.4 5.5 1.5q0.1 2.5 0.1 5c0 1.4 0 1.4 0 2.8-0.1 2.2-0.1 2.2-1.1 3.2q-2.3 0.1-4.6 0.1-1.2-0.1-2.5-0.1c-0.9 0-0.9 0-1.9 0q0 1 0 2-1 0-2 0c0 7.9 0 15.8 0 24q1 0 2 0 0 1 0 2c3 0.7 5.9 1.3 9 2 2.1 5.6 2.1 8.4 0 14-3 0-5.9 0-9 0q0-1 0-2c-3.3 0-6.6 0-10 0q0-1 0-2-2-0.5-4-1 0-1.5 0-3-1 0-2 0-0.2-1.7-0.4-3.4c-0.2-3.4-0.2-3.4-1.6-4.6q-0.1-2.9-0.1-5.8 0-1.7 0-3.5 0-1.9 0-3.8 0-1.8 0.1-3.7 0-4.6 0-9.2-1 0-2 0 0-1 0-2-2 0-4 0 0-1 0-2-1 0-2 0c0-2.6 0-5.3 0-8q1 0 2 0 0-1 0-2 2 0 4 0 0-1 0-2 1 0 2 0c0-3.3 0-6.6 0-10q1 0 2 0 0-1 0-2zm2 1c-2.1 3.2-2.3 4.5-2.6 8.2q-0.1 1.3-0.3 2.7 0 1-0.1 2.1c-3.5 1.5-3.5 1.5-7 3q0 3 0 6c2.6 0 5.3 0 8 0 0 1.1 0 1.1 0 2.2q0 5.1-0.1 10.2 0 1.7 0 3.5c-0.5 12-0.5 12 2.8 23.1 4.4 3.9 8.4 4.2 14.1 4.1 1.8 0 1.8 0 3.5 0q1.3-0.1 2.7-0.1c0-3 0-5.9 0-9q-2.2-0.4-4.4-0.9c-4.3-0.9-4.3-0.9-6.6-3.1-0.3-3-0.3-3-0.4-6.8q0-0.9-0.1-2-0.1-3.1-0.1-6.3-0.1-2.2-0.1-4.3-0.2-5.3-0.3-10.6c4 0 7.9 0 12 0 0-2.6 0-5.3 0-8-4-0.3-7.9-0.7-12-1 0-4.3 0-8.6 0-13-4.5-0.3-4.5-0.3-9 0z"/><path class="S" d="m676 43q2.7 0 5.4-0.1 1.5 0 3.1 0c2.5 0.1 2.5 0.1 3.5 1.1q3 0.3 6 0.5c5.9 0.4 5.9 0.4 7 1.5q2 0.3 4.1 0.6 1.9 0.2 3.9 0.4 0 1 0 2c1.3-0.1 1.3-0.1 2.6-0.1 3.5 0.1 6.1 0.9 9.4 2.1q0 1 0 2 3 0 6 0 0 1 0 2c1 0.2 1 0.2 2.1 0.3 6.3 1.5 12.1 4.8 17.9 7.7q0 1 0 2 2 0 4 0 0 1 0 2 0.9 0.2 1.9 0.4c2.1 0.6 2.1 0.6 4.1 1.6q0 1 0 2 0.9 0.2 1.9 0.4c2.1 0.6 2.1 0.6 4.1 1.6q0 1 0 2 1 0 2 0 0 1 0 2 0.9 0.2 1.9 0.4c2.1 0.6 2.1 0.6 4.1 1.6q0 1 0 2 1 0 2 0 0 1 0 2 1 0 2 0 0 1 0 2 1 0 2 0 0 1 0 2 1 0 2 0 0 1 0 2 1 0 2 0 0 1 0 2 1 0 2 0 0 1 0 2 1 0 2 0 0 1 0 2 1 0 2 0 0 1 0 2 1 0 2 0 0 1 0 2 1 0 2 0 0 1 0 2 1 0 2 0 0 2 0 4 1 0 2 0 0 1 0 2 1 0 2 0c2 3 2 3 2 6q1 0 2 0 0 1 0 2 1 0 2 0 0 2 0 4 1 0 2 0 0 2 0 4 1 0 2 0 1 1.9 2 3.7 0.6 1.1 1.1 2.2c0.9 2.1 0.9 2.1 0.9 6.1q1 0 2 0 0 2 0 4 1 0 2 0 0 3 0 6 1 0 2 0 0 3 0 6 1 0 2 0 0 3 0 6 1 0 2 0 0.3 3.1 0.7 6.2c0.1 1.8 0.1 1.8 1.3 2.8q0.2 3 0.2 5.9 0 1.7 0 3.3c-0.2 2.8-0.2 2.8-2.2 4.8q-0.2-1-0.3-2c-5.9-33.1-18.1-60.9-40.7-86q-0.9-1-1.9-2.1c-12.1-13-27.8-22.4-43.6-30.1q-1.3-0.6-2.7-1.3c-5.1-2.4-10.1-4.3-15.5-5.9-2.4-0.6-4.6-1.4-6.9-2.2-3.8-1.4-7.6-1.9-11.6-2.2-1.8-0.2-1.8-0.2-2.8-1.2q-2.5-0.3-5.1-0.4c-4.8-0.4-9.2-1.3-13.9-2.6q0-0.5 0-1z"/><path class="l" d="m605 835q3.5-0.1 7 0 0.5 0.5 1 1 2.5 0.3 5.1 0.6 1.3 0.1 2.7 0.2c1.1 0.1 1.1 0.1 2.2 0.2q0 1 0 2 2 0 4 0 0 1 0 2 1 0 2 0 0 1 0 2 1 0 2 0c1.7 3 2.2 5.1 2.2 8.5q0 1.3 0 2.7 0 1.4 0 2.8 0 1.5 0 3 0 4.6-0.1 9.3 0 3.1 0 6.3 0 7.7-0.1 15.4-1 0-2 0 0 1 0 2c-2.6 0-5.3 0-8 0q0-1 0-2-2 0-4 0 0-1 0-2-1 0-2 0 0 1 0 2-2 0-4 0 0 1 0 2c-13.6 0.4-13.6 0.4-20-2q0-1 0-2-1 0-2 0 0-1 0-2-1 0-2 0 0-1 0-2-1 0-2 0 0-3 0-6-1 0-2 0c-0.2-5.7-0.3-10.6 2-16q1 0 2 0-0.1 2-0.2 4 0 2.6-0.1 5.2c-0.1 1.3-0.1 1.3-0.1 2.6-0.1 4.5-0.1 6.5 2.7 10.3 5.8 4.2 12.8 3.5 19.7 2.9 2.6-1 3.9-2.1 6-4q1-0.5 2-1 0 2.5 0 5c3.6 0.3 7.3 0.7 11 1q-0.1-8.6-0.2-17.2 0-2.9-0.1-5.8 0-4.2-0.1-8.4 0-1.3 0-2.7c-0.1-5.4-1-8.6-4.6-12.9-5.5-4.3-11.3-3.7-18-3-4.4 1.1-8.7 2.4-13 4q-0.5-1-1-2 1 0 2 0 0-1 0-2 2 0 4 0 0-1 0-2 3 0 6 0 0-1 0-2z"/><path class="T" d="m751 837c4 0 7.9 0 12 0q0 1 0 2 1 0 2 0c0 3.3 0 6.6 0 10q-1 0-2 0 0 1 0 2-1 0.1-2 0.2-1.4 0.1-2.8 0.2-1.3 0.2-2.6 0.3c-2.3 0.3-4.4 0.7-6.6 1.3q0 1 0 2-1 0-2 0c0 11.2 0 22.4 0 34q-1 0-2 0-0.5 2-1 4c-3.6 0-7.3 0-11 0q0-1 0-2-1 0-2 0c0-17.2 0-34.3 0-52q1 0 2 0 0 7.8 0.1 15.6 0 2.6 0 5.3c0 9.7-0.1 19.4-1.1 29.1 3.6 0 7.3 0 11 0 0-1.4 0-1.4 0-2.8q-0.1-5-0.2-10.1 0-2.2 0-4.4-0.1-3.2-0.1-6.3 0-1.9 0-3.9c0.4-4.9 2.1-8.2 5.4-11.9 4.2-2.3 8.1-1.9 12.9-1.6-0.3-3-0.7-5.9-1-9-3-0.5-3-0.5-6-1q0 1 0 2-2 0-4 0 0 1 0 2c-2.3 0.7-4.6 1.3-7 2q0-2.5 0-5c2.6 0 5.3 0 8 0q0-1 0-2z"/><path class="O" d="m567 815c4 0 7.9 0 12 0q0 1 0 2 1 0 2 0 0 2.7 0.1 5.4 0 1.5 0 3.1c-0.1 2.5-0.1 2.5-1.1 3.5-0.2 3.5-0.2 3.5 0 7q0.5 0.5 1 1 0.2 2.4 0.2 4.7c0 1.5 0 1.5 0 3.1q0.1 6.9 0.2 13.8 0 3.6 0 7.3 0.1 5.2 0.1 10.5 0.1 1.6 0.1 3.3c0 7.5 0 7.5-2.9 11.5-3.4 2.3-5.7 2.2-9.7 1.8q0-1 0-2-2-1-4-2c0-23.8 0-47.5 0-72q1 0 2 0 0-1 0-2zm1 1c-2.1 4.2-2.2 6.1-2.2 10.7q0 1 0 2-0.1 3.3 0 6.5 0 2.3 0 4.6 0 4.7 0 9.5 0 6.1 0 12.2 0 4.7 0 9.4 0 2.3 0 4.5 0 3.2 0.1 6.3 0 1.8 0 3.6c-0.2 2.6-0.2 2.6 1.1 3.7 3.3 0 6.6 0 10 0 0-24.1 0-48.2 0-73-3 0-5.9 0-9 0z"/><path class="U" d="m170.8 829.2c6.5 3.7 10.8 7.6 13.2 14.8 0.2 3.5 0.2 3.5 0 6q1 0 2 0c0.3 10.7-1.3 17.5-8 26-3 2-3 2-6 2q0 1 0 2c-5.9 0-11.9 0-18 0q0-1 0-2-3-0.5-6-1 0-1 0-2-1 0-2 0-1.2-2.9-2.4-5.8-0.7-1.5-1.4-3.2c-3.2-8-3.2-16.9-0.2-25 6.3-11.1 16.3-15.7 28.7-11.8zm-13.7 1.8q0 1 0 2-2 0-4 0 0 1 0 2-1 0-2 0 0 1 0 2-1 0-2 0 0 1 0 2-1 0-2 0 0 2 0 4-1 0-2 0 0 3 0 6-1 0-2 0c0 4 0 7.9 0 12q1 0 2 0 0 3 0 6 1 0 2 0 0 3 0 6 1 0 2 0 0 1 0 2 1 0 2 0 0 1 0 2 3 0 6 0 0 1 0 2c4 0 7.9 0 12 0q0-1 0-2 2 0 4 0 0-1 0-2 1 0 2 0 0-1 0-2 1 0 2 0 0-1 0-2 1 0 2 0 0-1 0-2 1 0 2 0c2.4-4.6 2.2-8.8 2.1-13.8q0-1.2 0-2.4 0-2.9-0.1-5.8-1 0-2 0 0-3 0-6-1 0-2 0-0.2-0.9-0.4-1.9c-0.5-2.1-0.5-2.1-1.6-4.1q-2 0-4 0 0-1 0-2-2 0-4 0 0-1 0-2c-4 0-7.9 0-12 0z"/><path class="P" d="m543 837q2.9-0.1 5.9-0.1c1.6-0.1 1.6-0.1 3.3-0.1 2.8 0.2 2.8 0.2 4.8 2.2 0.2 2.2 0.2 2.2 0.2 5q0 1.6 0 3.2 0 1.6 0 3.4 0 1.7 0 3.5 0 5.5-0.1 11 0 3.8 0 7.5 0 9.2-0.1 18.4c-4.6 2.1-7.9 1.9-12.8 1.1q-1-0.1-2.1-0.3-2.6-0.4-5.1-0.8 0 1 0 2-3.1 0.1-6.2 0.1-1.7 0.1-3.5 0.1c-3.2-0.2-5.4-0.8-8.3-2.2q0-1 0-2-1 0-2 0 0-1 0-2-1 0-2 0 0.5-1 1-2 1.3 0.7 2.6 1.5c3.8 1.7 6.3 1.9 10.5 1.8q1.7 0 3.6 0c3.2-0.3 5.5-0.7 8.3-2.3q0.5-1.5 1-3 0.5 0 1 0 0 3 0 6c3.6 0 7.3 0 11 0 0-16.8 0-33.7 0-51-2.6 0-5.3 0-8 0q0 1 0 2-1 0-2 0 0 1.5 0.1 2.9 0.1 5.5 0.1 10.9 0 2.4 0.1 4.7 0.1 3.4 0.1 6.8 0 1 0.1 2.1c0 3.6-0.4 5.5-2.4 8.5-2.4 2.4-3.8 2.8-7.1 3.1q0.5-1 1-2 1.5 0 3 0 0-1 0-2 1 0 2 0 0-1.4-0.1-2.9c0.1-3.1 0.1-3.1 1.1-4.1q0.2-3.4 0.3-6.9 0-1 0.1-2.1 0.1-3.3 0.2-6.6 0-2.2 0.1-4.4 0.2-5.5 0.3-11z"/><path class="V" d="m399 861q-0.5 1-1 2c4.9 0.3 9.9 0.7 15 1q0 0.5 0 1c-1.5 0.1-1.5 0.1-3.1 0.1q-2 0.2-4.1 0.3-1 0-2 0.1c-4 0.2-7.2 0.8-10.8 2.5-1 5-1 8.2 1 13 3.3 0.7 6.6 1.3 10 2q0 1.5 0 3 2.5-0.5 5-1c-2.5 3.7-3.7 4-8 5-6.4 0.6-10.6-0.5-16-4-2-2-2-2-2.2-5.8q0-2.3 0-4.6 0-1.2 0-2.4c0-3.3 0.1-6 1.2-9.2 5-3.3 9.3-3.3 15-3z"/><path class="W" d="m437 815q2.4-0.1 4.9-0.1 1.3-0.1 2.7-0.1c2.4 0.2 2.4 0.2 4.4 2.2 0.2 3 0.2 3 0.2 7q0 1.1 0 2.2 0 3.6 0 7.2 0 2.5 0 5 0 6.5-0.1 13 0 6.7 0 13.4 0 13.1-0.1 26.2-1 0-2 0 0 1 0 2c-3.3 0-6.6 0-10 0q0-1 0-2-1 0-2 0c0-24.4 0-48.8 0-74q1 0 2 0 0-1 0-2zm1 1q0 1 0 2-1 0-2 0c0 23.4 0 46.9 0 71 3.3 0 6.6 0 10 0 0-24.1 0-48.2 0-73-2.6 0-5.3 0-8 0z"/><path class="X" d="m711 839q2 0 4 0 0 1 0 2 2 0 4 0 0 1 0 2 1 0 2 0 0 2 0 4 1 0 2 0c2.2 3.2 2.2 4.3 2 8q1 0 2 0 0 4 0.1 7.9 0 1.2 0 2.3 0 2.9-0.1 5.8-0.5 0.5-1 1-0.6 3.5-1 7-1 0-2 0 0 2 0 4-1 0-2 0 0 1 0 2-1 0-2 0 0 1 0 2-1 0-2 0 0 1 0 2-2 0-4 0 0 1 0 2-3 0-6 0 0 1 0 2c-4.6 0-9.2 0-14 0q0-1 0-2-3 0-6 0 0-1 0-2-2 0-4 0 0-1 0-2-1 0-2 0 0-1 0-2-1 0-2 0 0-1 0-2-1 0-2 0 0-2 0-4-1 0-2 0 0.5-2 1-4 0.5 0.8 1.1 1.6c3.9 5.5 7.3 9.2 13.9 11.4 8.7 0.6 15.5 0.7 23-4q1.5-0.5 3-1c1.1-1.8 1.1-1.8 2-4q0.5-1 1.1-2.1c3.4-7.6 4.4-15.4 2.2-23.6-2-4.7-4.4-7.9-8.3-11.3q-1.5-1.5-3-3z"/><path class="Y" d="m207 837c2.6 0 5.3 0 8 0q-0.5 1-1 2c-3-0.5-3-0.5-6-1-0.9 3-1.1 5.6-1.1 8.7q0 1.4 0 2.8 0 1.4 0 3 0 1.5 0 3 0 4.9 0 9.8 0 3.2 0.1 6.5 0 8.1 0 16.2c3 0.3 5.9 0.7 9 1q0-1.5 0-3-0.1-5.6-0.2-11.2 0-2.4 0-4.8-0.1-3.5-0.1-7 0-1 0-2.1c0-5.6 1.3-9.6 4.9-13.8 3.8-1.8 7.3-1.9 11.4-1.1 2.4 1.4 4 2.9 6 5q-0.5 2-1 4 0-1 0-2-1 0-2 0 0-1 0-2-1 0-2 0 0-1 0-2c-2.6 0-5.3 0-8 0q0 1 0 2-1.5 0.5-3 1-0.5 1.5-1 3-1 0-2 0c0 1.6 0 1.6 0 3.3q0.1 6 0.2 12 0 2.6 0 5.2 0.1 3.7 0.1 7.4 0 1.2 0 2.4c0 2.2 0 2.2-0.3 5.7-3.2 2.1-4 2.2-7.7 2.1q-1.2 0-2.4 0-1-0.1-1.9-0.1 0-1 0-2-1 0-2 0c0-17.2 0-34.3 0-52q1 0 2 0 0-1 0-2z"/><path class="Y" d="m383 845q1 0.5 2 1c-0.3 2.6-0.7 5.3-1 8 3 0 5.9 0 9 0q0.1-1.1 0.3-2.3c0.9-3.3 1.8-3.9 4.7-5.7 4-0.8 8.2-1.1 11.8 1.1 3.2 3.6 3.4 6.3 3.2 10.9q-0.9 0.1-1.8 0.2-4.2 0.3-8.3 0.7-1.4 0.1-2.9 0.2c-7.2 0.6-7.2 0.6-14 2.9-2.5 4-2.4 8.7-2.6 13.3q-0.1 1.1-0.1 2.3-0.2 2.7-0.3 5.4-0.5-1-1-2-1.5-0.5-3-1c0-4.3 0-8.6 0-13q1 0 2 0 0-2 0-4 1 0 2 0c1-3.1 1-4.9 0-8q-1 0-2 0c-0.2-3.9-0.1-6.6 2-10zm14 6q0 1 0 2-1 0-2 0-1 2-2 4c5.9 0 11.9 0 18 0q0-3 0-6-1 0-2 0 0-1 0-2c-6.3-0.4-6.3-0.4-12 2z"/><path class="y" d="m704 846c5.2 3 8.3 7.3 10 13 0.6 5.4 0.8 10.2-2 15q-1 0-2 0-0.2 0.9-0.4 1.9c-0.6 2.1-0.6 2.1-2.6 4.1-5.1 1.2-10.3 1.9-15-0.6-4.1-3.3-6-6.3-7-11.4-0.6-8.2-0.4-13.9 5-20.4 4.6-2.5 8.9-2.4 14-1.6zm-9 3q0 1 0 2c-2 1-2 1-4 2q0 1 0 2-1 0-2 0c0 5.9 0 11.9 0 18q1 0 2 0 0 1 0 2 1 0 2 0 0 1 0 2 1 0 2 0 0 1 0 2c3.3 0 6.6 0 10 0q0-1 0-2 1 0 2 0 0-1 0-2 1 0 2 0 0-1 0-2 1 0 2 0 0.3-2.2 0.5-4.3c0.1-1.2 0.1-1.2 0.3-2.4 0.4-4-0.1-7.4-0.8-11.3q-1 0-2 0 0-1 0-2-1 0-2 0 0-1 0-2-1 0-2 0 0-1 0-2c-3.3 0-6.6 0-10 0z"/><path class="y" d="m83 674c2.5 3 4.2 6.2 6 9.7 7 14 15.8 25.7 26.7 36.9q1.6 1.8 3.3 3.6c10.7 11.4 24.3 19.6 38 26.8q0 1 0 2-2 0-4 0 0-1 0-2-2 0-4 0 0-1 0-2-2 0-4 0 0-1 0-2-2 0-4 0 0-1 0-2-1 0-2 0 0-1 0-2c-3-1-3-1-6-2q0-1 0-2-1 0-2 0 0-1 0-2-0.9-0.2-1.9-0.4c-2.1-0.6-2.1-0.6-4.1-1.6q0-1 0-2-1 0-2 0 0-1 0-2-1 0-2 0 0-1 0-2-1 0-2 0 0-1 0-2-1 0-2 0 0-1 0-2-1 0-2 0 0-1 0-2-1 0-2 0 0-1 0-2-1 0-2 0 0-1 0-2-1 0-2 0 0-1 0-2-1 0-2 0 0-1 0-2-1 0-2 0-1-3-2-6-1 0-2 0 0-1 0-2-1 0-2 0 0-2 0-4-1 0-2 0 0-1 0-2-1 0-2 0 0-2 0-4-1 0-2 0-1-3-2-6-1 0-2 0 0-2 0-4-1 0-2 0 0-2 0-4-1 0-2 0 0-2 0-4-1 0-2 0 0-2.5 0-5z"/><path class="Z" d="m537 576c3.1 2.7 3.9 4.4 4.6 8.5-0.6 3.5-0.6 3.5-2.7 6.4-3.7 2.6-5.5 2.8-9.9 2.1-3.7-2-4.8-3.3-6.1-7.4 0.1-4.9 1.6-6.2 5.1-9.6 3.2-1.6 5.6-0.8 9 0z"/><path class="a0" d="m69 467q0.5 0 1 0 0 1.2 0 2.4 0.2 28.3 0.3 56.6 0.1 13.7 0.2 27.4 0.1 11.9 0.1 23.9 0.1 6.3 0.1 12.6 0 6 0.1 11.9 0 2.2 0 4.4 0 3 0 5.9 0.1 1.7 0.1 3.4c-0.2 2.4-0.2 2.4 1.1 3.5q0.2 2 0.3 4 0 1.2 0.1 2.4c0.1 2.6 0.1 2.6 0.2 5.2q0.1 1.2 0.1 2.4c0.1 1.1 0.1 1.1 0.1 2.3 0 1.7 0 1.7 1.2 2.7 0.3 2.1 0.5 4.1 0.7 6.2 0.1 1.8 0.1 1.8 1.3 2.8q0.2 1.5 0.4 3.1c0.7 4.3 1.9 7.9 3.6 11.9q1.1 2.7 2.2 5.4 0.5 1.2 1 2.5c0.8 2.1 0.8 2.1 0.8 4.1q-1.5-0.5-3-1 0-2 0-4-1 0-2 0c-2-4.1-2.2-7.5-2-12q-1 0-2 0-0.2-1.7-0.4-3.4c-0.2-3.4-0.2-3.4-1.6-4.6-0.1-2.7 0-5.3 0-8q-1 0-2 0-0.1-1.6-0.2-3.2-0.1-2.1-0.2-4.2-0.1-1.1-0.2-2.2c0.1-3.5 0.1-3.5-1.4-6.4q-0.1-3.1-0.1-6.1 0-1 0-2 0-3.2 0-6.5 0-2.4 0-4.7 0-6.3 0-12.7 0-6.6 0-13.3 0-12.6 0-25.1 0-14.4 0-28.7 0.1-29.4 0.1-58.9z"/><path class="r" d="m536 523c3 2.1 3 2.1 5 5 0.8 4.4 0.5 6.2-2 9.9-4.2 2.9-6 2.8-11 2.1-2.5-1.4-2.5-1.4-4-4-0.8-4.3-0.7-7.7 1.5-11.6 3.5-2 6.6-2.3 10.5-1.4z"/><path class="a1" d="m511 837q2.9-0.1 5.9-0.2c1.6 0 1.6 0 3.3-0.1q1.4 0.2 2.8 0.3c2.5 3.7 2.3 6.6 2.2 10.9q0 1.2 0 2.4 0 3.7-0.1 7.4 0 2.5 0 5 0 6.2-0.1 12.3 1 0 2 0 1 1.5 2 3c3.1 0.7 3.1 0.7 6 1q0 0.5 0 1c-7 0.7-7 0.7-9.6-1.2-4.4-5.1-4.5-9.4-4.7-16q0-1-0.1-2-0.1-3.3-0.2-6.6 0-2.2-0.1-4.4-0.2-5.4-0.3-10.8c-3-0.5-3-0.5-6-1q0 1 0 2-1 0-2 0 0 1 0 2-1 0-2 0 0.1 6.6 0.2 13.1 0 2.2 0.1 4.5c0.1 8.8 0.5 16.5 4.7 24.4-1 0.5-1 0.5-2 1q0-1 0-2-1 0-2 0c-2.1-5.1-2.3-9.5-2.2-14.9q0-1.2 0-2.5 0-4 0.1-8 0-2.7 0-5.4 0-6.6 0.1-13.2 1 0 2 0 0-1 0-2z"/><path class="a2" d="m568 816c3 0 5.9 0 9 0q-0.5 1-1 2c-2.3-0.3-4.6-0.7-7-1 0 22.8 0 45.5 0 69q3 0 6 0 0 0.5 0 1-3 0-6 0 0 1 0 2-1.5-0.5-3-1-0.1-13.2-0.1-26.4 0-6.1-0.1-12.2 0-6 0-11.9 0-2.2 0-4.5 0-3.1 0-6.3 0-1.8 0-3.6c0.2-3.1 0.2-3.1 2.2-7.1z"/><path class="a3" d="m470 847q1 0.5 2 1-1 1.4-1.9 2.8c-3.6 5.6-3.7 10.7-3.1 17.2 1 3.2 2.2 6.2 4 9q1 0.5 2 1 0.4 1 0.8 2c1 2.3 1 2.3 3.6 2.6q1.3 0.1 2.7 0.2c1.4 0 1.4 0 2.8 0.1q1 0.1 2.1 0.1 0 1.5 0 3c-4.6 2.3-10.2 1-15 0-1.5 0.5-1.5 0.5-3 1-4.3-2.5-4.3-2.5-6-5-0.4-3.2 0-6 1-9q0.8-0.7 1.6-1.4c2.2-2.6 1.5-4.9 1.3-8.3-0.1-6.4 0.6-9.9 4.1-15.3q0.5-0.5 1-1z"/><path class="Y" d="m591 843q1 0.5 2 1-0.5 1.5-1 3-1 0-2 0c0 2.3 0 4.6 0 7 3 0 5.9 0 9 0q0.1-1.1 0.3-2.3c0.9-3.3 1.8-4 4.7-5.7 3.4-0.6 6.6-0.5 10 0 2.6 1.9 3.6 3.2 5 6q0.1 3 0 6-1.1 0.1-2.2 0.1-5 0.4-10 0.7-1.7 0.1-3.5 0.2-1.6 0.1-3.3 0.3-1.6 0.1-3.1 0.2c-3.2 0.6-5.2 1.7-7.9 3.5q0-3 0-6-1 0-2 0c0-2.6 0-5.3 0-8q1 0 2 0 0-2 0-4 1 0 2 0 0-1 0-2zm16 6q0 1 0 2-2 0-4 0 0 1 0 2-1 0-2 0 0 1 0 2-1 0-2 0 0 1 0 2c5.9 0 11.9 0 18 0q0-3 0-6c-3.4-2.1-6.1-2.2-10-2z"/><path class="l" d="m637 847c2.3 0 4.6 0 7 0 0.8 4.3 1.2 8.4 1.4 12.8q0.1 1.8 0.2 3.8 0.2 4 0.3 7.9 0.1 1.9 0.2 3.9 0.1 1.7 0.2 3.5c0.9 4 2.5 5.5 5.7 8.1 3.3 1.1 6.2 1.3 9.7 1.6q1.7 0.1 3.6 0.2c1.3 0.1 1.3 0.1 2.7 0.2 0-3.3 0-6.6 0-10q1.5 0.5 3 1c1.4 8.4 1.4 8.4-1 13-3 0-5.9 0-9 0q0-1 0-2c-3.3 0-6.6 0-10 0q0-1 0-2-2-0.5-4-1 0-1.5 0-3-1 0-2 0-0.2-1.7-0.4-3.4c-0.2-3.4-0.2-3.4-1.6-4.6q-0.1-2.9-0.1-5.8 0-1.7 0-3.5 0-1.9 0-3.8 0-1.8 0.1-3.7 0-4.6 0-9.2-1 0-2 0 0-1 0-2-2 0-4 0 0-1 0-2z"/><path class="a4" d="m455 870c2 2.4 3.2 4.4 4.3 7.4 2.6 5.5 6.2 8.1 11.6 10.4 8.4 2.8 15.3 0.9 23.1-2.8 2.8-1.8 5.4-3.8 8-6 0.5 2 0.5 2 1 4q-1 0-2 0 0 2 0 4-2 0-4 0 0 1 0 2-2 0-4 0 0 1 0 2c-8.4 3.2-17.6 3.1-26 0q0-1 0-2-2 0-4 0 0-1 0-2-1 0-2 0c-2-3-2-3-2-6q-1 0-2 0c-1.4-3.8-2.2-6.9-2-11z"/><path class="a5" d="m205 43c3 0 5.9 0 9 0-4.8 2.4-7.7 3.2-13 3.7-2 0.1-2 0.1-3 1.3-2.1 0.3-4.1 0.5-6.2 0.7-1.8 0.1-1.8 0.1-2.8 1.3q-3.5 0.1-7 0 0 1 0 2-3 0-6 0 0 1 0 2-3 0-6 0 0 1 0 2-2 0-4 0 0 1 0 2-0.8 0.3-1.6 0.6-1.1 0.3-2.2 0.7c-1.1 0.4-1.1 0.4-2.2 0.8-2.1 0.8-2.1 0.8-3.5 2.4-1.9 1.9-3.5 2.2-6.2 2.7q-1.2 0.2-2.4 0.5-1 0.1-1.9 0.3 0 1 0 2-2 0-4 0 0 1 0 2-1 0-2 0 0 1 0 2c-5.4 4-5.4 4-8 4q0 1 0 2c-2.5 0.5-2.5 0.5-5 1q0-1 0-2 1 0 2 0 0-1 0-2c3-2 3-2 6-2q0-1 0-2 1 0 2 0 0-1 0-2 2 0 4 0 0-1 0-2 1 0 2 0 0-1 0-2 2 0 4 0 0-1 0-2 2 0 4 0 0-1 0-2 2 0 4 0 0-1 0-2 2 0 4 0 0-1 0-2 2 0 4 0 0-1 0-2c3.5-1.6 6.1-2.2 10-2q0-1 0-2 3 0 6 0 0-1 0-2 1.7-0.2 3.4-0.4c3.4-0.2 3.4-0.2 4.6-1.6 3.5-0.5 3.5-0.5 7-1q0.5-0.5 1-1 2.5-0.1 5.1-0.1 1.3 0.1 2.7 0.1 1.1 0 2.2 0 0-1 0-2z"/><path class="K" d="m405.8 864.9q1 0 2.1 0.1 2.5 0 5.1 0 0.3 2.4 0.6 4.8c0.2 1.4 0.2 1.4 0.4 2.7 0 2.5 0 2.5-2 5.5q-1 0-2 0 0 1 0 2-2.5 0-5 0 0 1 0 2c-4.4 0.4-6.5 0.3-10.4-2.1-3.1-3.4-3.7-5.3-3.6-9.9 1.2-2.5 2-3.6 4.6-4.6 3.4-0.6 6.7-0.5 10.1-0.5zm-8.7 4.1q0 1 0 2-1 0-2 0 0 3 0 6 1 0 2 0 0 1 0 2 2 1 4 2 0-1 0-2 3 0 6 0 0-1 0-2 2-1 4-2 0-3 0-6c-4.6 0-9.2 0-14 0z"/><path class="y" d="m676 43q2.7 0 5.4-0.1 1.5 0 3.1 0c2.5 0.1 2.5 0.1 3.5 1.1q3 0.3 6 0.5c5.9 0.4 5.9 0.4 7 1.5q2 0.3 4.1 0.6 1.9 0.2 3.9 0.4 0 1 0 2c1.3-0.1 1.3-0.1 2.6-0.1 3.5 0.1 6.1 0.9 9.4 2.1q0 1 0 2 3 0 6 0 0 1 0 2c1 0.2 1 0.2 2.1 0.3 6.3 1.5 12.1 4.8 17.9 7.7q0 1 0 2 2 0 4 0 0 1 0 2 0.9 0.2 1.9 0.4c2.1 0.6 2.1 0.6 4.1 1.6q0 1 0 2 0.9 0.2 1.9 0.4c2.1 0.6 2.1 0.6 4.1 1.6q0 1 0 2 1 0 2 0-0.5 1.5-1 3c-1-0.8-1-0.8-2.1-1.7-7.9-6.1-16-10.9-24.9-15.3q-1.7-0.9-3.5-1.7c-5.6-2.7-11.1-5-17.2-6.6-2.3-0.7-4.6-1.5-6.9-2.3-3.8-1.4-7.6-1.9-11.7-2.2-1.7-0.2-1.7-0.2-2.7-1.2q-2.5-0.3-5.1-0.4c-4.8-0.4-9.2-1.3-13.9-2.6q0-0.5 0-1z"/><path class="a6" d="m287 846c3.2 1.5 5.4 3.5 6.8 6.9 0.6 1.9 0.6 1.9 1.2 5.1-3.7 2.4-7.4 2.2-11.8 2.1q-1 0-2.1 0-2.5 0-5.1-0.1 0-1 0-2c-2.3 0-4.6 0-7 0 1.3-4.5 2.8-7.5 6-11 3.7-1.9 7.9-1.5 12-1zm-8 3q0 1 0 2-1 0-2 0 0 1 0 2-1 0-2 0-0.5 1.5-1 3c1.2 1.4 1.2 1.4 4.6 1.1q2.2 0 4.5 0 1.1 0 2.3-0.1 2.8 0 5.6 0 0.5-1 1-2-1.2-1.2-2.4-2.4-1.8-1.8-3.6-3.6-3.5-0.1-7 0z"/><path class="a7" d="m611.1 864.9q1.2 0 2.3 0.1 2.8 0 5.6 0c1.3 3.8 1.9 7.1 1 11-2.3 3.5-5.2 5.6-9.3 6.5-4 0.3-6.9-0.2-10.2-2.6-3-3.5-3.7-5.3-3.5-9.9 4.1-5.3 7.9-5.1 14.1-5.1zm2.9 2.1q-0.5 0.5-1 1-2.5 0.3-5.1 0.6-1.3 0.1-2.7 0.2-1.1 0.1-2.2 0.2 0 1 0 2-1 0-2 0c-0.5 2.8-0.5 2.8 0 6 3.6 3.1 3.6 3.1 8 4q0-1 0-2 1.1-0.2 2.3-0.4c2.9-0.5 2.9-0.5 5.7-2.6q0-1.5 0-3 1 0 2 0-1-2-2-4-1 0-2 0-0.5-1-1-2z"/><path class="a8" d="m163.5 816.9c2.5 0.1 2.5 0.1 3.5 1.1q2.5 0.3 5.1 0.6 1.3 0.1 2.7 0.2c1.1 0.1 1.1 0.1 2.2 0.2q0 1 0 2 2 0 4 0 0 1 0 2-1.4-0.5-2.8-1c-9.1-2.5-21.1-2.9-29.9 0.4-5.1 3.1-8.7 6.9-12.3 11.6q-1 0-2 0 0 2 0 4-1 0-2 0 0 1.4 0.1 2.9c-0.1 3.1-0.1 3.1-1.1 4.1q-0.2 2.1-0.3 4.3-0.1 1.2-0.1 2.5-0.1 1.4-0.2 2.8 0 1.3-0.1 2.7-0.2 3.3-0.3 6.7c-0.5-1-0.5-1-0.9-1.9-0.9-2-0.9-2-2.1-3.1-0.1-2.7 0-5.3 0-8q1 0 2 0c0-3.3 0-6.6 0-10q1 0 2 0 0-3 0-6 1 0 2 0 1-3 2-6 1 0 2 0 0-1 0-2 1 0 2 0 0-1 0-2 1 0 2 0 0-1 0-2 2 0 4 0 0-1 0-2 2 0 4 0 0-1 0-2 1.2-0.1 2.4-0.2c1.5-0.1 1.5-0.1 3-0.2q1.5-0.2 3.1-0.3c2.8-0.3 3.1-1.3 6-1.4z"/><path class="a9" d="m70 523q0.5 0 1 0 0 1.6 0 3.2 0.2 15.1 0.3 30.1 0.1 7.8 0.2 15.5 0.1 7.5 0.2 14.9 0 2.9 0 5.7 0 4 0.1 8c0 1.2 0 1.2 0 2.4 0.1 4.2 0.4 8.1 1.2 12.2q0.2 2.4 0.3 4.7c0 1.3 0 1.3 0.1 2.5q0.1 2.6 0.2 5.3 0.1 1.2 0.1 2.5 0.1 1.1 0.1 2.2c0 1.8 0 1.8 1.2 2.8q0.1 2.5 0.1 5.1-0.1 1.3-0.1 2.7 0 1.1 0 2.2 1 0 2 0c0 2.6 0 5.3 0 8q1 0 2 0c0 2.6 0 5.3 0 8q-0.5 0-1 0-0.3-1.5-0.6-3c-0.4-2-0.4-2-0.8-3.9q-0.4-2-0.8-3.9c-0.5-3-0.5-3-1.8-4.2-0.3-2.1-0.5-4.1-0.7-6.2-0.1-1.8-0.1-1.8-1.3-2.8q-0.2-2-0.3-4 0-1.2-0.1-2.4-0.1-2.6-0.2-5.2-0.1-1.2-0.1-2.4-0.1-1.1-0.1-2.3c0-1.7 0-1.7-1.2-2.7q-0.1-4.4-0.1-8.8 0-1.4 0-2.8 0-4.7 0-9.3 0-3.2 0-6.4 0-8.4 0-16.8 0-8.6 0.1-17.2 0-16.8 0-33.7z"/><path class="aa" d="m97 109q1 0.5 2 1c-1 2-2 4-3 6q-1 0-2 0c-0.1 1-0.1 1-0.3 2.1-0.9 3.6-2.4 6.6-4.1 9.9-2.1 3.9-4 7.8-5.6 12q-1 0-2 0 0 2 0 4-1 0-2 0 0 3 0 6-1 0-2 0 0 3 0 6-1 0-2 0c0 2.6 0 5.3 0 8q-1 0-2 0c-0.8 6.5-1.3 13-1.6 19.6q0 1.3-0.1 2.7-0.2 3.4-0.3 6.7-1 0-2 0c0.3-7.9 0.7-15.8 1-24q1 0 2 0 0-1.9-0.1-3.9 0-2.1 0.1-4.1c0.5-0.5 0.5-0.5 1-1q0.6-3.5 1-7 1 0 2 0 0-3 0-6 1 0 2 0-0.1-1.1-0.1-2.2c0.1-3 0.9-5.1 2.1-7.8q1 0 2 0 0-2 0-4 1 0 2 0 0-2 0-4 1 0 2 0 0-2 0-4 1 0 2 0 0-2 0-4 1 0 2 0 0-2 0-4 1 0 2 0 0.2-0.9 0.4-1.9c0.6-2.1 0.6-2.1 1.6-4.1q1 0 2 0 0-1 0-2z"/><path class="ab" d="m569 817q3.5-0.1 7 0c1 1 1 1 1.1 3.8 0 1.9 0 1.9 0 3.8q0 1.1 0 2.1 0 3.5 0 6.9 0 2.4 0 4.8 0 6.3 0 12.6 0 6.4-0.1 12.8 0 12.6 0 25.2c-2.6 0-5.3 0-8 0q0-1 0-2 3 0 6 0c0-22.8 0-45.5 0-69q-3 0-6 0 0-0.5 0-1z"/><path class="ac" d="m183 844q0.5 0 1 0 0 3 0 6 1 0 2 0c0.3 10.7-1.3 17.5-8 26-3 2-3 2-6 2q0 1 0 2c-5.9 0-11.9 0-18 0q0-1 0-2-3-0.5-6-1 0-1 0-2-1 0-2 0 0-1 0-2 1.5 0 3 0 0 1 0 2 1 0 2 0 0 1 0 2 3 0 6 0 0 1 0 2c4 0 7.9 0 12 0q0-1 0-2 2 0 4 0 0-1 0-2 1 0 2 0 0-1 0-2 1 0 2 0 0-1 0-2 1 0 2 0 0-1 0-2 1 0 2 0c0.7-3.3 1.2-6.5 1.3-9.9 0.1-1.3 0.1-1.3 0.1-2.6q0.1-1.4 0.2-2.8c0-1.4 0-1.4 0.1-2.8q0.2-3.5 0.3-6.9z"/><path class="ad" d="m218 765q0 1 0 2c1.5 0 1.5 0 3 0 25-0.1 50 0.2 75 1q0 0.5 0 1-15 0.1-29.9 0.1-7 0-13.9 0.1-6.8 0-13.5 0-2.5 0-5.1 0c-9.1 0.1-17.7 0-26.6-2.2q0-0.5 0-1c7.6-1 7.6-1 11-1z"/><path class="ae" d="m208 838q3 0 6 0 0.5 1 1 2c-3-0.5-3-0.5-6-1-0.8 2.9-1.1 5.4-1.2 8.4 0 1.3 0 1.3-0.1 2.6 0 1.4 0 1.4 0 2.8q0 1.4-0.1 2.9-0.1 4.5-0.2 9.1 0 3-0.1 6.1-0.2 7.6-0.3 15.1c2.3 0 4.6 0 7 0 0-10.6 0-21.1 0-32q0.5 0 1 0c0.3 11.5 0.7 23.1 1 35-3 0-5.9 0-9 0-1.6-1.6-1.1-3.1-1.1-5.3q-0.1-1.3-0.1-2.7 0-1.5 0-3 0-1.5 0-3.1 0-3.2 0-6.4 0-4.9 0-9.8 0-3.2 0-6.3 0-1.4-0.1-3 0.1-1.3 0.1-2.7 0-1.2 0-2.5c0.2-2.4 1-4.1 2.2-6.2z"/><path class="af" d="m247 839q0 1 0 2 1 0 2 0 0 2 0 4 1 0 2 0c-0.3 14.5-0.7 29-1 44q-0.5 0-1 0 0-1.8 0-3.6-0.1-6.6-0.3-13.2 0-2.8 0-5.7-0.1-4.1-0.2-8.2 0-1.2 0-2.5c-0.2-5.8-1.2-10-5-14.6-3.5-2.8-7.5-2.4-11.8-2.5-2 0-2 0-3.9 0-4 0.3-6.4 1.3-9.8 3.3-1 0.5-1 0.5-2 1q-0.5-2-1-4 1.7-0.2 3.4-0.4c3.4-0.2 3.4-0.2 4.6-1.6 7.9-1.8 16.6-1.3 24 2z"/><path class="ag" d="m733 837c3.3 0 6.6 0 10 0q0 1.5 0 3c-2.6 0-5.3 0-8 0 0 12.9 0 25.7 0 39q-1 0-2 0c0.3 3.3 0.7 6.6 1 10q-1 0-2 0c0.3-17.2 0.7-34.3 1-52z"/><path class="ah" d="m333 819c6.6 0 13.2 0 20 0q0 0.5 0 1c-5.9 0-11.9 0-18 0q0 1 0 2c-1.8 0.7-1.8 0.7-3.6 1.5-4.4 2.2-7 5.1-10 8.9q-0.7 0.8-1.4 1.6-1 0-2 0-0.2 0.8-0.4 1.7c-0.6 2.3-0.6 2.3-1.6 4.3-1.4 4.2-1.7 8.4-2.1 12.8q-0.2 1.3-0.3 2.7-0.3 3.2-0.6 6.5-0.5 0-1 0-0.3-2.7-0.6-5.4-0.1-1.5-0.3-3.1c0-1.2 0-1.2-0.1-2.5q0.5-0.5 1-1 0.3-2.8 0.6-5.6 0.1-1.5 0.2-3 0.1-1.2 0.2-2.4 1 0 2 0 0-2 0-4 1 0 2 0 1-3 2-6 1 0 2 0 0-1 0-2 1 0 2 0 0-1 0-2 1 0 2 0 0-1 0-2 2 0 4 0 0-1 0-2 2 0 4 0 0-1 0-2z"/><path class="ai" d="m699 834.9c3 0.1 3 0.1 4 1.1q2 0.3 4.1 0.6 1.9 0.2 3.9 0.4 0 1 0 2-0.9 0-1.7 0-3.9 0-7.7-0.1-1.4 0-2.8 0-1.2 0-2.5 0-1.2 0-2.4 0c-1.9-0.1-1.9-0.1-2.9 1.1q-2.5 0.1-5 0 0 1 0 2c-1.1 0.9-1.1 0.9-2.3 1.8-3 2.4-4.2 4.7-5.7 8.2q-1 0-2 0 0 1.2 0.1 2.4c-0.1 2.6-0.1 2.6-1.1 3.6q-0.1 4.3-0.1 8.6 0 1.2 0.1 2.4 0 3 0 6-1 0-2 0-0.1-4.9-0.1-9.7-0.1-1.4-0.1-2.8 0-1.4 0-2.7 0-1.3 0-2.5c0.2-2.5 0.9-4.1 2.2-6.3q1 0 2 0 0-2 0-4 1 0 2 0 0-2 0-4 1 0 2 0 0-1 0-2 1 0 2 0 0-1 0-2 1.3-0.3 2.6-0.6 1.6-0.4 3.3-0.8 1.7-0.4 3.4-0.8c3.2-0.9 3.3-1.8 6.7-1.9z"/><path class="aj" d="m236 849c3 1 3 1 4.2 3.1 1 3.6 1 7.1 1 10.8q0 1.1 0 2.3 0 3.6-0.1 7.1 0 2.4 0 4.9 0 5.9-0.1 11.8-1.5-0.5-3-1 0-1.7-0.1-3.4-0.1-6.1-0.3-12.3 0-2.7-0.1-5.3-0.1-3.9-0.2-7.7 0-1.2 0-2.4c-0.1-4.1-0.1-4.1-1.3-7.9z"/><path class="ak" d="m617 882c0 3 0 3-2.1 5.2-5.2 3.2-12.1 2.4-17.9 1.8-2.4-1-2.4-1-4-2 3.7-2 3.7-2 6-2q0-1 0-2 1.8 0 3.7 0 2.4 0 4.7 0.1 1.2 0 2.5 0 3 0 6.1-0.1 0.5-0.5 1-1z"/><path class="al" d="m477 835q2.5 0.5 5 1 3.9 0.2 7.8 0.4c2.2 0.6 2.2 0.6 3.5 2.6 0.3 1 0.3 1 0.7 2-1.2-0.5-1.2-0.5-2.4-1-4.2-1.2-8.1-1.4-12.5-1.6q-1.1-0.1-2.3-0.1-2.9-0.2-5.8-0.3 0 1 0 2-1.4 0.5-2.9 0.9c-3 1-3 1-5.1 2.1q-0.5 1.5-1 3-1 0-2 0 0 2 0 4-1 0-2 0 0 2 0 4-1 0-2 0c0 5.3 0 10.6 0 16q-0.5 0-1 0-0.1-4.3-0.1-8.7-0.1-1.2-0.1-2.5c0-4.4 0.1-7.8 2.2-11.8q1 0 2 0 0.2-0.9 0.4-1.9c0.6-2.1 0.6-2.1 1.6-4.1q1 0 2 0 0-1 0-2c4.3-1.6 8.4-2.4 13-3q0.5-0.5 1-1z"/><path class="am" d="m129 864c2.6 2.3 3.5 4 4.4 7.3 2.3 7.1 5.6 10.4 12 14 7.1 3.4 13.8 3.7 21.6 3.7q0 0.5 0 1-4.6 0.3-9.2 0.6-1.3 0.1-2.6 0.2c-4.6 0.3-8 0.5-12.2-1.8q0-1 0-2-1 0-2 0 0-1 0-2c-0.9-0.1-0.9-0.1-1.9-0.2-2.1-0.8-2.1-0.8-3.4-3.4q-0.3-1.2-0.7-2.4-1 0-2 0 0-2 0-4-1 0-2 0c-1.4-3.8-2.2-6.9-2-11z"/><path class="an" d="m123 79q2 0.5 4 1c-2.3 3.2-4.8 5.8-7.8 8.3-3.7 3.1-6.7 6.5-9.8 10.2q-0.7 0.7-1.4 1.5-1 0-2 0 0 1 0 2-1 0-2 0-0.2 0.9-0.3 1.8c-0.8 2.5-1.8 3.5-3.7 5.2q-0.5-1.5-1-3c1-1.5 1-1.5 2-3q1 0 2 0 0-1 0-2 1 0 2 0 1-3 2-6 1 0 2 0 0-1 0-2 1 0 2 0 0-1 0-2 1 0 2 0 0-1 0-2 1 0 2 0 0-1 0-2 1 0 2 0 0-1 0-2 1 0 2 0 0-1 0-2 1 0 2 0 0-1 0-2 1 0 2 0 0-1 0-2z"/><path class="ao" d="m494 839q1.5 0 3 0 0 1 0 2 2 0 4 0 0 2 0 4 1 0 2 0 0 2 0 4 1 0 2 0 0 3 0 6-1 0-2 0 0 1 0 2-2.7 0.1-5.3 0.2-1.5 0-3 0.1c-2.7-0.3-2.7-0.3-5.7-3.3 4.3 0 8.6 0 13 0q-1.1-2.4-2.3-4.8-0.7-1.3-1.3-2.7c-1.3-2.3-2.6-3.7-4.4-5.5q0-1 0-2z"/><path class="ap" d="m645 823c3.3 0 6.6 0 10 0q0 0.5 0 1c-2.6 0-5.3 0-8 0q-0.1 1.3-0.2 2.7c-0.4 3.6-0.9 6.9-1.8 10.3-2.9 2.3-4.4 3-8 3q0 3 0 6c2.6 0 5.3 0 8 0 1.1 4.4 1.1 8.5 1 13q-0.5 0-1 0c-0.3-4-0.7-7.9-1-12-3 0-5.9 0-9 0 0-2.6 0-5.3 0-8q1 0 2 0 0-1 0-2 2 0 4 0 0-1 0-2 1 0 2 0c0-3.3 0-6.6 0-10q1 0 2 0 0-1 0-2z"/><path class="aq" d="m617 858c-2 3-2 3-3.9 3.4q-1.1 0-2.3 0c-1.3 0.1-1.3 0.1-2.5 0.1q-1.3 0-2.7 0.1-2.5 0-5.1 0.1c-1.2 0-1.2 0-2.3 0-2.5 0.3-4.1 1-6.2 2.3-2.4 3.6-2.4 6.5-2.6 10.7q-0.1 1-0.1 2.1-0.2 2.6-0.3 5.2-0.5 0-1 0-0.2-4.1-0.3-8.2-0.1-1.1-0.1-2.3c-0.1-4.4 0-6 2.9-9.5q1.2-1 2.5-2 0.5-0.5 1-1c7.6-1.4 15.3-1.1 23-1z"/><path class="ar" d="m70 618c1 0.5 1 0.5 2 1q0.1 1.9 0.2 3.9 0.1 2.5 0.2 5 0.1 1.3 0.2 2.6 0 1.2 0.1 2.5 0 1.1 0.1 2.2c0 1.8 0 1.8 1.2 2.8 0.3 2.1 0.5 4.1 0.7 6.2 0.1 1.8 0.1 1.8 1.3 2.8q0.2 1.5 0.4 3.1c0.7 4.3 1.9 7.9 3.6 11.9q1.1 2.7 2.2 5.4 0.5 1.2 1 2.5c0.8 2.1 0.8 2.1 0.8 4.1q-1.5-0.5-3-1 0-2 0-4-1 0-2 0c-2-4.1-2.2-7.5-2-12q-1 0-2 0-0.2-1.7-0.4-3.4c-0.2-3.4-0.2-3.4-1.6-4.6-0.1-2.7 0-5.3 0-8q-1 0-2 0c-0.3-7.6-0.7-15.2-1-23z"/><path class="as" d="m587 863q1 0 2 0-0.1 2-0.2 4 0 2.6-0.1 5.2-0.1 1.3-0.1 2.6c-0.1 4.5-0.1 6.5 2.7 10.3 3.8 2.7 6.8 3.1 11.4 3.5q1.5 0.1 3 0.2c1.1 0.1 1.1 0.1 2.3 0.2q0 0.5 0 1c-5 0.3-9.9 0.7-15 1q0-1 0-2-1 0-2 0 0-1 0-2-1 0-2 0 0-1 0-2-1 0-2 0 0-3 0-6-1 0-2 0c-0.2-5.7-0.3-10.6 2-16z"/><path class="z" d="m754 838q3 0 6 0c1 3.1 0.9 4.9 0 8q-2.2 0.3-4.4 0.6-1.2 0.1-2.4 0.3c-2.2 0.1-2.2 0.1-4.2-0.9q0-1 0-2-2-1-4-2 2.5 0 5 0 0-1 0-2 2 0 4 0 0-1 0-2z"/><path class="at" d="m618 883q0.5 0 1 0 0 2.5 0 5 1.5 0.5 3 1-2.5 0-5 0 0 1 0 2-2 0-4 0 0 1 0 2c-4.3 0-8.6 0-13 0q-0.5-1.5-1-3c1.2-0.1 1.2-0.1 2.4-0.3 6.7-0.9 11.7-1.8 16.6-6.7z"/><path class="ah" d="m676 43q2.7 0 5.4-0.1 1.5 0 3.1 0c2.5 0.1 2.5 0.1 3.5 1.1q3 0.3 6 0.5c5.9 0.4 5.9 0.4 7 1.5q2 0.3 4.1 0.6 1.9 0.2 3.9 0.4 0 1 0 2c1.3-0.1 1.3-0.1 2.6-0.1 3.5 0.1 6.1 0.9 9.4 2.1q0 1.5 0 3-0.8-0.3-1.7-0.6c-7.2-2.4-13.9-4.5-21.5-5.2-1.8-0.2-1.8-0.2-2.8-1.2q-2.5-0.3-5.1-0.4c-4.8-0.4-9.2-1.3-13.9-2.6q0-0.5 0-1z"/><path class="au" d="m637 847c2.3 0 4.6 0 7 0 0.8 4.2 1.2 8.2 1.3 12.5 0.1 1.8 0.1 1.8 0.1 3.6q0.1 1.9 0.2 3.8 0 1.9 0.1 3.8 0.2 4.6 0.3 9.3c-1.5-1.1-1.5-1.1-3-3-0.3-2.7-0.3-2.7-0.3-6q0-1.7 0-3.5 0.1-1.8 0.1-3.7 0-1.8 0.1-3.7 0-4.6 0.1-9.1-1 0-2 0 0-1 0-2-2 0-4 0 0-1 0-2z"/><path class="av" d="m567 816q0.5 1.5 1 3-0.5 0.5-1 1-0.1 3.2-0.1 6.4c0 1.1 0 1.1 0 2.1q0 3.3 0 6.7 0 2.3 0 4.6 0 6.1 0 12.3 0 6.2 0.1 12.4 0 12.3 0 24.5-1 0-2 0c0-23.8 0-47.5 0-72q1-0.5 2-1z"/><path class="aw" d="m231.6 837.8q2-0.1 4-0.1c3.4 0.3 3.4 0.3 6.4 2.3-5.4-0.5-5.4-0.5-11-1q0 2.5 0 5c-4.5 0.5-4.5 0.5-9 1q0-1 0-2-2.5 0-5 0c3.7-5.5 8.3-5.3 14.6-5.2z"/><path class="ax" d="m553 841q0.5 0 1 0c0 15.8 0 31.7 0 48-3.6 0-7.3 0-11 0q0-2.5 0-5c1-0.5 1-0.5 2-1q0 2 0 4c2.6 0 5.3 0 8 0 0-15.2 0-30.4 0-46z"/><path class="ay" d="m544 840q0.5 0 1 0 0.2 7.1 0.3 14.1 0.1 2.4 0.2 4.8c0.4 15.1 0.4 15.1-3.1 19.7-3.3 2.9-6.2 3.2-10.7 2.9q-1.8-0.1-3.7-0.2c-3-0.3-3-0.3-5-1.3q0.5-2 1-4 0.5 0.7 1 1.5c3.1 2.3 6.3 2 10 1.5 4-1.6 5.6-2.4 8-6 0.2-2.5 0.4-5 0.4-7.5q0-1.1 0.1-2.2 0.1-3.5 0.1-7 0.1-2.4 0.1-4.7 0.2-5.8 0.3-11.6z"/><path class="az" d="m543 837c3.6 0 7.3 0 11 0q0 0.5 0 1c-2.6 0-5.3 0-8 0q0 1 0 2-1 0-2 0 0 1.5 0.1 2.9 0.1 5.5 0.1 10.9 0 2.4 0.1 4.7 0.1 3.4 0.1 6.8 0 1 0.1 2.1c0 3.6-0.4 5.5-2.4 8.5-2.4 2.4-3.8 2.8-7.1 3.1q0.5-1 1-2 1.5 0 3 0 0-1 0-2 1 0 2 0 0-1.4-0.1-2.9c0.1-3.1 0.1-3.1 1.1-4.1q0.2-3.4 0.3-6.9 0-1 0.1-2.1 0.1-3.3 0.2-6.6 0-2.2 0.1-4.4 0.2-5.5 0.3-11z"/><path class="aA" d="m512 840q0.5 0 1 0c0 6.9 0 13.9 0 21q-1 0-2 0c0 4.3 0 8.6 0 13q-0.5 0-1 0c0-10.6 0-21.1 0-32q1 0 2 0 0-1 0-2z"/><path class="aB" d="m97 109q1 0.5 2 1c-1 2-2 4-3 6q-1 0-2 0-0.1 1-0.3 2.1c-0.9 3.6-2.4 6.6-4.1 9.9-2.1 3.9-4 7.8-5.6 12q-1-0.5-2-1 0.5-3 1-6 1 0 2 0 0-2 0-4 1 0 2 0 0-2 0-4 1 0 2 0 0-2 0-4 1 0 2 0 0-2 0-4 1 0 2 0 0.2-0.9 0.4-1.9c0.6-2.1 0.6-2.1 1.6-4.1q1 0 2 0 0-1 0-2z"/><path class="aC" d="m491 871c4 0 7.9 0 12 0 1 5 1 5 0.3 7.3-1.3 1.7-1.3 1.7-4.3 2.7 1-3 2-5.9 3-9-2.6 0-5.3 0-8 0q0 1 0 2c-3.5 3-3.5 3-6 3q-0.5 1.5-1 3c-3.2 2.2-4.3 2.2-8 2q-0.5-1-1-2c1.5-0.2 1.5-0.2 2.9-0.4q1.5-0.3 3.1-0.6 0.5-1 1-2 1 0 2 0 0-1 0-2 1 0 2 0 0-1 0-2 1 0 2 0 0-1 0-2z"/><path class="aD" d="m660 879c2.6 0.3 5.3 0.7 8 1 0 3 0 5.9 0 9q-3.2 0.1-6.3 0.1c-1.8 0.1-1.8 0.1-3.6 0.1-3.1-0.2-3.1-0.2-6.1-2.2 2.6-1.3 4.7-1.1 7.6-1.1 1.5 0.1 1.5 0.1 3.1 0.1q1.1 0 2.3 0 0-2 0-4-2.5-0.5-5-1 0-1 0-2z"/><path class="aE" d="m364.9 866.9c1.8 0 1.8 0 3.7 0 1.8 0.1 1.8 0.1 3.6 0.1q1.4 0 2.8 0-0.5 1.5-1 3-1-0.5-2-1c-1.9-0.2-1.9-0.2-4-0.2-1.1-0.1-1.1-0.1-2.1-0.1q-0.9 0.1-1.9 0.3c-1 1.5-1 1.5-2 3q-1 0-2 0c-0.1 0.9-0.1 0.9-0.2 1.8-1.2 3.3-2.8 4.3-5.8 6.2-3 0.5-5.8 0.4-8.8 0.3-1.2-0.1-1.2-0.1-2.4-0.1q-2.9-0.1-5.8-0.2 0-0.5 0-1c4.6 0 9.2 0 14 0q0-1 0-2 2 0 4 0 0-1 0-2 1 0 2 0 0-1 0-2 1 0 2 0 0.5-1.2 0.9-2.4c1.5-3.6 1.5-3.6 5-3.7z"/><path class="aF" d="m353 819q2 0 4 0 0 1 0 2 2 0 4 0 0 1 0 2 2 0 4 0 0 1 0 2 2 0.5 4 1 0 1.5 0 3 1 0 2 0 0 1 0 2 1 0 2 0c1.9 3.1 2.2 5.4 2 9q-1 0.5-2 1-0.3-0.8-0.7-1.7c-3.1-7.6-6.4-13.3-14.1-16.6q-1.2-0.4-2.3-0.9c-1.9-0.8-1.9-0.8-2.9-2.8z"/><path class="aG" d="m678 850q0.5 1.5 1 3-1 0-2 0 0.2 5.3 0.4 10.7 0.1 1.5 0.2 3c0 1.5 0 1.5 0.1 3q0 1.3 0.1 2.7c0.2 2.6 0.6 5.1 1.2 7.6-4.5-5.3-5.1-8.5-5.2-15.4q0-1.6 0-3.3c0.2-3.4 1-6.1 2.2-9.3q1 0 2 0 0-1 0-2z"/><path class="aH" d="m207 837c2.6 0 5.3 0 8 0q-0.5 1-1 2c-3-0.5-3-0.5-6-1-0.9 3-1.1 5.7-1.1 8.8q0 1.4 0 2.8 0 1.5 0 3.1 0 1.5 0 3.1 0 5 0 9.9 0 3.4 0.1 6.8 0 8.2 0 16.5-1 0-2 0c0-16.5 0-33 0-50q1 0 2 0 0-1 0-2z"/><path class="aI" d="m225 205c1.7 3 2.2 5.1 2.1 8.6q0 1.3 0 2.7-0.1 1.5-0.1 2.9-0.1 1.5-0.1 3-0.1 4.8-0.3 9.6-0.1 3.2-0.1 6.4-0.3 7.9-0.5 15.8-0.5 0-1 0-0.3-9.5-0.5-19-0.1-3.2-0.1-6.5-0.2-4.6-0.3-9.3 0-1.4-0.1-2.9c0-1.3 0-1.3 0-2.7q-0.1-1.2-0.1-2.4c0.1-2.2 0.5-4.1 1.1-6.2z"/><path class="aJ" d="m393 878q1 0.7 2.1 1.4c3.3 1.8 6.1 2.2 9.9 2.6q0-1 0-2 2.5 0 5 0 0-1 0-2 1 0.5 2 1c0.2 2.4 0.2 2.4 0 5-3.2 2.1-5.3 2.5-9 3q0-1.5 0-3c-4.5-1-4.5-1-9-2q-0.5-2-1-4z"/><path class="aK" d="m713 859q0.5 0 1 0 0.1 2.6 0.1 5.3 0.1 1.4 0.1 2.9c-0.2 2.8-0.8 4.4-2.2 6.8q-1 0-2 0-0.2 0.9-0.4 1.9c-0.6 2.1-0.6 2.1-2.6 4.1-2.6 0.4-2.6 0.4-5.6 0.6q-1.5 0.1-3.1 0.3c-1.1 0-1.1 0-2.3 0.1q0.5-1 1-2c2.6 0 5.3 0 8 0q0-1 0-2 1 0 2 0 0-1 0-2 1 0 2 0 0-1 0-2 1 0 2 0 0-0.9-0.1-1.8c-0.1-4.5 0-8.1 2.1-12.2z"/><path class="aL" d="m605 835c4.5-0.2 7.9 0 12 2q0 0.5 0 1c-1.4 0.2-1.4 0.2-2.7 0.3-7.2 1-13.6 2.2-20.3 4.7q-0.5-1-1-2 1 0 2 0 0-1 0-2 2 0 4 0 0-1 0-2 3 0 6 0 0-1 0-2z"/><path class="aM" d="m247 854q0.5 0 1 0c0.3 11.5 0.7 23.1 1 35-2.6 0-5.3 0-8 0q0-1.5 0-3 3 0 6 0c0-10.6 0-21.1 0-32z"/><path class="aN" d="m382 866q1 0.5 2 1c-0.3 5.3-0.7 10.6-1 16q-0.5-1-1-2-1.5-0.5-3-1c0-4.3 0-8.6 0-13q1.5-0.5 3-1z"/><path class="aO" d="m205 43c3 0 5.9 0 9 0-4.8 2.4-7.7 3.2-13 3.7-2 0.1-2 0.1-3 1.3-2.1 0.3-4.1 0.5-6.2 0.7-1.8 0.1-1.8 0.1-2.8 1.3q-2.5 0.3-5.1 0.6-1.3 0.1-2.7 0.2-1.1 0.1-2.2 0.2 0-1 0-2 1.7-0.2 3.4-0.4c3.4-0.2 3.4-0.2 4.6-1.6 3.5-0.5 3.5-0.5 7-1q0.5-0.5 1-1 2.5-0.1 5.1-0.1 1.3 0.1 2.7 0.1 1.1 0 2.2 0 0-1 0-2z"/><path class="aP" d="m281.5 834.9c3.5 0.1 3.5 0.1 4.5 1.1q3.5 0.6 7 1-0.5 1-1 2c-5.9-0.3-11.9-0.7-18-1q0 1 0 2-2 0-4 0 0 1 0 2-2.5 0.5-5 1 0-1 0-2 1 0 2 0 0-1 0-2 1.1-0.3 2.2-0.6 1.3-0.4 2.7-0.8 1.4-0.4 2.8-0.8c5.6-1.9 5.6-1.9 6.8-1.9z"/><path class="aQ" d="m218 765q0 1 0 2c12.5 0 25.1 0 38 0q0 0.5 0 1-9 0-18 0.1-3.1 0-6.2 0-4.4 0-8.8 0-1.4 0-2.8 0c-4.5 0-8.7-0.2-13.2-1.1q0-0.5 0-1c7.6-1 7.6-1 11-1z"/><path class="aR" d="m296 874c5.8-0.1 5.8-0.1 8 1-0.6 3.9-2.5 6.1-5 9q-1-0.5-2-1 1-2 2-4-1 0-2 0 0-1 0-2c-3.5 1.5-3.5 1.5-7 3q0-1 0-2c2-0.7 4-1.3 6-2q0-1 0-2z"/><path class="aS" d="m395.6 860.9q1.7 0.1 3.4 0.1-0.5 1-1 2c4.9 0.3 9.9 0.7 15 1q0 0.5 0 1-0.9 0.1-1.9 0.1-4.2 0.3-8.4 0.7-1.5 0-3 0.1-1.4 0.2-2.8 0.3-1.3 0.1-2.6 0.2c-2.9 0.8-3.7 2.1-5.3 4.6q0.5-2.2 0.9-4.4 0.3-1.3 0.6-2.5c0.9-3.5 1.2-3.1 5.1-3.2z"/><path class="aT" d="m260 852q1 0.5 2 1c-0.3 7.3-0.7 14.5-1 22q1 0 2 0 0 2.5 0 5c-4.5-4.9-5.4-11.5-5.2-18 0.3-3.4 1.2-6.7 2.2-10z"/><path class="aU" d="m183 844q0.5 0 1 0 0 3 0 6 1 0 2 0 0 2.6 0.1 5.2 0 1.4 0 2.9c-0.1 2.8-0.5 5.2-1.1 7.9q-2 0.5-4 1c0.5-1.5 0.5-1.5 1-3q0.2-2.3 0.3-4.7 0.1-1.3 0.1-2.7 0.1-1.4 0.2-2.8c0-1.4 0-1.4 0.1-2.8q0.2-3.5 0.3-7z"/><path class="aV" d="m458 432c2 3 3 5.7 4.2 9.1 2.3 6.3 5.4 10.9 9.8 15.9q1.5 2 3 4c-8-3.5-11.8-11-15.2-18.7-0.8-2.3-0.8-2.3-0.8-4.3q-1.5-0.5-3-1 1-2.5 2-5z"/><path class="aW" d="m619 865q0 3 0 6-2.5-1.5-5-3-0.5 0.5-1 1-2.3 0.1-4.6 0.1-1.2-0.1-2.5-0.1-0.9 0-1.9 0-0.5-1-1-2c5.5-1.4 10.4-2.2 16-2z"/><path class="aX" d="m359 840c5.3 0 10.6 0 16 0-1 4-1 4-2 5-5.7 0.4-9 0-14-3q0-1 0-2z"/><path class="aY" d="m401 835q2.5 0.4 5 1 1.4 0.3 2.8 0.6 1.1 0.2 2.2 0.4 0 0.5 0 1c-4.9 0-9.9 0-15 0q0 1 0 2c-3.1 1.8-4.2 2-8 2q0 1 0 2-1.5 0.5-3 1 0-1 0-2 1 0 2 0 0-1 0-2 1 0 2 0 0-1 0-2 2 0 4 0 0-1 0-2c1.7-0.2 1.7-0.2 3.4-0.4 3.4-0.2 3.4-0.2 4.6-1.6z"/><path class="aZ" d="m412 865c1.9 3.5 2.3 5.9 2 10-1 1.5-1 1.5-2 3q-1 0-2 0 0 1 0 2-2.5 0-5 0 0 1 0 2c-2.3 0-4.6 0-7 0q1.5-0.5 3-1 0-1 0-2 3 0 6 0 0-1 0-2 1-0.5 1.9-1.1c3.3-3 2.9-6.6 3.1-10.9z"/><path class="b0" d="m411 858q0 1 0 2-0.9 0.1-1.8 0.2-4.2 0.3-8.4 0.7-1.4 0.1-2.9 0.2c-1.4 0.1-1.4 0.1-2.8 0.3-1.3 0.1-1.3 0.1-2.6 0.2-2.7 0.4-5 1.3-7.5 2.4 0.6-1.9 0.6-1.9 2-4 3.2-0.8 3.2-0.8 7.1-1.3q1-0.1 2-0.2c5-0.5 9.9-0.7 14.9-0.5z"/><path class="b1" d="m315 348q0.5 1 1 2c-1.4 1.1-1.4 1.1-2.9 2.2-2.8 2.3-4.1 4.2-5.1 7.8q0 1 0 2-1.5 1.5-3 3-1 1.5-2 3c-1-2.6-1.3-4.3-0.2-6.9 3.1-5.4 7.3-9.2 12.2-13.1z"/><path class="b2" d="m607 838c11.7-0.6 11.7-0.6 16.6 1.7 2.5 2.4 4.1 4.2 5.4 7.3-0.3 2.8-0.3 2.8-1 5q-0.4-0.8-0.8-1.7-0.6-1.1-1.2-2.3-0.6-1.3-1.3-2.6c-2.3-3.2-4-4-7.7-5.4-3.3-0.5-6.6-0.8-10-1q0-0.5 0-1z"/><path class="b3" d="m315 842c1.2 2.4 1.1 3.8 1.1 6.5q0 1.3-0.1 2.7 0 2.8 0 5.6-0.1 1.3-0.1 2.7 0 1.2 0 2.5c0 2.1 0 2.1 1.1 4q0.1 3.5 0 7-0.5 0-1 0 0-2.5 0-5-1 0-2 0c-2.3-7.9-1.2-17 0-25q0.5-0.5 1-1z"/><path class="b4" d="m682 45q3.2 0.2 6.4 0.4 1.8 0.2 3.7 0.3c2.9 0.3 2.9 0.3 3.9 1.3q2.1 0.3 4.1 0.4c4.2 0.5 7.9 1.3 11.9 2.6q0 0.5 0 1c-6.1 0.4-11.1-0.7-16.9-2.3-4.4-1-8.7-1.4-13.1-1.7q0-1 0-2z"/><path class="b5" d="m394 866q1 0.5 2 1-1.5 2-3 4 1 0 2 0 0 3 0 6 1 0 2 0 0 1 0 2 1.5 0.5 3 1-1.5 0.5-3 1c-3.7-2.1-4.8-3.4-6-7.5 0-3.8 0.4-4.9 3-7.5z"/><path class="b6" d="m619 868q0.5 0 1 0c0.8 6.8 0.8 6.8-1.2 9.9-3.4 3.2-6 4.5-10.7 4.5q-2.1-0.2-4.1-0.4-0.5-1-1-2c3 0.5 3 0.5 6 1q0-1 0-2 1.7-0.6 3.4-1.3 1.8-0.8 3.6-1.7 0.5-1.5 1-3 1 0 2 0 0-2.5 0-5z"/><path class="b7" d="m163.1 819.6q1.5 0 3 0c4.8 0.1 8.4 0.4 12.9 2.4q0 0.5 0 1c-5.7 0.1-5.7 0.1-8-1q-4.4-0.1-8.9-0.1-1.2 0-2.4 0-1.2 0-2.4 0c-1.1 0-1.1 0-2.2 0-2.2 0.1-4 0.5-6.1 1.1q0 1 0 2-2-0.5-4-1c6.1-4.3 10.8-4.6 18.1-4.4z"/><path class="b8" d="m620 868q0.5 0 1 0c0 3 0 5.9 0 9q-1 0-2 0c-0.2 1.2-0.2 1.2-0.3 2.4-0.7 2.6-0.7 2.6-3.7 4.6-2.7 0-2.7 0-5.7-0.4-1.5-0.1-1.5-0.1-3-0.3q-1.1-0.2-2.3-0.3 0-0.5 0-1 0.9 0 1.8 0c4.5-0.3 6.6-0.5 10.1-3.6q1.1-1.2 2.1-2.4 1 0 2 0c0-2.6 0-5.3 0-8z"/><path class="b9" d="m733 837c3.3 0 6.6 0 10 0q0 1.5 0 3c-3 0-5.9 0-9 0 0 5 0 9.9 0 15q-0.5 0-1 0c0-5.9 0-11.9 0-18z"/><path class="ba" d="m166 817q0.5 0.5 1 1 2.5 0.3 5.1 0.6 1.3 0.1 2.7 0.2c1.1 0.1 1.1 0.1 2.2 0.2q0 1 0 2 2 0 4 0 0 1 0 2-1.4-0.5-2.9-1c-4.4-1.2-8.6-1.4-13-1.6q-1.2-0.1-2.4-0.1-2.8-0.2-5.7-0.3c3.2-2.6 4.8-3.5 9-3z"/><path class="bb" d="m330 874q1.4 1.2 2.9 2.5c4.5 3.2 8.2 3.1 13.5 2.8q1.3 0 2.5-0.1 3.1 0 6.1-0.2 0 1 0 2c-6.7 1.7-14.8 1.6-21.2-0.9-1.7-1-1.7-1-3.8-3.1q0-1.5 0-3z"/><path class="aX" d="m655 823q1 0 2 0 0 1 0 2 1 0 2 0 0.1 1 0.2 2.1 0.1 1.4 0.2 2.8 0.2 1.3 0.3 2.7c0.2 2.4 0.2 2.4 1.3 4.4q-2.5 0-5 0c-0.3-4.6-0.7-9.2-1-14z"/><path class="bc" d="m770 83c4.1 1.6 6.8 4.5 9.8 7.6q0.7 0.8 1.5 1.6 1.8 1.9 3.7 3.8-1 1-2 2-3.3-3.2-6.5-6.4-0.9-0.9-1.9-1.8-0.9-0.9-1.8-1.8-0.8-0.8-1.6-1.6c-1.2-1.4-1.2-1.4-1.2-3.4z"/><path class="bd" d="m751 837c3.3 0 6.6 0 10 0q-0.5 1-1 2c-3-0.5-3-0.5-6-1q0 1 0 2-2 0-4 0 0 1 0 2c-2.3 0.7-4.6 1.3-7 2q0-2.5 0-5c2.6 0 5.3 0 8 0q0-1 0-2z"/><path class="be" d="m70 618c1 0.5 1 0.5 2 1q0.1 1.9 0.2 3.9 0.1 2.5 0.2 5 0.1 1.3 0.2 2.6 0 1.2 0.1 2.5 0 1.1 0.1 2.2c0 1.8 0 1.8 1.2 2.8q0.3 3 0.6 6.1 0.1 1.6 0.2 3.3 0.1 1.3 0.2 2.6-1-0.5-2-1c0-2.6 0-5.3 0-8q-1 0-2 0c-0.3-7.6-0.7-15.2-1-23z"/><path class="bf" d="m222 843q0 1 0 2 1-0.5 2-1 3.5-0.1 7 0 0 0.5 0 1c-1 0.3-1 0.3-2.1 0.6q-1.3 0.4-2.7 0.8-1.3 0.4-2.7 0.7c-2.7 0.9-2.7 0.9-5.5 2.9-0.2-0.9-0.2-0.9-0.4-1.9-0.5-2.3-0.5-2.3-2.6-4.1 2.5-1.2 4.3-1.1 7-1z"/><path class="bg" d="m603 411q0.5 0 1 0c0 2.3 0 4.6 0 7q1 0 2 0c0 4.6 0 9.2 0 14-3.4-4.5-3.4-4.5-3.3-8.1q0-1.1 0-2.3 0.1-1.2 0.1-2.4 0-1.1 0.1-2.4 0-2.9 0.1-5.8z"/><path class="au" d="m721 53q3 0 6 0 0 1 0 2 1 0.2 2.1 0.3c4.7 1.1 8.8 3 12.9 5.7q-0.5 1-1 2-4.2-1.9-8.3-3.9-1.2-0.5-2.4-1.1-1.1-0.5-2.3-1.1c-1-0.4-1-0.4-2.1-0.9-1.9-1-1.9-1-4.9-3z"/><path class="bh" d="m710 874q1 0.5 2 1c-1.6 3.6-2.8 4.9-6.3 6.8-3.6 1.2-6 1.7-9.7 1.2-2.9-1.5-2.9-1.5-5-3q0.5-1 1-2 0.8 0.5 1.7 1c4.3 1.8 8.8 1.1 13.3 0 2.3-2.4 2.3-2.4 3-5z"/><path class="bi" d="m407 885q1 0.5 2 1c-4.2 2.6-7.3 4.1-12.2 4.1-1.9-0.1-1.9-0.1-3.8-0.1q0-1.5 0-3c1 0 1 0 2 0.1q1.4 0 2.7 0 1.4 0.1 2.7 0.1c2.7-0.2 4.2-1 6.6-2.2z"/><path class="bj" d="m392 841q0.5 1 1 2-1.5 0-3 0-0.4 1-0.8 1.9c-1.2 2.1-1.2 2.1-4.2 3.1q0 2.5 0 5c2.6 0 5.3 0 8 0q0 0.5 0 1c-3 0-5.9 0-9 0 0-2.6 0-5.3 0-8q2-1 4-2 0-1 0-2 2-0.5 4-1z"/><path class="aK" d="m123 79q2 0.5 4 1c-3.2 4.4-6.6 7-11 10q0.5-2.5 1-5 1 0 2 0 0-1 0-2 1 0 2 0 0-1 0-2 1 0 2 0 0-1 0-2z"/><path class="bk" d="m676 43q2.7 0 5.4-0.1 1.5 0 3.1 0c2.5 0.1 2.5 0.1 3.5 1.1 3.1 0.3 6.2 0.4 9.3 0.6q1.3 0.2 2.7 0.4 0.5 1 1 2-4-0.2-8-0.4-1.1 0-2.3-0.1c-5.1-0.2-9.7-1.1-14.7-2.5q0-0.5 0-1z"/><path class="bl" d="m509 861q0.5 0 1 0 0 1.2 0.1 2.5c0.4 7.6 1.6 13.7 4.9 20.5q-1 0.5-2 1 0-1 0-2-1 0-2 0c-2-5-2.2-9.1-2.1-14.4q0-1.1 0-2.2 0-2.7 0.1-5.4z"/><path class="bm" d="m537 524c3.1 2.4 3.9 3.5 4.5 7.5-0.6 4-1.4 5.1-4.5 7.5-0.1-3-0.1-5.7 0.6-8.6 0.4-2.5 0.2-4-0.6-6.4z"/><path class="bn" d="m333 819c6.6 0 13.2 0 20 0q0 0.5 0 1c-5.9 0-11.9 0-18 0q0 1 0 2c-1.8 1.1-1.8 1.1-4 2q-1.5-0.5-3-1 0.5-1 1-2 2 0 4 0 0-1 0-2z"/><path class="bo" d="m107 711c3.5 1.5 5.6 3.4 8.3 6.1q1 1.1 2.1 2.2c0.8 0.9 0.8 0.9 1.6 1.7q-0.5 1.5-1 3-2.5-2.4-4.9-4.8-1.4-1.3-2.8-2.7c-2.3-2.5-2.3-2.5-3.3-5.5z"/><path class="bp" d="m146 873q1.5 0 3 0 0 1 0 2 1 0 2 0 0 1 0 2 3 0 6 0 0 1 0 2c2.6 0 5.3 0 8 0q0 0.5 0 1c-3.6 0-7.3 0-11 0q0-1 0-2c-3-0.5-3-0.5-6-1q0-1 0-2-1 0-2 0 0-1 0-2z"/><path class="bq" d="m396 838q4.4-0.1 8.8-0.2 1.2 0 2.4-0.1c6.2 0 6.2 0 9.4 1.8 0.7 0.7 0.7 0.7 1.4 1.5q-1.3-0.2-2.6-0.4c-6.1-0.9-12.3-1.2-18.4-1.6q0 1 0 2-2-0.5-4-1 1.5 0 3 0 0-1 0-2z"/><path class="br" d="m238 837q0 0.5 0 1-1.4 0.1-2.9 0.1c-1.8 0.1-1.8 0.1-3.7 0.2-1.9 0.1-1.9 0.1-3.8 0.2-3.8 0.5-6.3 1.6-9.6 3.5-1 0.5-1 0.5-2 1q-0.5-2-1-4 1.7-0.2 3.4-0.4c3.4-0.2 3.4-0.2 4.6-1.6 5.3-1.1 9.7-0.8 15 0z"/><path class="bs" d="m207 837c2.6 0 5.3 0 8 0q-0.5 1-1 2c-3-0.5-3-0.5-6-1-1.1 3.7-1.3 7.4-1.6 11.3q-0.1 1.8-0.2 3.8-0.1 1.4-0.2 2.9-0.5 0-1 0c0-5.6 0-11.2 0-17q1 0 2 0 0-1 0-2z"/><path class="bt" d="m699 834.9c3 0.1 3 0.1 4 1.1q2 0.3 4.1 0.6 1.9 0.2 3.9 0.4 0 1 0 2-3.4-0.2-6.9-0.4-1.9-0.1-3.8-0.2c-3.3-0.4-3.3-0.4-5.3-2.4 1-1 1-1 4-1.1z"/><path class="bu" d="m350 578c0 3 0 3-1.8 5q-1.1 1.1-2.2 2.2-1.1 1.1-2.3 2.2-0.8 0.8-1.7 1.6-1.5-0.5-3-1 1.5-1.5 3-3 1.2-1.3 2.5-2.6c2.5-2.4 2.5-2.4 5.5-4.4z"/><path class="bv" d="m490 874q1 0.5 2 1-1 0.4-1.9 0.8c-2.4 1.1-2.4 1.1-3.1 4.2-3.2 2.2-4.3 2.2-8 2q-0.5-1-1-2 1.4-0.2 2.9-0.4 1.5-0.3 3.1-0.6 0.5-1 1-2 1 0 2 0 0-1 0-2 1.5-0.5 3-1z"/><path class="bw" d="m709 848c3.1 2.8 4.9 4.9 6 9 0.2 3.3 0.1 6.7 0 10q-0.5 0-1 0c-0.1-1.7-0.1-1.7-0.3-3.5-0.4-4.1-1.8-7.2-3.9-10.7-0.8-1.8-0.8-1.8-0.8-4.8z"/><path class="bx" d="m457 847q1 0 2 0c-0.3 2.3-0.7 4.6-1 7q-1 0-2 0c0 5.3 0 10.6 0 16q-0.5 0-1 0-0.1-4.3-0.1-8.7-0.1-1.2-0.1-2.5c0-4.4 0.1-7.8 2.2-11.8z"/><path class="by" d="m663 194c2.9 4.4 4.2 8.2 3.6 13.4q-0.3 1.3-0.6 2.6-0.5 0-1 0c-1.9-5.5-2.2-10.2-2-16z"/><path class="bz" d="m193 846q1.5 0 3 0c0.2 5.6-0.6 10.5-2 16q-0.5 0-1 0c0-5.3 0-10.6 0-16z"/><path class="bA" d="m662.6 839.9q1.7 0.1 3.4 0.1 0 2 0 4c-2.3 0-4.6 0-7 0q-0.5-1.5-1-3c1-1 1-1 4.6-1.1z"/><path class="bB" d="m170 54q2 0.5 4 1c-2 2-2 2-4.6 2.1q-1.2 0-2.4-0.1 0 1 0 2-1.9 0.8-3.8 1.5c-1.1 0.4-1.1 0.4-2.2 0.8-2 0.7-2 0.7-5 0.7 5.5-4 5.5-4 10-4q0-1 0-2 2 0 4 0 0-1 0-2z"/><path class="bC" d="m263 843q1 0.5 2 1-0.5 2-1 4-1 0-2 0 0 2 0 4-1 0-2 0 0 3 0 6-0.5 0-1 0c0-3 0-5.9 0-9q1 0 2 0 0-2 0-4 1 0 2 0 0-1 0-2z"/><path class="bD" d="m530 575c6.4 0.4 6.4 0.4 9.4 3.4 1.6 2.6 1.6 2.6 1.6 4.6q-1.5 0-3 0-0.5-2-1-4c-2.6-0.7-5.3-1.3-8-2q0.5-1 1-2z"/><path class="bE" d="m607 838c-2.9 1.5-5.7 2.6-8.8 3.6q-1.1 0.4-2.4 0.8-0.9 0.3-1.8 0.6-0.5-1-1-2 1 0 2 0 0-1 0-2c4.1-1 7.8-1.1 12-1z"/><path class="bF" d="m351 830c5.3 1.4 7.2 4.6 10 9-1 0.5-1 0.5-2 1q-1-0.5-2-1 0-2 0-4c-2-0.7-4-1.3-6-2q0-1.5 0-3z"/><path class="bG" d="m463 839q2 0.5 4 1-1 0.6-1.9 1.3c-2.4 1.6-2.4 1.6-3.1 4.7q-1 0-2 0 0 2 0 4-1-0.5-2-1c1.9-5.8 1.9-5.8 3-8q1 0 2 0 0-1 0-2z"/><path class="bH" d="m754 838q3 0 6 0 0 1.5 0 3c-3 0-5.9 0-9 0q0 1 0 2-3 0-6 0 0-0.5 0-1 2.5 0 5 0 0-1 0-2 2 0 4 0 0-1 0-2z"/><path class="bI" d="m650 635q1 0.5 2 1c-2.5 4.5-2.5 4.5-5 9q-2-0.5-4-1c2.3-3 4.6-5.9 7-9z"/><path class="bJ" d="m481 445q2 0 4 0c0.4 0.9 0.4 0.9 0.7 1.9 1.6 2.7 3 3.2 5.9 4.3 1.3 0.6 1.3 0.6 2.5 1.1q0.9 0.3 1.9 0.7c-2.5 0.9-3.6 1.2-6 0.1-6.8-4.4-6.8-4.4-9-8.1z"/><path class="bK" d="m590 862c0.6 1.9 0.6 1.9 1 4q-0.5 0.5-1 1-0.4 3.8-0.6 7.6 0 1-0.1 2.1-0.2 2.7-0.3 5.3-0.5 0-1 0-0.1-4.2-0.1-8.3-0.1-1.2-0.1-2.4c0-1.1 0-1.1 0-2.3q0-1 0-2.1c0.2-1.9 0.2-1.9 2.2-4.9z"/><path class="bL" d="m616 846c3 1 3 1 4.2 2.7 1 2.8 0.9 5.3 0.8 8.3q-1 0-2 0c-1-3.6-2-7.3-3-11z"/><path class="bM" d="m523 876q0.8 0.7 1.6 1.5c3 1.9 5.1 2 8.7 2.2q1.6 0.1 3.2 0.2 1.2 0 2.5 0.1 0 0.5 0 1-3.4 0-6.9 0.1-1.9 0-3.8 0c-3.3-0.1-3.3-0.1-5.3-1.1q0-2 0-4z"/><path class="bN" d="m607 838q3.1-0.1 6.3-0.2c1.7 0 1.7 0 3.5-0.1 3.4 0.3 4.7 1 7.2 3.3q-3 0.1-6 0-0.5-0.5-1-1-2.5-0.3-5.1-0.6-1.3-0.1-2.7-0.2c-1.1-0.1-1.1-0.1-2.2-0.2q0-0.5 0-1z"/><path class="bO" d="m179 823c5 1.4 6.9 4 10 8-3.3-0.6-5.5-1.7-8-4q0-1 0-2-1 0-2 0 0-1 0-2z"/><path class="bP" d="m136 736q1 0.5 2 1 0 1 0 2 2.5 0.5 5 1 0.5 2 1 4c-7.6-4.1-7.6-4.1-10-7q1-0.5 2-1z"/><path class="bQ" d="m387 860c4.6 0 9.2 0 14 0q0 0.5 0 1-1.1 0.1-2.2 0.1c-1.5 0.2-1.5 0.2-3 0.3q-1.4 0.1-2.9 0.2c-2.9 0.4-5.2 1.2-7.9 2.4q1-2 2-4z"/><path class="bR" d="m761 837q1 0 2 0 0 1 0 2 1 0 2 0-0.5 2-1 4-1-0.5-2-1 0 3 0 6-0.5 0-1 0c0-3.6 0-7.3 0-11z"/><path class="bS" d="m265 660c2.9 1.3 4.9 2.7 7 5-1.2 0-1.2 0-2.4-0.1-2.6-0.1-2.6-0.1-4.6 1.1q-0.6-2.5-1-5 0.5-0.5 1-1z"/><path class="bT" d="m464 510c1 3 1 3 1 7q-1 0-2 0-0.5 2.5-1 5-1 0-2 0 0.7-2.4 1.4-4.9 0.4-1.3 0.8-2.7c0.8-2.4 0.8-2.4 1.8-4.4z"/><path class="bU" d="m473 879q1.3 0.5 2.6 1c3.4 1 6 1.2 9.4 1q0 1 0 2c-3.3 0-6.6 0-10 0q-1-2-2-4z"/><path class="bV" d="m139 849q0.5 0 1 0c0.3 5.3 0.7 10.6 1 16q-1.5-1-3-2c0.3-4.6 0.7-9.2 1-14z"/><path class="bW" d="m546 838c2.6 0 5.3 0 8 0q0 1 0 2-1.7 0.5-3.4 0.9c-3.4 0.9-3.4 0.9-5.6 2.1q0.5-2.5 1-5z"/><path class="bX" d="m307 494q1 2 2 4-1.2 0.2-2.4 0.4c-2.7 0.4-2.7 0.4-4.6 2.6q-1.5-0.5-3-1c2.6-2 5.3-4 8-6z"/><path class="bY" d="m586 441q1.5 0 3 0c-1.2 3.4-2.3 5.6-5 8-0.7-1.8-0.7-1.8-1-4 1.3-2.3 1.3-2.3 3-4z"/><path class="bZ" d="m617 882q0 1.5 0 3c-1.8 1.8-1.8 1.8-4 3q-1.5-0.5-3-1 0.5-1.5 1-3c3.1-1.2 3.1-1.2 6-2z"/><path class="bG" d="m129 864c3.8 2.8 4.1 6.6 5 11q-1.5 0-3 0c-1.4-3.8-2.2-6.9-2-11z"/><path class="c0" d="m383 845q1 0.5 2 1c-0.3 2.6-0.7 5.3-1 8q-1.5 0-3 0c-0.2-3.6 0.1-5.9 2-9z"/><path class="c1" d="m597 504c1.5 1 1.5 1 3 2q0 1 0 2 2-0.5 4-1-0.5 3-1 6c-3.1-2.8-4.7-5.1-6-9z"/><path class="c2" d="m603 433q1 0.5 2 1c-1.8 7.6-1.8 7.6-4 11-0.3-8.6-0.3-8.6 2-12z"/><path class="c3" d="m458 432c2.5 3.7 3 6.7 4 11q-1 0-2 0-0.5-2.5-1-5-1.5-0.5-3-1 1-2.5 2-5z"/><path class="c4" d="m356 361c2.9 0.3 2.9 0.3 6 1q1 1.5 2 3c-1.9 0.6-1.9 0.6-4 1-2-2-2-2-4-5z"/><path class="c5" d="m586 297q0 1.5 0 3c-5.9 0.5-5.9 0.5-12 1 8-4 8-4 12-4z"/><path class="c6" d="m741 63c4.1 1.7 7.6 3.1 11 6-4.4-0.5-7.4-1.4-11-4q0-1 0-2z"/><path class="c7" d="m393 878q1 0.7 2.1 1.4c3.1 1.7 5.5 2.2 8.9 2.6q0 0.5 0 1-1.9 0.1-3.8 0.1-1.1 0.1-2.2 0.1c-2-0.2-2-0.2-5-2.2q0-1.5 0-3z"/><path class="c8" d="m500 850q1 2 2 4c-2.6 0-5.3 0-8 0q-0.5-1-1-2c2.3 0 4.6 0 7 0q0-1 0-2z"/><path class="c9" d="m252 646q1.7 1.1 3.4 2.3 0.9 0.7 1.9 1.3c1.7 1.4 1.7 1.4 3.7 4.4-3 0-3 0-4.6-1.2q-0.8-0.8-1.6-1.7-0.8-0.8-1.6-1.6c-1.2-1.5-1.2-1.5-1.2-3.5z"/><path class="ca" d="m429 439q1 1 2 2c-1 2.3-2 4.6-3 7q-1 0-2 0 0-2.5 0-5 1 0 2 0 0.5-2 1-4z"/><path class="cb" d="m430 355q0.5 1 1 2 1 0 2 0 0.5 3 1 6c-1 0.5-1 0.5-2 1-0.7-3-1.3-5.9-2-9z"/><path class="cc" d="m134 73q0 1.5 0 3-1 0-2 0 0 1 0 2-2.5 0.5-5 1 0-1 0-2 1 0 2 0 0-1 0-2c3-2 3-2 5-2z"/><path class="cd" d="m296 842c3.8 1.5 5.1 3.4 7 7-2.8-0.4-3.8-0.8-5.8-2.9-1.2-2.1-1.2-2.1-1.2-4.1z"/><path class="ce" d="m218 765q-0.5 1.5-1 3c-3.3-0.3-6.6-0.7-10-1q0-0.5 0-1c7.6-1 7.6-1 11-1z"/><path class="cf" d="m305 618q2.5 0 5 0-0.5 2.5-1 5-2.5-1.5-5-3 0.5-1 1-2z"/><path class="ah" d="m97 109q1 0.5 2 1c-1 2-2 4-3 6q-1.5 0-3 0 1-2.5 2-5 1 0 2 0 0-1 0-2z"/><path class="cg" d="m752 69c6.9 3.8 6.9 3.8 8 6-2.8-0.4-4.6-0.7-6.8-2.4-1.2-1.6-1.2-1.6-1.2-3.6z"/><path class="ch" d="m181 50q0.5 1 1 2-3 0-6 0 0 1 0 2-2.5 0-5 0 1-0.5 2-1 0-1 0-2c2.6-0.3 5.3-0.7 8-1z"/><path class="ci" d="m646 879q0.5 1 1 2 1 0 2 0c1.6 2.5 1.6 2.5 3 5q-1.5 0-3 0c-2.4-2.5-3-3.5-3-7z"/><path class="cj" d="m383 881q1.5 0.5 3 1 0 1 0 2 1.5 0.5 3 1-1.5 1-3 2c-1.5-1.3-1.5-1.3-3-3q0-1.5 0-3z"/><path class="ck" d="m303 850c2.7 4 2.2 6.2 2 11q-0.5 0-1 0 0-2.5 0-5-1 0-2 0 0.5-3 1-6z"/><path class="cl" d="m543 837c3.6 0 7.3 0 11 0q0 0.5 0 1c-2.6 0-5.3 0-8 0q0 1 0 2-1.5 0-3 0 0-1.5 0-3z"/><path class="cm" d="m511 837c3 0 5.9 0 9 0q0 0.5 0 1-3 0-6 0 0 1 0 2-1 0-2 0-0.5 1-1 2 0-2.5 0-5z"/><path class="ba" d="m353 819q2 0 4 0 0 1 0 2 2 0 4 0 0.5 1.5 1 3c-6.8-1.6-6.8-1.6-9-5z"/><path class="cn" d="m813 654c2 3 2 3 1.6 5.7q-0.3 1.1-0.6 2.3-1.5 0.5-3 1c0.7-3 1.3-5.9 2-9z"/><path class="co" d="m628 638q1 2 2 4-2.5 1-5 2c0-3 0-3 1.5-4.7 0.7-0.6 0.7-0.6 1.5-1.3z"/><path class="cp" d="m634 626c0 2.6-0.3 4.5-1 7q-1.5 0-3 0 0.5-3 1-6 1.5-0.5 3-1z"/><path class="cq" d="m300 223q1 1.5 2 3-0.5 1-1 2-1 0-2 0 0 1.5 0 3-1.5 0-3 0c1-3 2.3-5.3 4-8z"/><path class="cr" d="m81 137q1 0 2 0c-0.3 2.3-0.7 4.6-1 7q-1 0-2 0-0.5 1.5-1 3c-0.2-3.9 0.4-6.5 2-10z"/><path class="cs" d="m108 99q0.5 1 1 2-1 0-2 0-0.5 2.5-1 5-1.5-0.5-3-1 0.5-1.5 1-3 1 0 2 0 0-1 0-2 1-0.5 2-1z"/><path class="ct" d="m158 61c-1.3 1.5-1.3 1.5-3 3q-2 0-4 0 0-1.5 0-3c4.8-1.1 4.8-1.1 7 0z"/></svg>